%TF.GenerationSoftware,KiCad,Pcbnew,(5.1.12)-1*%
%TF.CreationDate,2023-01-21T14:52:04-05:00*%
%TF.ProjectId,Irrigation,49727269-6761-4746-996f-6e2e6b696361,rev?*%
%TF.SameCoordinates,Original*%
%TF.FileFunction,Copper,L4,Bot*%
%TF.FilePolarity,Positive*%
%FSLAX46Y46*%
G04 Gerber Fmt 4.6, Leading zero omitted, Abs format (unit mm)*
G04 Created by KiCad (PCBNEW (5.1.12)-1) date 2023-01-21 14:52:04*
%MOMM*%
%LPD*%
G01*
G04 APERTURE LIST*
%TA.AperFunction,ComponentPad*%
%ADD10C,1.150000*%
%TD*%
%TA.AperFunction,ComponentPad*%
%ADD11C,1.605000*%
%TD*%
%TA.AperFunction,ComponentPad*%
%ADD12R,1.605000X1.605000*%
%TD*%
%TA.AperFunction,ComponentPad*%
%ADD13R,1.910000X1.910000*%
%TD*%
%TA.AperFunction,ComponentPad*%
%ADD14C,1.910000*%
%TD*%
%TA.AperFunction,ComponentPad*%
%ADD15C,1.243000*%
%TD*%
%TA.AperFunction,ComponentPad*%
%ADD16R,1.243000X1.243000*%
%TD*%
%TA.AperFunction,ComponentPad*%
%ADD17C,2.200000*%
%TD*%
%TA.AperFunction,ComponentPad*%
%ADD18R,2.200000X2.200000*%
%TD*%
%TA.AperFunction,ComponentPad*%
%ADD19C,1.600000*%
%TD*%
%TA.AperFunction,ComponentPad*%
%ADD20C,1.879600*%
%TD*%
%TA.AperFunction,ComponentPad*%
%ADD21O,1.600000X1.600000*%
%TD*%
%TA.AperFunction,ComponentPad*%
%ADD22O,1.700000X1.700000*%
%TD*%
%TA.AperFunction,ComponentPad*%
%ADD23R,1.700000X1.700000*%
%TD*%
%TA.AperFunction,ComponentPad*%
%ADD24C,1.830000*%
%TD*%
%TA.AperFunction,Conductor*%
%ADD25C,1.600000*%
%TD*%
%TA.AperFunction,Conductor*%
%ADD26C,1.243000*%
%TD*%
%TA.AperFunction,Conductor*%
%ADD27C,0.254000*%
%TD*%
%TA.AperFunction,Conductor*%
%ADD28C,0.100000*%
%TD*%
G04 APERTURE END LIST*
D10*
%TO.P,C3,2*%
%TO.N,+3V3*%
X121015760Y-128015360D03*
%TO.P,C3,1*%
%TO.N,GND*%
X121015760Y-133015360D03*
%TD*%
%TO.P,C2,2*%
%TO.N,GND*%
X178344200Y-115798600D03*
%TO.P,C2,1*%
%TO.N,Net-(C2-Pad1)*%
X173344200Y-115798600D03*
%TD*%
D11*
%TO.P,J3,20*%
%TO.N,GND*%
X163050000Y-128524000D03*
%TO.P,J3,19*%
X163050000Y-131064000D03*
%TO.P,J3,18*%
%TO.N,D16*%
X160510000Y-128524000D03*
%TO.P,J3,17*%
%TO.N,D8*%
X160510000Y-131064000D03*
%TO.P,J3,16*%
%TO.N,D15*%
X157970000Y-128524000D03*
%TO.P,J3,15*%
%TO.N,D7*%
X157970000Y-131064000D03*
%TO.P,J3,14*%
%TO.N,D14*%
X155430000Y-128524000D03*
%TO.P,J3,13*%
%TO.N,D6*%
X155430000Y-131064000D03*
%TO.P,J3,12*%
%TO.N,D13*%
X152890000Y-128524000D03*
%TO.P,J3,11*%
%TO.N,D5*%
X152890000Y-131064000D03*
%TO.P,J3,10*%
%TO.N,D12*%
X150350000Y-128524000D03*
%TO.P,J3,9*%
%TO.N,D4*%
X150350000Y-131064000D03*
%TO.P,J3,8*%
%TO.N,D11*%
X147810000Y-128524000D03*
%TO.P,J3,7*%
%TO.N,D3*%
X147810000Y-131064000D03*
%TO.P,J3,6*%
%TO.N,D10*%
X145270000Y-128524000D03*
%TO.P,J3,5*%
%TO.N,D2*%
X145270000Y-131064000D03*
%TO.P,J3,4*%
%TO.N,D9*%
X142730000Y-128524000D03*
%TO.P,J3,3*%
%TO.N,D1*%
X142730000Y-131064000D03*
%TO.P,J3,2*%
%TO.N,+5V*%
X140190000Y-128524000D03*
D12*
%TO.P,J3,1*%
X140190000Y-131064000D03*
%TD*%
D13*
%TO.P,U4,1*%
%TO.N,GND*%
X135595200Y-128884200D03*
D14*
%TO.P,U4,2*%
%TO.N,+3V3*%
X133045200Y-128884200D03*
%TO.P,U4,3*%
%TO.N,+5V*%
X130495200Y-128884200D03*
%TD*%
D15*
%TO.P,U5,28*%
%TO.N,D16*%
X160510000Y-125937000D03*
%TO.P,U5,27*%
%TO.N,D15*%
X157970000Y-125937000D03*
%TO.P,U5,26*%
%TO.N,D14*%
X155430000Y-125937000D03*
%TO.P,U5,25*%
%TO.N,D13*%
X152890000Y-125937000D03*
%TO.P,U5,24*%
%TO.N,D12*%
X150350000Y-125937000D03*
%TO.P,U5,23*%
%TO.N,D11*%
X147810000Y-125937000D03*
%TO.P,U5,22*%
%TO.N,D10*%
X145270000Y-125937000D03*
%TO.P,U5,21*%
%TO.N,D9*%
X142730000Y-125937000D03*
%TO.P,U5,20*%
%TO.N,N/C*%
X140190000Y-125937000D03*
%TO.P,U5,19*%
%TO.N,GND*%
X137650000Y-125937000D03*
%TO.P,U5,18*%
X135110000Y-125937000D03*
%TO.P,U5,17*%
X132570000Y-125937000D03*
%TO.P,U5,16*%
X130030000Y-125937000D03*
%TO.P,U5,15*%
%TO.N,GPIO0*%
X127490000Y-125937000D03*
%TO.P,U5,14*%
%TO.N,GPIO2*%
X127490000Y-118063000D03*
%TO.P,U5,13*%
%TO.N,D4*%
X130030000Y-118063000D03*
%TO.P,U5,12*%
%TO.N,D3*%
X132570000Y-118063000D03*
%TO.P,U5,11*%
%TO.N,D2*%
X135110000Y-118063000D03*
%TO.P,U5,10*%
%TO.N,N/C*%
X137650000Y-118063000D03*
%TO.P,U5,9*%
%TO.N,Net-(C4-Pad1)*%
X140190000Y-118063000D03*
%TO.P,U5,8*%
%TO.N,GND*%
X142730000Y-118063000D03*
%TO.P,U5,7*%
%TO.N,D1*%
X145270000Y-118063000D03*
%TO.P,U5,6*%
%TO.N,N/C*%
X147810000Y-118063000D03*
%TO.P,U5,5*%
%TO.N,D8*%
X150350000Y-118063000D03*
%TO.P,U5,4*%
%TO.N,D7*%
X152890000Y-118063000D03*
%TO.P,U5,3*%
%TO.N,D6*%
X155430000Y-118063000D03*
%TO.P,U5,2*%
%TO.N,D5*%
X157970000Y-118063000D03*
D16*
%TO.P,U5,1*%
%TO.N,GND*%
X160510000Y-118063000D03*
%TD*%
D14*
%TO.P,U1,3*%
%TO.N,Net-(C2-Pad1)*%
X169570080Y-116448840D03*
%TO.P,U1,2*%
%TO.N,GND*%
X167020080Y-116448840D03*
D13*
%TO.P,U1,1*%
%TO.N,+24V*%
X164470080Y-116448840D03*
%TD*%
D17*
%TO.P,J1,4*%
%TO.N,Net-(BR1-Pad2)*%
X176103280Y-119847360D03*
%TO.P,J1,3*%
%TO.N,Net-(BR1-Pad3)*%
X176103280Y-122387360D03*
%TO.P,J1,2*%
%TO.N,Net-(BR1-Pad2)*%
X176103280Y-124927360D03*
D18*
%TO.P,J1,1*%
%TO.N,Net-(BR1-Pad3)*%
X176103280Y-127467360D03*
%TD*%
D19*
%TO.P,C1,2*%
%TO.N,GND*%
X158028000Y-115506500D03*
%TO.P,C1,1*%
%TO.N,+24V*%
X160528000Y-115506500D03*
%TD*%
D20*
%TO.P,U3,8*%
%TO.N,N/C*%
X123571000Y-123143000D03*
%TO.P,U3,7*%
%TO.N,+3V3*%
X121031000Y-123143000D03*
%TO.P,U3,6*%
%TO.N,GPIO0*%
X123571000Y-120603000D03*
%TO.P,U3,5*%
%TO.N,N/C*%
X121031000Y-120603000D03*
%TO.P,U3,4*%
%TO.N,GPIO2*%
X123571000Y-118063000D03*
%TO.P,U3,3*%
%TO.N,+3V3*%
X121031000Y-118063000D03*
%TO.P,U3,2*%
%TO.N,GND*%
X123571000Y-115523000D03*
%TO.P,U3,1*%
%TO.N,N/C*%
X121031000Y-115523000D03*
%TD*%
D21*
%TO.P,R2,2*%
%TO.N,Net-(C4-Pad1)*%
X140190000Y-115570000D03*
D19*
%TO.P,R2,1*%
%TO.N,+5V*%
X132588000Y-115570000D03*
%TD*%
%TO.P,R1,1*%
%TO.N,+24V*%
X170746420Y-119372380D03*
D21*
%TO.P,R1,2*%
%TO.N,GND*%
X170746420Y-126992380D03*
%TD*%
D22*
%TO.P,J2,3*%
%TO.N,Net-(C2-Pad1)*%
X177919380Y-130581400D03*
%TO.P,J2,2*%
%TO.N,N/C*%
X175379380Y-130581400D03*
D23*
%TO.P,J2,1*%
%TO.N,GND*%
X172839380Y-130581400D03*
%TD*%
D19*
%TO.P,C4,2*%
%TO.N,GND*%
X144867000Y-115570000D03*
%TO.P,C4,1*%
%TO.N,Net-(C4-Pad1)*%
X142367000Y-115570000D03*
%TD*%
D24*
%TO.P,BR1,4*%
%TO.N,GND*%
X168116340Y-132443220D03*
%TO.P,BR1,3*%
%TO.N,Net-(BR1-Pad3)*%
X168116340Y-128633220D03*
%TO.P,BR1,2*%
%TO.N,Net-(BR1-Pad2)*%
X168116340Y-124823220D03*
%TO.P,BR1,1*%
%TO.N,+24V*%
X168116340Y-121013220D03*
%TD*%
D25*
%TO.N,+3V3*%
X122147130Y-128015360D02*
X121015760Y-128015360D01*
X124970971Y-130839201D02*
X122147130Y-128015360D01*
X132440772Y-130839201D02*
X124970971Y-130839201D01*
X133045200Y-130234773D02*
X132440772Y-130839201D01*
X133045200Y-128884200D02*
X133045200Y-130234773D01*
D26*
%TO.N,GPIO0*%
X127490000Y-124522000D02*
X123571000Y-120603000D01*
X127490000Y-125937000D02*
X127490000Y-124522000D01*
%TD*%
D27*
%TO.N,GND*%
X178430623Y-113934706D02*
X178548574Y-113970318D01*
X178657366Y-114028163D01*
X178752848Y-114106037D01*
X178831386Y-114200973D01*
X178889987Y-114309354D01*
X178926423Y-114427057D01*
X178942365Y-114578740D01*
X178942366Y-129504279D01*
X178866012Y-129427925D01*
X178622791Y-129265410D01*
X178352538Y-129153468D01*
X178065640Y-129096400D01*
X177773120Y-129096400D01*
X177486222Y-129153468D01*
X177215969Y-129265410D01*
X176972748Y-129427925D01*
X176765905Y-129634768D01*
X176649380Y-129809160D01*
X176532855Y-129634768D01*
X176326012Y-129427925D01*
X176082791Y-129265410D01*
X175937991Y-129205432D01*
X177203280Y-129205432D01*
X177327762Y-129193172D01*
X177447460Y-129156862D01*
X177557774Y-129097897D01*
X177654465Y-129018545D01*
X177733817Y-128921854D01*
X177792782Y-128811540D01*
X177829092Y-128691842D01*
X177841352Y-128567360D01*
X177841352Y-126367360D01*
X177829092Y-126242878D01*
X177792782Y-126123180D01*
X177733817Y-126012866D01*
X177654465Y-125916175D01*
X177573590Y-125849803D01*
X177640817Y-125749191D01*
X177771605Y-125433441D01*
X177838280Y-125098243D01*
X177838280Y-124756477D01*
X177771605Y-124421279D01*
X177640817Y-124105529D01*
X177450943Y-123821362D01*
X177286941Y-123657360D01*
X177450943Y-123493358D01*
X177640817Y-123209191D01*
X177771605Y-122893441D01*
X177838280Y-122558243D01*
X177838280Y-122216477D01*
X177771605Y-121881279D01*
X177640817Y-121565529D01*
X177450943Y-121281362D01*
X177286941Y-121117360D01*
X177450943Y-120953358D01*
X177640817Y-120669191D01*
X177771605Y-120353441D01*
X177838280Y-120018243D01*
X177838280Y-119676477D01*
X177771605Y-119341279D01*
X177640817Y-119025529D01*
X177450943Y-118741362D01*
X177209278Y-118499697D01*
X176925111Y-118309823D01*
X176609361Y-118179035D01*
X176274163Y-118112360D01*
X175932397Y-118112360D01*
X175597199Y-118179035D01*
X175281449Y-118309823D01*
X174997282Y-118499697D01*
X174755617Y-118741362D01*
X174565743Y-119025529D01*
X174434955Y-119341279D01*
X174368280Y-119676477D01*
X174368280Y-120018243D01*
X174434955Y-120353441D01*
X174565743Y-120669191D01*
X174755617Y-120953358D01*
X174919619Y-121117360D01*
X174755617Y-121281362D01*
X174565743Y-121565529D01*
X174434955Y-121881279D01*
X174368280Y-122216477D01*
X174368280Y-122558243D01*
X174434955Y-122893441D01*
X174565743Y-123209191D01*
X174755617Y-123493358D01*
X174919619Y-123657360D01*
X174755617Y-123821362D01*
X174565743Y-124105529D01*
X174434955Y-124421279D01*
X174368280Y-124756477D01*
X174368280Y-125098243D01*
X174434955Y-125433441D01*
X174565743Y-125749191D01*
X174632970Y-125849803D01*
X174552095Y-125916175D01*
X174472743Y-126012866D01*
X174413778Y-126123180D01*
X174377468Y-126242878D01*
X174365208Y-126367360D01*
X174365208Y-128567360D01*
X174377468Y-128691842D01*
X174413778Y-128811540D01*
X174472743Y-128921854D01*
X174552095Y-129018545D01*
X174648786Y-129097897D01*
X174759100Y-129156862D01*
X174862387Y-129188194D01*
X174675969Y-129265410D01*
X174432748Y-129427925D01*
X174225905Y-129634768D01*
X174063390Y-129877989D01*
X173951448Y-130148242D01*
X173894380Y-130435140D01*
X173894380Y-130727660D01*
X173951448Y-131014558D01*
X174063390Y-131284811D01*
X174225905Y-131528032D01*
X174432748Y-131734875D01*
X174675969Y-131897390D01*
X174946222Y-132009332D01*
X175233120Y-132066400D01*
X175525640Y-132066400D01*
X175812538Y-132009332D01*
X176082791Y-131897390D01*
X176326012Y-131734875D01*
X176532855Y-131528032D01*
X176649380Y-131353640D01*
X176765905Y-131528032D01*
X176972748Y-131734875D01*
X177215969Y-131897390D01*
X177486222Y-132009332D01*
X177773120Y-132066400D01*
X178065640Y-132066400D01*
X178352538Y-132009332D01*
X178622791Y-131897390D01*
X178866012Y-131734875D01*
X178942366Y-131658521D01*
X178942366Y-133572906D01*
X178927294Y-133726623D01*
X178891682Y-133844575D01*
X178833838Y-133953364D01*
X178755962Y-134048849D01*
X178661030Y-134127384D01*
X178552644Y-134185988D01*
X178434943Y-134222423D01*
X178283260Y-134238365D01*
X119919084Y-134238365D01*
X119765377Y-134223294D01*
X119647425Y-134187682D01*
X119538636Y-134129838D01*
X119443151Y-134051962D01*
X119364616Y-133957030D01*
X119306012Y-133848644D01*
X119269577Y-133730943D01*
X119253635Y-133579260D01*
X119253635Y-128015360D01*
X119573817Y-128015360D01*
X119601524Y-128296669D01*
X119683578Y-128567168D01*
X119816828Y-128816461D01*
X119996152Y-129034968D01*
X120214659Y-129214292D01*
X120463952Y-129347542D01*
X120734451Y-129429596D01*
X120945268Y-129450360D01*
X121552735Y-129450360D01*
X123906425Y-131804052D01*
X123951363Y-131858809D01*
X124169870Y-132038133D01*
X124419163Y-132171383D01*
X124626705Y-132234339D01*
X124689661Y-132253437D01*
X124970970Y-132281144D01*
X125041462Y-132274201D01*
X132370280Y-132274201D01*
X132440772Y-132281144D01*
X132511264Y-132274201D01*
X132722081Y-132253437D01*
X132992580Y-132171383D01*
X133241873Y-132038133D01*
X133460380Y-131858809D01*
X133505326Y-131804042D01*
X134010045Y-131299324D01*
X134064808Y-131254381D01*
X134244132Y-131035874D01*
X134377382Y-130786581D01*
X134459436Y-130516082D01*
X134480200Y-130305265D01*
X134484510Y-130261500D01*
X138749428Y-130261500D01*
X138749428Y-131866500D01*
X138761688Y-131990982D01*
X138797998Y-132110680D01*
X138856963Y-132220994D01*
X138936315Y-132317685D01*
X139033006Y-132397037D01*
X139143320Y-132456002D01*
X139263018Y-132492312D01*
X139387500Y-132504572D01*
X140992500Y-132504572D01*
X141116982Y-132492312D01*
X141236680Y-132456002D01*
X141346994Y-132397037D01*
X141443685Y-132317685D01*
X141523037Y-132220994D01*
X141582002Y-132110680D01*
X141618312Y-131990982D01*
X141618826Y-131985758D01*
X141813647Y-132180579D01*
X142049089Y-132337896D01*
X142310697Y-132446257D01*
X142588419Y-132501500D01*
X142871581Y-132501500D01*
X143149303Y-132446257D01*
X143410911Y-132337896D01*
X143646353Y-132180579D01*
X143846579Y-131980353D01*
X144000000Y-131750742D01*
X144153421Y-131980353D01*
X144353647Y-132180579D01*
X144589089Y-132337896D01*
X144850697Y-132446257D01*
X145128419Y-132501500D01*
X145411581Y-132501500D01*
X145689303Y-132446257D01*
X145950911Y-132337896D01*
X146186353Y-132180579D01*
X146386579Y-131980353D01*
X146540000Y-131750742D01*
X146693421Y-131980353D01*
X146893647Y-132180579D01*
X147129089Y-132337896D01*
X147390697Y-132446257D01*
X147668419Y-132501500D01*
X147951581Y-132501500D01*
X148229303Y-132446257D01*
X148490911Y-132337896D01*
X148726353Y-132180579D01*
X148926579Y-131980353D01*
X149080000Y-131750742D01*
X149233421Y-131980353D01*
X149433647Y-132180579D01*
X149669089Y-132337896D01*
X149930697Y-132446257D01*
X150208419Y-132501500D01*
X150491581Y-132501500D01*
X150769303Y-132446257D01*
X151030911Y-132337896D01*
X151266353Y-132180579D01*
X151466579Y-131980353D01*
X151620000Y-131750742D01*
X151773421Y-131980353D01*
X151973647Y-132180579D01*
X152209089Y-132337896D01*
X152470697Y-132446257D01*
X152748419Y-132501500D01*
X153031581Y-132501500D01*
X153309303Y-132446257D01*
X153570911Y-132337896D01*
X153806353Y-132180579D01*
X154006579Y-131980353D01*
X154160000Y-131750742D01*
X154313421Y-131980353D01*
X154513647Y-132180579D01*
X154749089Y-132337896D01*
X155010697Y-132446257D01*
X155288419Y-132501500D01*
X155571581Y-132501500D01*
X155849303Y-132446257D01*
X156110911Y-132337896D01*
X156346353Y-132180579D01*
X156546579Y-131980353D01*
X156700000Y-131750742D01*
X156853421Y-131980353D01*
X157053647Y-132180579D01*
X157289089Y-132337896D01*
X157550697Y-132446257D01*
X157828419Y-132501500D01*
X158111581Y-132501500D01*
X158389303Y-132446257D01*
X158650911Y-132337896D01*
X158886353Y-132180579D01*
X159086579Y-131980353D01*
X159240000Y-131750742D01*
X159393421Y-131980353D01*
X159593647Y-132180579D01*
X159829089Y-132337896D01*
X160090697Y-132446257D01*
X160368419Y-132501500D01*
X160651581Y-132501500D01*
X160929303Y-132446257D01*
X161190911Y-132337896D01*
X161426353Y-132180579D01*
X161626579Y-131980353D01*
X161783896Y-131744911D01*
X161892257Y-131483303D01*
X161947500Y-131205581D01*
X161947500Y-130922419D01*
X161892257Y-130644697D01*
X161783896Y-130383089D01*
X161626579Y-130147647D01*
X161426353Y-129947421D01*
X161196742Y-129794000D01*
X161426353Y-129640579D01*
X161626579Y-129440353D01*
X161783896Y-129204911D01*
X161892257Y-128943303D01*
X161947500Y-128665581D01*
X161947500Y-128480558D01*
X166566340Y-128480558D01*
X166566340Y-128785882D01*
X166625905Y-129085338D01*
X166742748Y-129367420D01*
X166912376Y-129621288D01*
X167128272Y-129837184D01*
X167382140Y-130006812D01*
X167664222Y-130123655D01*
X167963678Y-130183220D01*
X168269002Y-130183220D01*
X168568458Y-130123655D01*
X168850540Y-130006812D01*
X169104408Y-129837184D01*
X169320304Y-129621288D01*
X169489932Y-129367420D01*
X169606775Y-129085338D01*
X169666340Y-128785882D01*
X169666340Y-128480558D01*
X169606775Y-128181102D01*
X169489932Y-127899020D01*
X169320304Y-127645152D01*
X169104408Y-127429256D01*
X168850540Y-127259628D01*
X168568458Y-127142785D01*
X168269002Y-127083220D01*
X167963678Y-127083220D01*
X167664222Y-127142785D01*
X167382140Y-127259628D01*
X167128272Y-127429256D01*
X166912376Y-127645152D01*
X166742748Y-127899020D01*
X166625905Y-128181102D01*
X166566340Y-128480558D01*
X161947500Y-128480558D01*
X161947500Y-128382419D01*
X161892257Y-128104697D01*
X161783896Y-127843089D01*
X161626579Y-127607647D01*
X161426353Y-127407421D01*
X161190911Y-127250104D01*
X160929303Y-127141743D01*
X160899297Y-127135774D01*
X161105176Y-127050496D01*
X161310972Y-126912988D01*
X161485988Y-126737972D01*
X161623496Y-126532176D01*
X161718214Y-126303508D01*
X161766500Y-126060754D01*
X161766500Y-125813246D01*
X161718214Y-125570492D01*
X161623496Y-125341824D01*
X161485988Y-125136028D01*
X161310972Y-124961012D01*
X161105176Y-124823504D01*
X160876508Y-124728786D01*
X160633754Y-124680500D01*
X160386246Y-124680500D01*
X160143492Y-124728786D01*
X159914824Y-124823504D01*
X159709028Y-124961012D01*
X159534012Y-125136028D01*
X159396504Y-125341824D01*
X159301786Y-125570492D01*
X159253500Y-125813246D01*
X159253500Y-126060754D01*
X159301786Y-126303508D01*
X159396504Y-126532176D01*
X159534012Y-126737972D01*
X159709028Y-126912988D01*
X159914824Y-127050496D01*
X160120703Y-127135774D01*
X160090697Y-127141743D01*
X159829089Y-127250104D01*
X159593647Y-127407421D01*
X159393421Y-127607647D01*
X159240000Y-127837258D01*
X159086579Y-127607647D01*
X158886353Y-127407421D01*
X158650911Y-127250104D01*
X158389303Y-127141743D01*
X158359297Y-127135774D01*
X158565176Y-127050496D01*
X158770972Y-126912988D01*
X158945988Y-126737972D01*
X159083496Y-126532176D01*
X159178214Y-126303508D01*
X159226500Y-126060754D01*
X159226500Y-125813246D01*
X159178214Y-125570492D01*
X159083496Y-125341824D01*
X158945988Y-125136028D01*
X158770972Y-124961012D01*
X158565176Y-124823504D01*
X158336508Y-124728786D01*
X158093754Y-124680500D01*
X157846246Y-124680500D01*
X157603492Y-124728786D01*
X157374824Y-124823504D01*
X157169028Y-124961012D01*
X156994012Y-125136028D01*
X156856504Y-125341824D01*
X156761786Y-125570492D01*
X156713500Y-125813246D01*
X156713500Y-126060754D01*
X156761786Y-126303508D01*
X156856504Y-126532176D01*
X156994012Y-126737972D01*
X157169028Y-126912988D01*
X157374824Y-127050496D01*
X157580703Y-127135774D01*
X157550697Y-127141743D01*
X157289089Y-127250104D01*
X157053647Y-127407421D01*
X156853421Y-127607647D01*
X156700000Y-127837258D01*
X156546579Y-127607647D01*
X156346353Y-127407421D01*
X156110911Y-127250104D01*
X155849303Y-127141743D01*
X155819297Y-127135774D01*
X156025176Y-127050496D01*
X156230972Y-126912988D01*
X156405988Y-126737972D01*
X156543496Y-126532176D01*
X156638214Y-126303508D01*
X156686500Y-126060754D01*
X156686500Y-125813246D01*
X156638214Y-125570492D01*
X156543496Y-125341824D01*
X156405988Y-125136028D01*
X156230972Y-124961012D01*
X156025176Y-124823504D01*
X155796508Y-124728786D01*
X155553754Y-124680500D01*
X155306246Y-124680500D01*
X155063492Y-124728786D01*
X154834824Y-124823504D01*
X154629028Y-124961012D01*
X154454012Y-125136028D01*
X154316504Y-125341824D01*
X154221786Y-125570492D01*
X154173500Y-125813246D01*
X154173500Y-126060754D01*
X154221786Y-126303508D01*
X154316504Y-126532176D01*
X154454012Y-126737972D01*
X154629028Y-126912988D01*
X154834824Y-127050496D01*
X155040703Y-127135774D01*
X155010697Y-127141743D01*
X154749089Y-127250104D01*
X154513647Y-127407421D01*
X154313421Y-127607647D01*
X154160000Y-127837258D01*
X154006579Y-127607647D01*
X153806353Y-127407421D01*
X153570911Y-127250104D01*
X153309303Y-127141743D01*
X153279297Y-127135774D01*
X153485176Y-127050496D01*
X153690972Y-126912988D01*
X153865988Y-126737972D01*
X154003496Y-126532176D01*
X154098214Y-126303508D01*
X154146500Y-126060754D01*
X154146500Y-125813246D01*
X154098214Y-125570492D01*
X154003496Y-125341824D01*
X153865988Y-125136028D01*
X153690972Y-124961012D01*
X153485176Y-124823504D01*
X153256508Y-124728786D01*
X153013754Y-124680500D01*
X152766246Y-124680500D01*
X152523492Y-124728786D01*
X152294824Y-124823504D01*
X152089028Y-124961012D01*
X151914012Y-125136028D01*
X151776504Y-125341824D01*
X151681786Y-125570492D01*
X151633500Y-125813246D01*
X151633500Y-126060754D01*
X151681786Y-126303508D01*
X151776504Y-126532176D01*
X151914012Y-126737972D01*
X152089028Y-126912988D01*
X152294824Y-127050496D01*
X152500703Y-127135774D01*
X152470697Y-127141743D01*
X152209089Y-127250104D01*
X151973647Y-127407421D01*
X151773421Y-127607647D01*
X151620000Y-127837258D01*
X151466579Y-127607647D01*
X151266353Y-127407421D01*
X151030911Y-127250104D01*
X150769303Y-127141743D01*
X150739297Y-127135774D01*
X150945176Y-127050496D01*
X151150972Y-126912988D01*
X151325988Y-126737972D01*
X151463496Y-126532176D01*
X151558214Y-126303508D01*
X151606500Y-126060754D01*
X151606500Y-125813246D01*
X151558214Y-125570492D01*
X151463496Y-125341824D01*
X151325988Y-125136028D01*
X151150972Y-124961012D01*
X150945176Y-124823504D01*
X150716508Y-124728786D01*
X150473754Y-124680500D01*
X150226246Y-124680500D01*
X149983492Y-124728786D01*
X149754824Y-124823504D01*
X149549028Y-124961012D01*
X149374012Y-125136028D01*
X149236504Y-125341824D01*
X149141786Y-125570492D01*
X149093500Y-125813246D01*
X149093500Y-126060754D01*
X149141786Y-126303508D01*
X149236504Y-126532176D01*
X149374012Y-126737972D01*
X149549028Y-126912988D01*
X149754824Y-127050496D01*
X149960703Y-127135774D01*
X149930697Y-127141743D01*
X149669089Y-127250104D01*
X149433647Y-127407421D01*
X149233421Y-127607647D01*
X149080000Y-127837258D01*
X148926579Y-127607647D01*
X148726353Y-127407421D01*
X148490911Y-127250104D01*
X148229303Y-127141743D01*
X148199297Y-127135774D01*
X148405176Y-127050496D01*
X148610972Y-126912988D01*
X148785988Y-126737972D01*
X148923496Y-126532176D01*
X149018214Y-126303508D01*
X149066500Y-126060754D01*
X149066500Y-125813246D01*
X149018214Y-125570492D01*
X148923496Y-125341824D01*
X148785988Y-125136028D01*
X148610972Y-124961012D01*
X148405176Y-124823504D01*
X148176508Y-124728786D01*
X147933754Y-124680500D01*
X147686246Y-124680500D01*
X147443492Y-124728786D01*
X147214824Y-124823504D01*
X147009028Y-124961012D01*
X146834012Y-125136028D01*
X146696504Y-125341824D01*
X146601786Y-125570492D01*
X146553500Y-125813246D01*
X146553500Y-126060754D01*
X146601786Y-126303508D01*
X146696504Y-126532176D01*
X146834012Y-126737972D01*
X147009028Y-126912988D01*
X147214824Y-127050496D01*
X147420703Y-127135774D01*
X147390697Y-127141743D01*
X147129089Y-127250104D01*
X146893647Y-127407421D01*
X146693421Y-127607647D01*
X146540000Y-127837258D01*
X146386579Y-127607647D01*
X146186353Y-127407421D01*
X145950911Y-127250104D01*
X145689303Y-127141743D01*
X145659297Y-127135774D01*
X145865176Y-127050496D01*
X146070972Y-126912988D01*
X146245988Y-126737972D01*
X146383496Y-126532176D01*
X146478214Y-126303508D01*
X146526500Y-126060754D01*
X146526500Y-125813246D01*
X146478214Y-125570492D01*
X146383496Y-125341824D01*
X146245988Y-125136028D01*
X146070972Y-124961012D01*
X145865176Y-124823504D01*
X145636508Y-124728786D01*
X145393754Y-124680500D01*
X145146246Y-124680500D01*
X144903492Y-124728786D01*
X144674824Y-124823504D01*
X144469028Y-124961012D01*
X144294012Y-125136028D01*
X144156504Y-125341824D01*
X144061786Y-125570492D01*
X144013500Y-125813246D01*
X144013500Y-126060754D01*
X144061786Y-126303508D01*
X144156504Y-126532176D01*
X144294012Y-126737972D01*
X144469028Y-126912988D01*
X144674824Y-127050496D01*
X144880703Y-127135774D01*
X144850697Y-127141743D01*
X144589089Y-127250104D01*
X144353647Y-127407421D01*
X144153421Y-127607647D01*
X144000000Y-127837258D01*
X143846579Y-127607647D01*
X143646353Y-127407421D01*
X143410911Y-127250104D01*
X143149303Y-127141743D01*
X143119297Y-127135774D01*
X143325176Y-127050496D01*
X143530972Y-126912988D01*
X143705988Y-126737972D01*
X143843496Y-126532176D01*
X143938214Y-126303508D01*
X143986500Y-126060754D01*
X143986500Y-125813246D01*
X143938214Y-125570492D01*
X143843496Y-125341824D01*
X143705988Y-125136028D01*
X143530972Y-124961012D01*
X143325176Y-124823504D01*
X143096508Y-124728786D01*
X142853754Y-124680500D01*
X142606246Y-124680500D01*
X142363492Y-124728786D01*
X142134824Y-124823504D01*
X141929028Y-124961012D01*
X141754012Y-125136028D01*
X141616504Y-125341824D01*
X141521786Y-125570492D01*
X141473500Y-125813246D01*
X141473500Y-126060754D01*
X141521786Y-126303508D01*
X141616504Y-126532176D01*
X141754012Y-126737972D01*
X141929028Y-126912988D01*
X142134824Y-127050496D01*
X142340703Y-127135774D01*
X142310697Y-127141743D01*
X142049089Y-127250104D01*
X141813647Y-127407421D01*
X141613421Y-127607647D01*
X141460000Y-127837258D01*
X141306579Y-127607647D01*
X141106353Y-127407421D01*
X140870911Y-127250104D01*
X140609303Y-127141743D01*
X140579297Y-127135774D01*
X140785176Y-127050496D01*
X140990972Y-126912988D01*
X141165988Y-126737972D01*
X141303496Y-126532176D01*
X141398214Y-126303508D01*
X141446500Y-126060754D01*
X141446500Y-125813246D01*
X141398214Y-125570492D01*
X141303496Y-125341824D01*
X141165988Y-125136028D01*
X140990972Y-124961012D01*
X140785176Y-124823504D01*
X140556508Y-124728786D01*
X140313754Y-124680500D01*
X140066246Y-124680500D01*
X139823492Y-124728786D01*
X139594824Y-124823504D01*
X139389028Y-124961012D01*
X139214012Y-125136028D01*
X139076504Y-125341824D01*
X138981786Y-125570492D01*
X138933500Y-125813246D01*
X138933500Y-126060754D01*
X138981786Y-126303508D01*
X139076504Y-126532176D01*
X139214012Y-126737972D01*
X139389028Y-126912988D01*
X139594824Y-127050496D01*
X139800703Y-127135774D01*
X139770697Y-127141743D01*
X139509089Y-127250104D01*
X139273647Y-127407421D01*
X139073421Y-127607647D01*
X138916104Y-127843089D01*
X138807743Y-128104697D01*
X138752500Y-128382419D01*
X138752500Y-128665581D01*
X138807743Y-128943303D01*
X138916104Y-129204911D01*
X139073421Y-129440353D01*
X139268242Y-129635174D01*
X139263018Y-129635688D01*
X139143320Y-129671998D01*
X139033006Y-129730963D01*
X138936315Y-129810315D01*
X138856963Y-129907006D01*
X138797998Y-130017320D01*
X138761688Y-130137018D01*
X138749428Y-130261500D01*
X134484510Y-130261500D01*
X134487143Y-130234774D01*
X134480200Y-130164282D01*
X134480200Y-129574672D01*
X134574097Y-129347986D01*
X134635200Y-129040801D01*
X134635200Y-128727599D01*
X134574097Y-128420414D01*
X134454239Y-128131053D01*
X134280233Y-127870634D01*
X134058766Y-127649167D01*
X133798347Y-127475161D01*
X133508986Y-127355303D01*
X133201801Y-127294200D01*
X132888599Y-127294200D01*
X132581414Y-127355303D01*
X132292053Y-127475161D01*
X132031634Y-127649167D01*
X131810167Y-127870634D01*
X131770200Y-127930449D01*
X131730233Y-127870634D01*
X131508766Y-127649167D01*
X131248347Y-127475161D01*
X130958986Y-127355303D01*
X130651801Y-127294200D01*
X130338599Y-127294200D01*
X130031414Y-127355303D01*
X129742053Y-127475161D01*
X129481634Y-127649167D01*
X129260167Y-127870634D01*
X129086161Y-128131053D01*
X128966303Y-128420414D01*
X128905200Y-128727599D01*
X128905200Y-129040801D01*
X128966303Y-129347986D01*
X128989588Y-129404201D01*
X125565368Y-129404201D01*
X123211684Y-127050519D01*
X123166738Y-126995752D01*
X122948231Y-126816428D01*
X122698938Y-126683178D01*
X122428439Y-126601124D01*
X122217622Y-126580360D01*
X122147130Y-126573417D01*
X122076638Y-126580360D01*
X120945268Y-126580360D01*
X120734451Y-126601124D01*
X120463952Y-126683178D01*
X120214659Y-126816428D01*
X119996152Y-126995752D01*
X119816828Y-127214259D01*
X119683578Y-127463552D01*
X119601524Y-127734051D01*
X119573817Y-128015360D01*
X119253635Y-128015360D01*
X119253635Y-115367896D01*
X119456200Y-115367896D01*
X119456200Y-115678104D01*
X119516718Y-115982352D01*
X119635430Y-116268948D01*
X119807773Y-116526877D01*
X120027123Y-116746227D01*
X120097124Y-116793000D01*
X120027123Y-116839773D01*
X119807773Y-117059123D01*
X119635430Y-117317052D01*
X119516718Y-117603648D01*
X119456200Y-117907896D01*
X119456200Y-118218104D01*
X119516718Y-118522352D01*
X119635430Y-118808948D01*
X119807773Y-119066877D01*
X120027123Y-119286227D01*
X120097124Y-119333000D01*
X120027123Y-119379773D01*
X119807773Y-119599123D01*
X119635430Y-119857052D01*
X119516718Y-120143648D01*
X119456200Y-120447896D01*
X119456200Y-120758104D01*
X119516718Y-121062352D01*
X119635430Y-121348948D01*
X119807773Y-121606877D01*
X120027123Y-121826227D01*
X120097124Y-121873000D01*
X120027123Y-121919773D01*
X119807773Y-122139123D01*
X119635430Y-122397052D01*
X119516718Y-122683648D01*
X119456200Y-122987896D01*
X119456200Y-123298104D01*
X119516718Y-123602352D01*
X119635430Y-123888948D01*
X119807773Y-124146877D01*
X120027123Y-124366227D01*
X120285052Y-124538570D01*
X120571648Y-124657282D01*
X120875896Y-124717800D01*
X121186104Y-124717800D01*
X121490352Y-124657282D01*
X121776948Y-124538570D01*
X122034877Y-124366227D01*
X122254227Y-124146877D01*
X122301000Y-124076876D01*
X122347773Y-124146877D01*
X122567123Y-124366227D01*
X122825052Y-124538570D01*
X123111648Y-124657282D01*
X123415896Y-124717800D01*
X123726104Y-124717800D01*
X124030352Y-124657282D01*
X124316948Y-124538570D01*
X124574877Y-124366227D01*
X124794227Y-124146877D01*
X124966570Y-123888948D01*
X124999789Y-123808749D01*
X126233500Y-125042460D01*
X126233500Y-126060754D01*
X126245602Y-126121597D01*
X126251681Y-126183316D01*
X126269683Y-126242660D01*
X126281786Y-126303508D01*
X126305528Y-126360826D01*
X126323529Y-126420167D01*
X126352762Y-126474857D01*
X126376504Y-126532176D01*
X126410973Y-126583762D01*
X126440204Y-126638450D01*
X126479542Y-126686383D01*
X126514012Y-126737972D01*
X126557883Y-126781843D01*
X126597222Y-126829778D01*
X126645158Y-126869118D01*
X126689028Y-126912988D01*
X126740613Y-126947456D01*
X126788549Y-126986796D01*
X126843242Y-127016030D01*
X126894824Y-127050496D01*
X126952138Y-127074236D01*
X127006832Y-127103471D01*
X127066176Y-127121473D01*
X127123492Y-127145214D01*
X127184337Y-127157317D01*
X127243683Y-127175319D01*
X127305404Y-127181398D01*
X127366246Y-127193500D01*
X127428279Y-127193500D01*
X127490000Y-127199579D01*
X127551721Y-127193500D01*
X127613754Y-127193500D01*
X127674597Y-127181398D01*
X127736316Y-127175319D01*
X127795660Y-127157317D01*
X127856508Y-127145214D01*
X127913826Y-127121472D01*
X127973167Y-127103471D01*
X128027857Y-127074238D01*
X128085176Y-127050496D01*
X128136762Y-127016027D01*
X128191450Y-126986796D01*
X128239383Y-126947458D01*
X128290972Y-126912988D01*
X128334843Y-126869117D01*
X128382778Y-126829778D01*
X128422118Y-126781842D01*
X128465988Y-126737972D01*
X128500456Y-126686387D01*
X128539796Y-126638451D01*
X128569030Y-126583758D01*
X128603496Y-126532176D01*
X128627236Y-126474862D01*
X128656471Y-126420168D01*
X128674473Y-126360824D01*
X128698214Y-126303508D01*
X128710317Y-126242663D01*
X128728319Y-126183317D01*
X128734398Y-126121596D01*
X128746500Y-126060754D01*
X128746500Y-124670558D01*
X166566340Y-124670558D01*
X166566340Y-124975882D01*
X166625905Y-125275338D01*
X166742748Y-125557420D01*
X166912376Y-125811288D01*
X167128272Y-126027184D01*
X167382140Y-126196812D01*
X167664222Y-126313655D01*
X167963678Y-126373220D01*
X168269002Y-126373220D01*
X168568458Y-126313655D01*
X168850540Y-126196812D01*
X169104408Y-126027184D01*
X169320304Y-125811288D01*
X169489932Y-125557420D01*
X169606775Y-125275338D01*
X169666340Y-124975882D01*
X169666340Y-124670558D01*
X169606775Y-124371102D01*
X169489932Y-124089020D01*
X169320304Y-123835152D01*
X169104408Y-123619256D01*
X168850540Y-123449628D01*
X168568458Y-123332785D01*
X168269002Y-123273220D01*
X167963678Y-123273220D01*
X167664222Y-123332785D01*
X167382140Y-123449628D01*
X167128272Y-123619256D01*
X166912376Y-123835152D01*
X166742748Y-124089020D01*
X166625905Y-124371102D01*
X166566340Y-124670558D01*
X128746500Y-124670558D01*
X128746500Y-124583711D01*
X128752578Y-124522000D01*
X128746500Y-124460289D01*
X128746500Y-124460279D01*
X128728319Y-124275683D01*
X128656471Y-124038832D01*
X128576356Y-123888948D01*
X128539796Y-123820548D01*
X128422123Y-123677163D01*
X128422118Y-123677158D01*
X128382778Y-123629222D01*
X128334842Y-123589882D01*
X125605518Y-120860558D01*
X166566340Y-120860558D01*
X166566340Y-121165882D01*
X166625905Y-121465338D01*
X166742748Y-121747420D01*
X166912376Y-122001288D01*
X167128272Y-122217184D01*
X167382140Y-122386812D01*
X167664222Y-122503655D01*
X167963678Y-122563220D01*
X168269002Y-122563220D01*
X168568458Y-122503655D01*
X168850540Y-122386812D01*
X169104408Y-122217184D01*
X169320304Y-122001288D01*
X169489932Y-121747420D01*
X169606775Y-121465338D01*
X169666340Y-121165882D01*
X169666340Y-120860558D01*
X169606775Y-120561102D01*
X169489932Y-120279020D01*
X169320304Y-120025152D01*
X169104408Y-119809256D01*
X168850540Y-119639628D01*
X168568458Y-119522785D01*
X168269002Y-119463220D01*
X167963678Y-119463220D01*
X167664222Y-119522785D01*
X167382140Y-119639628D01*
X167128272Y-119809256D01*
X166912376Y-120025152D01*
X166742748Y-120279020D01*
X166625905Y-120561102D01*
X166566340Y-120860558D01*
X125605518Y-120860558D01*
X125134116Y-120389157D01*
X125085282Y-120143648D01*
X124966570Y-119857052D01*
X124794227Y-119599123D01*
X124574877Y-119379773D01*
X124504876Y-119333000D01*
X124574877Y-119286227D01*
X124794227Y-119066877D01*
X124966570Y-118808948D01*
X125085282Y-118522352D01*
X125145800Y-118218104D01*
X125145800Y-117939246D01*
X126233500Y-117939246D01*
X126233500Y-118186754D01*
X126281786Y-118429508D01*
X126376504Y-118658176D01*
X126514012Y-118863972D01*
X126689028Y-119038988D01*
X126894824Y-119176496D01*
X127123492Y-119271214D01*
X127366246Y-119319500D01*
X127613754Y-119319500D01*
X127856508Y-119271214D01*
X128085176Y-119176496D01*
X128290972Y-119038988D01*
X128465988Y-118863972D01*
X128603496Y-118658176D01*
X128698214Y-118429508D01*
X128746500Y-118186754D01*
X128746500Y-117939246D01*
X128773500Y-117939246D01*
X128773500Y-118186754D01*
X128821786Y-118429508D01*
X128916504Y-118658176D01*
X129054012Y-118863972D01*
X129229028Y-119038988D01*
X129434824Y-119176496D01*
X129663492Y-119271214D01*
X129906246Y-119319500D01*
X130153754Y-119319500D01*
X130396508Y-119271214D01*
X130625176Y-119176496D01*
X130830972Y-119038988D01*
X131005988Y-118863972D01*
X131143496Y-118658176D01*
X131238214Y-118429508D01*
X131286500Y-118186754D01*
X131286500Y-117939246D01*
X131238214Y-117696492D01*
X131143496Y-117467824D01*
X131005988Y-117262028D01*
X130830972Y-117087012D01*
X130625176Y-116949504D01*
X130396508Y-116854786D01*
X130153754Y-116806500D01*
X129906246Y-116806500D01*
X129663492Y-116854786D01*
X129434824Y-116949504D01*
X129229028Y-117087012D01*
X129054012Y-117262028D01*
X128916504Y-117467824D01*
X128821786Y-117696492D01*
X128773500Y-117939246D01*
X128746500Y-117939246D01*
X128698214Y-117696492D01*
X128603496Y-117467824D01*
X128465988Y-117262028D01*
X128290972Y-117087012D01*
X128085176Y-116949504D01*
X127856508Y-116854786D01*
X127613754Y-116806500D01*
X127366246Y-116806500D01*
X127123492Y-116854786D01*
X126894824Y-116949504D01*
X126689028Y-117087012D01*
X126514012Y-117262028D01*
X126376504Y-117467824D01*
X126281786Y-117696492D01*
X126233500Y-117939246D01*
X125145800Y-117939246D01*
X125145800Y-117907896D01*
X125085282Y-117603648D01*
X124966570Y-117317052D01*
X124794227Y-117059123D01*
X124574877Y-116839773D01*
X124316948Y-116667430D01*
X124030352Y-116548718D01*
X123726104Y-116488200D01*
X123415896Y-116488200D01*
X123111648Y-116548718D01*
X122825052Y-116667430D01*
X122567123Y-116839773D01*
X122347773Y-117059123D01*
X122301000Y-117129124D01*
X122254227Y-117059123D01*
X122034877Y-116839773D01*
X121964876Y-116793000D01*
X122034877Y-116746227D01*
X122254227Y-116526877D01*
X122426570Y-116268948D01*
X122545282Y-115982352D01*
X122605800Y-115678104D01*
X122605800Y-115428665D01*
X131153000Y-115428665D01*
X131153000Y-115711335D01*
X131208147Y-115988574D01*
X131316320Y-116249727D01*
X131473363Y-116484759D01*
X131673241Y-116684637D01*
X131908273Y-116841680D01*
X132071703Y-116909375D01*
X131974824Y-116949504D01*
X131769028Y-117087012D01*
X131594012Y-117262028D01*
X131456504Y-117467824D01*
X131361786Y-117696492D01*
X131313500Y-117939246D01*
X131313500Y-118186754D01*
X131361786Y-118429508D01*
X131456504Y-118658176D01*
X131594012Y-118863972D01*
X131769028Y-119038988D01*
X131974824Y-119176496D01*
X132203492Y-119271214D01*
X132446246Y-119319500D01*
X132693754Y-119319500D01*
X132936508Y-119271214D01*
X133165176Y-119176496D01*
X133370972Y-119038988D01*
X133545988Y-118863972D01*
X133683496Y-118658176D01*
X133778214Y-118429508D01*
X133826500Y-118186754D01*
X133826500Y-117939246D01*
X133853500Y-117939246D01*
X133853500Y-118186754D01*
X133901786Y-118429508D01*
X133996504Y-118658176D01*
X134134012Y-118863972D01*
X134309028Y-119038988D01*
X134514824Y-119176496D01*
X134743492Y-119271214D01*
X134986246Y-119319500D01*
X135233754Y-119319500D01*
X135476508Y-119271214D01*
X135705176Y-119176496D01*
X135910972Y-119038988D01*
X136085988Y-118863972D01*
X136223496Y-118658176D01*
X136318214Y-118429508D01*
X136366500Y-118186754D01*
X136366500Y-117939246D01*
X136393500Y-117939246D01*
X136393500Y-118186754D01*
X136441786Y-118429508D01*
X136536504Y-118658176D01*
X136674012Y-118863972D01*
X136849028Y-119038988D01*
X137054824Y-119176496D01*
X137283492Y-119271214D01*
X137526246Y-119319500D01*
X137773754Y-119319500D01*
X138016508Y-119271214D01*
X138245176Y-119176496D01*
X138450972Y-119038988D01*
X138625988Y-118863972D01*
X138763496Y-118658176D01*
X138858214Y-118429508D01*
X138906500Y-118186754D01*
X138906500Y-117939246D01*
X138858214Y-117696492D01*
X138763496Y-117467824D01*
X138625988Y-117262028D01*
X138450972Y-117087012D01*
X138245176Y-116949504D01*
X138016508Y-116854786D01*
X137773754Y-116806500D01*
X137526246Y-116806500D01*
X137283492Y-116854786D01*
X137054824Y-116949504D01*
X136849028Y-117087012D01*
X136674012Y-117262028D01*
X136536504Y-117467824D01*
X136441786Y-117696492D01*
X136393500Y-117939246D01*
X136366500Y-117939246D01*
X136318214Y-117696492D01*
X136223496Y-117467824D01*
X136085988Y-117262028D01*
X135910972Y-117087012D01*
X135705176Y-116949504D01*
X135476508Y-116854786D01*
X135233754Y-116806500D01*
X134986246Y-116806500D01*
X134743492Y-116854786D01*
X134514824Y-116949504D01*
X134309028Y-117087012D01*
X134134012Y-117262028D01*
X133996504Y-117467824D01*
X133901786Y-117696492D01*
X133853500Y-117939246D01*
X133826500Y-117939246D01*
X133778214Y-117696492D01*
X133683496Y-117467824D01*
X133545988Y-117262028D01*
X133370972Y-117087012D01*
X133165176Y-116949504D01*
X133086297Y-116916831D01*
X133267727Y-116841680D01*
X133502759Y-116684637D01*
X133702637Y-116484759D01*
X133859680Y-116249727D01*
X133967853Y-115988574D01*
X134023000Y-115711335D01*
X134023000Y-115428665D01*
X138755000Y-115428665D01*
X138755000Y-115711335D01*
X138810147Y-115988574D01*
X138918320Y-116249727D01*
X139075363Y-116484759D01*
X139275241Y-116684637D01*
X139510273Y-116841680D01*
X139682703Y-116913103D01*
X139594824Y-116949504D01*
X139389028Y-117087012D01*
X139214012Y-117262028D01*
X139076504Y-117467824D01*
X138981786Y-117696492D01*
X138933500Y-117939246D01*
X138933500Y-118186754D01*
X138981786Y-118429508D01*
X139076504Y-118658176D01*
X139214012Y-118863972D01*
X139389028Y-119038988D01*
X139594824Y-119176496D01*
X139823492Y-119271214D01*
X140066246Y-119319500D01*
X140313754Y-119319500D01*
X140556508Y-119271214D01*
X140785176Y-119176496D01*
X140990972Y-119038988D01*
X141165988Y-118863972D01*
X141303496Y-118658176D01*
X141398214Y-118429508D01*
X141446500Y-118186754D01*
X141446500Y-117939246D01*
X144013500Y-117939246D01*
X144013500Y-118186754D01*
X144061786Y-118429508D01*
X144156504Y-118658176D01*
X144294012Y-118863972D01*
X144469028Y-119038988D01*
X144674824Y-119176496D01*
X144903492Y-119271214D01*
X145146246Y-119319500D01*
X145393754Y-119319500D01*
X145636508Y-119271214D01*
X145865176Y-119176496D01*
X146070972Y-119038988D01*
X146245988Y-118863972D01*
X146383496Y-118658176D01*
X146478214Y-118429508D01*
X146526500Y-118186754D01*
X146526500Y-117939246D01*
X146553500Y-117939246D01*
X146553500Y-118186754D01*
X146601786Y-118429508D01*
X146696504Y-118658176D01*
X146834012Y-118863972D01*
X147009028Y-119038988D01*
X147214824Y-119176496D01*
X147443492Y-119271214D01*
X147686246Y-119319500D01*
X147933754Y-119319500D01*
X148176508Y-119271214D01*
X148405176Y-119176496D01*
X148610972Y-119038988D01*
X148785988Y-118863972D01*
X148923496Y-118658176D01*
X149018214Y-118429508D01*
X149066500Y-118186754D01*
X149066500Y-117939246D01*
X149093500Y-117939246D01*
X149093500Y-118186754D01*
X149141786Y-118429508D01*
X149236504Y-118658176D01*
X149374012Y-118863972D01*
X149549028Y-119038988D01*
X149754824Y-119176496D01*
X149983492Y-119271214D01*
X150226246Y-119319500D01*
X150473754Y-119319500D01*
X150716508Y-119271214D01*
X150945176Y-119176496D01*
X151150972Y-119038988D01*
X151325988Y-118863972D01*
X151463496Y-118658176D01*
X151558214Y-118429508D01*
X151606500Y-118186754D01*
X151606500Y-117939246D01*
X151633500Y-117939246D01*
X151633500Y-118186754D01*
X151681786Y-118429508D01*
X151776504Y-118658176D01*
X151914012Y-118863972D01*
X152089028Y-119038988D01*
X152294824Y-119176496D01*
X152523492Y-119271214D01*
X152766246Y-119319500D01*
X153013754Y-119319500D01*
X153256508Y-119271214D01*
X153485176Y-119176496D01*
X153690972Y-119038988D01*
X153865988Y-118863972D01*
X154003496Y-118658176D01*
X154098214Y-118429508D01*
X154146500Y-118186754D01*
X154146500Y-117939246D01*
X154173500Y-117939246D01*
X154173500Y-118186754D01*
X154221786Y-118429508D01*
X154316504Y-118658176D01*
X154454012Y-118863972D01*
X154629028Y-119038988D01*
X154834824Y-119176496D01*
X155063492Y-119271214D01*
X155306246Y-119319500D01*
X155553754Y-119319500D01*
X155796508Y-119271214D01*
X156025176Y-119176496D01*
X156230972Y-119038988D01*
X156405988Y-118863972D01*
X156543496Y-118658176D01*
X156638214Y-118429508D01*
X156686500Y-118186754D01*
X156686500Y-117939246D01*
X156713500Y-117939246D01*
X156713500Y-118186754D01*
X156761786Y-118429508D01*
X156856504Y-118658176D01*
X156994012Y-118863972D01*
X157169028Y-119038988D01*
X157374824Y-119176496D01*
X157603492Y-119271214D01*
X157846246Y-119319500D01*
X158093754Y-119319500D01*
X158336508Y-119271214D01*
X158433483Y-119231045D01*
X169311420Y-119231045D01*
X169311420Y-119513715D01*
X169366567Y-119790954D01*
X169474740Y-120052107D01*
X169631783Y-120287139D01*
X169831661Y-120487017D01*
X170066693Y-120644060D01*
X170327846Y-120752233D01*
X170605085Y-120807380D01*
X170887755Y-120807380D01*
X171164994Y-120752233D01*
X171426147Y-120644060D01*
X171661179Y-120487017D01*
X171861057Y-120287139D01*
X172018100Y-120052107D01*
X172126273Y-119790954D01*
X172181420Y-119513715D01*
X172181420Y-119231045D01*
X172126273Y-118953806D01*
X172018100Y-118692653D01*
X171861057Y-118457621D01*
X171661179Y-118257743D01*
X171426147Y-118100700D01*
X171164994Y-117992527D01*
X170887755Y-117937380D01*
X170605085Y-117937380D01*
X170327846Y-117992527D01*
X170066693Y-118100700D01*
X169831661Y-118257743D01*
X169631783Y-118457621D01*
X169474740Y-118692653D01*
X169366567Y-118953806D01*
X169311420Y-119231045D01*
X158433483Y-119231045D01*
X158565176Y-119176496D01*
X158770972Y-119038988D01*
X158945988Y-118863972D01*
X159083496Y-118658176D01*
X159178214Y-118429508D01*
X159226500Y-118186754D01*
X159226500Y-117939246D01*
X159178214Y-117696492D01*
X159083496Y-117467824D01*
X158945988Y-117262028D01*
X158770972Y-117087012D01*
X158565176Y-116949504D01*
X158336508Y-116854786D01*
X158093754Y-116806500D01*
X157846246Y-116806500D01*
X157603492Y-116854786D01*
X157374824Y-116949504D01*
X157169028Y-117087012D01*
X156994012Y-117262028D01*
X156856504Y-117467824D01*
X156761786Y-117696492D01*
X156713500Y-117939246D01*
X156686500Y-117939246D01*
X156638214Y-117696492D01*
X156543496Y-117467824D01*
X156405988Y-117262028D01*
X156230972Y-117087012D01*
X156025176Y-116949504D01*
X155796508Y-116854786D01*
X155553754Y-116806500D01*
X155306246Y-116806500D01*
X155063492Y-116854786D01*
X154834824Y-116949504D01*
X154629028Y-117087012D01*
X154454012Y-117262028D01*
X154316504Y-117467824D01*
X154221786Y-117696492D01*
X154173500Y-117939246D01*
X154146500Y-117939246D01*
X154098214Y-117696492D01*
X154003496Y-117467824D01*
X153865988Y-117262028D01*
X153690972Y-117087012D01*
X153485176Y-116949504D01*
X153256508Y-116854786D01*
X153013754Y-116806500D01*
X152766246Y-116806500D01*
X152523492Y-116854786D01*
X152294824Y-116949504D01*
X152089028Y-117087012D01*
X151914012Y-117262028D01*
X151776504Y-117467824D01*
X151681786Y-117696492D01*
X151633500Y-117939246D01*
X151606500Y-117939246D01*
X151558214Y-117696492D01*
X151463496Y-117467824D01*
X151325988Y-117262028D01*
X151150972Y-117087012D01*
X150945176Y-116949504D01*
X150716508Y-116854786D01*
X150473754Y-116806500D01*
X150226246Y-116806500D01*
X149983492Y-116854786D01*
X149754824Y-116949504D01*
X149549028Y-117087012D01*
X149374012Y-117262028D01*
X149236504Y-117467824D01*
X149141786Y-117696492D01*
X149093500Y-117939246D01*
X149066500Y-117939246D01*
X149018214Y-117696492D01*
X148923496Y-117467824D01*
X148785988Y-117262028D01*
X148610972Y-117087012D01*
X148405176Y-116949504D01*
X148176508Y-116854786D01*
X147933754Y-116806500D01*
X147686246Y-116806500D01*
X147443492Y-116854786D01*
X147214824Y-116949504D01*
X147009028Y-117087012D01*
X146834012Y-117262028D01*
X146696504Y-117467824D01*
X146601786Y-117696492D01*
X146553500Y-117939246D01*
X146526500Y-117939246D01*
X146478214Y-117696492D01*
X146383496Y-117467824D01*
X146245988Y-117262028D01*
X146070972Y-117087012D01*
X145865176Y-116949504D01*
X145636508Y-116854786D01*
X145393754Y-116806500D01*
X145146246Y-116806500D01*
X144903492Y-116854786D01*
X144674824Y-116949504D01*
X144469028Y-117087012D01*
X144294012Y-117262028D01*
X144156504Y-117467824D01*
X144061786Y-117696492D01*
X144013500Y-117939246D01*
X141446500Y-117939246D01*
X141398214Y-117696492D01*
X141303496Y-117467824D01*
X141165988Y-117262028D01*
X140990972Y-117087012D01*
X140785176Y-116949504D01*
X140697297Y-116913103D01*
X140869727Y-116841680D01*
X141104759Y-116684637D01*
X141278500Y-116510896D01*
X141452241Y-116684637D01*
X141687273Y-116841680D01*
X141948426Y-116949853D01*
X142225665Y-117005000D01*
X142508335Y-117005000D01*
X142785574Y-116949853D01*
X143046727Y-116841680D01*
X143281759Y-116684637D01*
X143481637Y-116484759D01*
X143638680Y-116249727D01*
X143746853Y-115988574D01*
X143802000Y-115711335D01*
X143802000Y-115428665D01*
X143789369Y-115365165D01*
X159093000Y-115365165D01*
X159093000Y-115647835D01*
X159148147Y-115925074D01*
X159256320Y-116186227D01*
X159413363Y-116421259D01*
X159613241Y-116621137D01*
X159848273Y-116778180D01*
X160109426Y-116886353D01*
X160386665Y-116941500D01*
X160669335Y-116941500D01*
X160946574Y-116886353D01*
X161207727Y-116778180D01*
X161442759Y-116621137D01*
X161642637Y-116421259D01*
X161799680Y-116186227D01*
X161907853Y-115925074D01*
X161963000Y-115647835D01*
X161963000Y-115493840D01*
X162877008Y-115493840D01*
X162877008Y-117403840D01*
X162889268Y-117528322D01*
X162925578Y-117648020D01*
X162984543Y-117758334D01*
X163063895Y-117855025D01*
X163160586Y-117934377D01*
X163270900Y-117993342D01*
X163390598Y-118029652D01*
X163515080Y-118041912D01*
X165425080Y-118041912D01*
X165549562Y-118029652D01*
X165669260Y-117993342D01*
X165779574Y-117934377D01*
X165876265Y-117855025D01*
X165955617Y-117758334D01*
X166014582Y-117648020D01*
X166050892Y-117528322D01*
X166063152Y-117403840D01*
X166063152Y-116292239D01*
X167980080Y-116292239D01*
X167980080Y-116605441D01*
X168041183Y-116912626D01*
X168161041Y-117201987D01*
X168335047Y-117462406D01*
X168556514Y-117683873D01*
X168816933Y-117857879D01*
X169106294Y-117977737D01*
X169413479Y-118038840D01*
X169726681Y-118038840D01*
X170033866Y-117977737D01*
X170323227Y-117857879D01*
X170583646Y-117683873D01*
X170805113Y-117462406D01*
X170979119Y-117201987D01*
X171098977Y-116912626D01*
X171160080Y-116605441D01*
X171160080Y-116292239D01*
X171098977Y-115985054D01*
X170979119Y-115695693D01*
X170968250Y-115679425D01*
X172134200Y-115679425D01*
X172134200Y-115917775D01*
X172180699Y-116151544D01*
X172271912Y-116371750D01*
X172404331Y-116569930D01*
X172572870Y-116738469D01*
X172771050Y-116870888D01*
X172991256Y-116962101D01*
X173225025Y-117008600D01*
X173463375Y-117008600D01*
X173697144Y-116962101D01*
X173917350Y-116870888D01*
X174115530Y-116738469D01*
X174284069Y-116569930D01*
X174416488Y-116371750D01*
X174507701Y-116151544D01*
X174554200Y-115917775D01*
X174554200Y-115679425D01*
X174507701Y-115445656D01*
X174416488Y-115225450D01*
X174284069Y-115027270D01*
X174115530Y-114858731D01*
X173917350Y-114726312D01*
X173697144Y-114635099D01*
X173463375Y-114588600D01*
X173225025Y-114588600D01*
X172991256Y-114635099D01*
X172771050Y-114726312D01*
X172572870Y-114858731D01*
X172404331Y-115027270D01*
X172271912Y-115225450D01*
X172180699Y-115445656D01*
X172134200Y-115679425D01*
X170968250Y-115679425D01*
X170805113Y-115435274D01*
X170583646Y-115213807D01*
X170323227Y-115039801D01*
X170033866Y-114919943D01*
X169726681Y-114858840D01*
X169413479Y-114858840D01*
X169106294Y-114919943D01*
X168816933Y-115039801D01*
X168556514Y-115213807D01*
X168335047Y-115435274D01*
X168161041Y-115695693D01*
X168041183Y-115985054D01*
X167980080Y-116292239D01*
X166063152Y-116292239D01*
X166063152Y-115493840D01*
X166050892Y-115369358D01*
X166014582Y-115249660D01*
X165955617Y-115139346D01*
X165876265Y-115042655D01*
X165779574Y-114963303D01*
X165669260Y-114904338D01*
X165549562Y-114868028D01*
X165425080Y-114855768D01*
X163515080Y-114855768D01*
X163390598Y-114868028D01*
X163270900Y-114904338D01*
X163160586Y-114963303D01*
X163063895Y-115042655D01*
X162984543Y-115139346D01*
X162925578Y-115249660D01*
X162889268Y-115369358D01*
X162877008Y-115493840D01*
X161963000Y-115493840D01*
X161963000Y-115365165D01*
X161907853Y-115087926D01*
X161799680Y-114826773D01*
X161642637Y-114591741D01*
X161442759Y-114391863D01*
X161207727Y-114234820D01*
X160946574Y-114126647D01*
X160669335Y-114071500D01*
X160386665Y-114071500D01*
X160109426Y-114126647D01*
X159848273Y-114234820D01*
X159613241Y-114391863D01*
X159413363Y-114591741D01*
X159256320Y-114826773D01*
X159148147Y-115087926D01*
X159093000Y-115365165D01*
X143789369Y-115365165D01*
X143746853Y-115151426D01*
X143638680Y-114890273D01*
X143481637Y-114655241D01*
X143281759Y-114455363D01*
X143046727Y-114298320D01*
X142785574Y-114190147D01*
X142508335Y-114135000D01*
X142225665Y-114135000D01*
X141948426Y-114190147D01*
X141687273Y-114298320D01*
X141452241Y-114455363D01*
X141278500Y-114629104D01*
X141104759Y-114455363D01*
X140869727Y-114298320D01*
X140608574Y-114190147D01*
X140331335Y-114135000D01*
X140048665Y-114135000D01*
X139771426Y-114190147D01*
X139510273Y-114298320D01*
X139275241Y-114455363D01*
X139075363Y-114655241D01*
X138918320Y-114890273D01*
X138810147Y-115151426D01*
X138755000Y-115428665D01*
X134023000Y-115428665D01*
X133967853Y-115151426D01*
X133859680Y-114890273D01*
X133702637Y-114655241D01*
X133502759Y-114455363D01*
X133267727Y-114298320D01*
X133006574Y-114190147D01*
X132729335Y-114135000D01*
X132446665Y-114135000D01*
X132169426Y-114190147D01*
X131908273Y-114298320D01*
X131673241Y-114455363D01*
X131473363Y-114655241D01*
X131316320Y-114890273D01*
X131208147Y-115151426D01*
X131153000Y-115428665D01*
X122605800Y-115428665D01*
X122605800Y-115367896D01*
X122545282Y-115063648D01*
X122426570Y-114777052D01*
X122254227Y-114519123D01*
X122034877Y-114299773D01*
X121776948Y-114127430D01*
X121490352Y-114008718D01*
X121186104Y-113948200D01*
X120875896Y-113948200D01*
X120571648Y-114008718D01*
X120285052Y-114127430D01*
X120027123Y-114299773D01*
X119807773Y-114519123D01*
X119635430Y-114777052D01*
X119516718Y-115063648D01*
X119456200Y-115367896D01*
X119253635Y-115367896D01*
X119253635Y-114585084D01*
X119268706Y-114431377D01*
X119304318Y-114313426D01*
X119362163Y-114204634D01*
X119440037Y-114109152D01*
X119534973Y-114030614D01*
X119643354Y-113972013D01*
X119761057Y-113935577D01*
X119912740Y-113919635D01*
X178276916Y-113919635D01*
X178430623Y-113934706D01*
%TA.AperFunction,Conductor*%
D28*
G36*
X178430623Y-113934706D02*
G01*
X178548574Y-113970318D01*
X178657366Y-114028163D01*
X178752848Y-114106037D01*
X178831386Y-114200973D01*
X178889987Y-114309354D01*
X178926423Y-114427057D01*
X178942365Y-114578740D01*
X178942366Y-129504279D01*
X178866012Y-129427925D01*
X178622791Y-129265410D01*
X178352538Y-129153468D01*
X178065640Y-129096400D01*
X177773120Y-129096400D01*
X177486222Y-129153468D01*
X177215969Y-129265410D01*
X176972748Y-129427925D01*
X176765905Y-129634768D01*
X176649380Y-129809160D01*
X176532855Y-129634768D01*
X176326012Y-129427925D01*
X176082791Y-129265410D01*
X175937991Y-129205432D01*
X177203280Y-129205432D01*
X177327762Y-129193172D01*
X177447460Y-129156862D01*
X177557774Y-129097897D01*
X177654465Y-129018545D01*
X177733817Y-128921854D01*
X177792782Y-128811540D01*
X177829092Y-128691842D01*
X177841352Y-128567360D01*
X177841352Y-126367360D01*
X177829092Y-126242878D01*
X177792782Y-126123180D01*
X177733817Y-126012866D01*
X177654465Y-125916175D01*
X177573590Y-125849803D01*
X177640817Y-125749191D01*
X177771605Y-125433441D01*
X177838280Y-125098243D01*
X177838280Y-124756477D01*
X177771605Y-124421279D01*
X177640817Y-124105529D01*
X177450943Y-123821362D01*
X177286941Y-123657360D01*
X177450943Y-123493358D01*
X177640817Y-123209191D01*
X177771605Y-122893441D01*
X177838280Y-122558243D01*
X177838280Y-122216477D01*
X177771605Y-121881279D01*
X177640817Y-121565529D01*
X177450943Y-121281362D01*
X177286941Y-121117360D01*
X177450943Y-120953358D01*
X177640817Y-120669191D01*
X177771605Y-120353441D01*
X177838280Y-120018243D01*
X177838280Y-119676477D01*
X177771605Y-119341279D01*
X177640817Y-119025529D01*
X177450943Y-118741362D01*
X177209278Y-118499697D01*
X176925111Y-118309823D01*
X176609361Y-118179035D01*
X176274163Y-118112360D01*
X175932397Y-118112360D01*
X175597199Y-118179035D01*
X175281449Y-118309823D01*
X174997282Y-118499697D01*
X174755617Y-118741362D01*
X174565743Y-119025529D01*
X174434955Y-119341279D01*
X174368280Y-119676477D01*
X174368280Y-120018243D01*
X174434955Y-120353441D01*
X174565743Y-120669191D01*
X174755617Y-120953358D01*
X174919619Y-121117360D01*
X174755617Y-121281362D01*
X174565743Y-121565529D01*
X174434955Y-121881279D01*
X174368280Y-122216477D01*
X174368280Y-122558243D01*
X174434955Y-122893441D01*
X174565743Y-123209191D01*
X174755617Y-123493358D01*
X174919619Y-123657360D01*
X174755617Y-123821362D01*
X174565743Y-124105529D01*
X174434955Y-124421279D01*
X174368280Y-124756477D01*
X174368280Y-125098243D01*
X174434955Y-125433441D01*
X174565743Y-125749191D01*
X174632970Y-125849803D01*
X174552095Y-125916175D01*
X174472743Y-126012866D01*
X174413778Y-126123180D01*
X174377468Y-126242878D01*
X174365208Y-126367360D01*
X174365208Y-128567360D01*
X174377468Y-128691842D01*
X174413778Y-128811540D01*
X174472743Y-128921854D01*
X174552095Y-129018545D01*
X174648786Y-129097897D01*
X174759100Y-129156862D01*
X174862387Y-129188194D01*
X174675969Y-129265410D01*
X174432748Y-129427925D01*
X174225905Y-129634768D01*
X174063390Y-129877989D01*
X173951448Y-130148242D01*
X173894380Y-130435140D01*
X173894380Y-130727660D01*
X173951448Y-131014558D01*
X174063390Y-131284811D01*
X174225905Y-131528032D01*
X174432748Y-131734875D01*
X174675969Y-131897390D01*
X174946222Y-132009332D01*
X175233120Y-132066400D01*
X175525640Y-132066400D01*
X175812538Y-132009332D01*
X176082791Y-131897390D01*
X176326012Y-131734875D01*
X176532855Y-131528032D01*
X176649380Y-131353640D01*
X176765905Y-131528032D01*
X176972748Y-131734875D01*
X177215969Y-131897390D01*
X177486222Y-132009332D01*
X177773120Y-132066400D01*
X178065640Y-132066400D01*
X178352538Y-132009332D01*
X178622791Y-131897390D01*
X178866012Y-131734875D01*
X178942366Y-131658521D01*
X178942366Y-133572906D01*
X178927294Y-133726623D01*
X178891682Y-133844575D01*
X178833838Y-133953364D01*
X178755962Y-134048849D01*
X178661030Y-134127384D01*
X178552644Y-134185988D01*
X178434943Y-134222423D01*
X178283260Y-134238365D01*
X119919084Y-134238365D01*
X119765377Y-134223294D01*
X119647425Y-134187682D01*
X119538636Y-134129838D01*
X119443151Y-134051962D01*
X119364616Y-133957030D01*
X119306012Y-133848644D01*
X119269577Y-133730943D01*
X119253635Y-133579260D01*
X119253635Y-128015360D01*
X119573817Y-128015360D01*
X119601524Y-128296669D01*
X119683578Y-128567168D01*
X119816828Y-128816461D01*
X119996152Y-129034968D01*
X120214659Y-129214292D01*
X120463952Y-129347542D01*
X120734451Y-129429596D01*
X120945268Y-129450360D01*
X121552735Y-129450360D01*
X123906425Y-131804052D01*
X123951363Y-131858809D01*
X124169870Y-132038133D01*
X124419163Y-132171383D01*
X124626705Y-132234339D01*
X124689661Y-132253437D01*
X124970970Y-132281144D01*
X125041462Y-132274201D01*
X132370280Y-132274201D01*
X132440772Y-132281144D01*
X132511264Y-132274201D01*
X132722081Y-132253437D01*
X132992580Y-132171383D01*
X133241873Y-132038133D01*
X133460380Y-131858809D01*
X133505326Y-131804042D01*
X134010045Y-131299324D01*
X134064808Y-131254381D01*
X134244132Y-131035874D01*
X134377382Y-130786581D01*
X134459436Y-130516082D01*
X134480200Y-130305265D01*
X134484510Y-130261500D01*
X138749428Y-130261500D01*
X138749428Y-131866500D01*
X138761688Y-131990982D01*
X138797998Y-132110680D01*
X138856963Y-132220994D01*
X138936315Y-132317685D01*
X139033006Y-132397037D01*
X139143320Y-132456002D01*
X139263018Y-132492312D01*
X139387500Y-132504572D01*
X140992500Y-132504572D01*
X141116982Y-132492312D01*
X141236680Y-132456002D01*
X141346994Y-132397037D01*
X141443685Y-132317685D01*
X141523037Y-132220994D01*
X141582002Y-132110680D01*
X141618312Y-131990982D01*
X141618826Y-131985758D01*
X141813647Y-132180579D01*
X142049089Y-132337896D01*
X142310697Y-132446257D01*
X142588419Y-132501500D01*
X142871581Y-132501500D01*
X143149303Y-132446257D01*
X143410911Y-132337896D01*
X143646353Y-132180579D01*
X143846579Y-131980353D01*
X144000000Y-131750742D01*
X144153421Y-131980353D01*
X144353647Y-132180579D01*
X144589089Y-132337896D01*
X144850697Y-132446257D01*
X145128419Y-132501500D01*
X145411581Y-132501500D01*
X145689303Y-132446257D01*
X145950911Y-132337896D01*
X146186353Y-132180579D01*
X146386579Y-131980353D01*
X146540000Y-131750742D01*
X146693421Y-131980353D01*
X146893647Y-132180579D01*
X147129089Y-132337896D01*
X147390697Y-132446257D01*
X147668419Y-132501500D01*
X147951581Y-132501500D01*
X148229303Y-132446257D01*
X148490911Y-132337896D01*
X148726353Y-132180579D01*
X148926579Y-131980353D01*
X149080000Y-131750742D01*
X149233421Y-131980353D01*
X149433647Y-132180579D01*
X149669089Y-132337896D01*
X149930697Y-132446257D01*
X150208419Y-132501500D01*
X150491581Y-132501500D01*
X150769303Y-132446257D01*
X151030911Y-132337896D01*
X151266353Y-132180579D01*
X151466579Y-131980353D01*
X151620000Y-131750742D01*
X151773421Y-131980353D01*
X151973647Y-132180579D01*
X152209089Y-132337896D01*
X152470697Y-132446257D01*
X152748419Y-132501500D01*
X153031581Y-132501500D01*
X153309303Y-132446257D01*
X153570911Y-132337896D01*
X153806353Y-132180579D01*
X154006579Y-131980353D01*
X154160000Y-131750742D01*
X154313421Y-131980353D01*
X154513647Y-132180579D01*
X154749089Y-132337896D01*
X155010697Y-132446257D01*
X155288419Y-132501500D01*
X155571581Y-132501500D01*
X155849303Y-132446257D01*
X156110911Y-132337896D01*
X156346353Y-132180579D01*
X156546579Y-131980353D01*
X156700000Y-131750742D01*
X156853421Y-131980353D01*
X157053647Y-132180579D01*
X157289089Y-132337896D01*
X157550697Y-132446257D01*
X157828419Y-132501500D01*
X158111581Y-132501500D01*
X158389303Y-132446257D01*
X158650911Y-132337896D01*
X158886353Y-132180579D01*
X159086579Y-131980353D01*
X159240000Y-131750742D01*
X159393421Y-131980353D01*
X159593647Y-132180579D01*
X159829089Y-132337896D01*
X160090697Y-132446257D01*
X160368419Y-132501500D01*
X160651581Y-132501500D01*
X160929303Y-132446257D01*
X161190911Y-132337896D01*
X161426353Y-132180579D01*
X161626579Y-131980353D01*
X161783896Y-131744911D01*
X161892257Y-131483303D01*
X161947500Y-131205581D01*
X161947500Y-130922419D01*
X161892257Y-130644697D01*
X161783896Y-130383089D01*
X161626579Y-130147647D01*
X161426353Y-129947421D01*
X161196742Y-129794000D01*
X161426353Y-129640579D01*
X161626579Y-129440353D01*
X161783896Y-129204911D01*
X161892257Y-128943303D01*
X161947500Y-128665581D01*
X161947500Y-128480558D01*
X166566340Y-128480558D01*
X166566340Y-128785882D01*
X166625905Y-129085338D01*
X166742748Y-129367420D01*
X166912376Y-129621288D01*
X167128272Y-129837184D01*
X167382140Y-130006812D01*
X167664222Y-130123655D01*
X167963678Y-130183220D01*
X168269002Y-130183220D01*
X168568458Y-130123655D01*
X168850540Y-130006812D01*
X169104408Y-129837184D01*
X169320304Y-129621288D01*
X169489932Y-129367420D01*
X169606775Y-129085338D01*
X169666340Y-128785882D01*
X169666340Y-128480558D01*
X169606775Y-128181102D01*
X169489932Y-127899020D01*
X169320304Y-127645152D01*
X169104408Y-127429256D01*
X168850540Y-127259628D01*
X168568458Y-127142785D01*
X168269002Y-127083220D01*
X167963678Y-127083220D01*
X167664222Y-127142785D01*
X167382140Y-127259628D01*
X167128272Y-127429256D01*
X166912376Y-127645152D01*
X166742748Y-127899020D01*
X166625905Y-128181102D01*
X166566340Y-128480558D01*
X161947500Y-128480558D01*
X161947500Y-128382419D01*
X161892257Y-128104697D01*
X161783896Y-127843089D01*
X161626579Y-127607647D01*
X161426353Y-127407421D01*
X161190911Y-127250104D01*
X160929303Y-127141743D01*
X160899297Y-127135774D01*
X161105176Y-127050496D01*
X161310972Y-126912988D01*
X161485988Y-126737972D01*
X161623496Y-126532176D01*
X161718214Y-126303508D01*
X161766500Y-126060754D01*
X161766500Y-125813246D01*
X161718214Y-125570492D01*
X161623496Y-125341824D01*
X161485988Y-125136028D01*
X161310972Y-124961012D01*
X161105176Y-124823504D01*
X160876508Y-124728786D01*
X160633754Y-124680500D01*
X160386246Y-124680500D01*
X160143492Y-124728786D01*
X159914824Y-124823504D01*
X159709028Y-124961012D01*
X159534012Y-125136028D01*
X159396504Y-125341824D01*
X159301786Y-125570492D01*
X159253500Y-125813246D01*
X159253500Y-126060754D01*
X159301786Y-126303508D01*
X159396504Y-126532176D01*
X159534012Y-126737972D01*
X159709028Y-126912988D01*
X159914824Y-127050496D01*
X160120703Y-127135774D01*
X160090697Y-127141743D01*
X159829089Y-127250104D01*
X159593647Y-127407421D01*
X159393421Y-127607647D01*
X159240000Y-127837258D01*
X159086579Y-127607647D01*
X158886353Y-127407421D01*
X158650911Y-127250104D01*
X158389303Y-127141743D01*
X158359297Y-127135774D01*
X158565176Y-127050496D01*
X158770972Y-126912988D01*
X158945988Y-126737972D01*
X159083496Y-126532176D01*
X159178214Y-126303508D01*
X159226500Y-126060754D01*
X159226500Y-125813246D01*
X159178214Y-125570492D01*
X159083496Y-125341824D01*
X158945988Y-125136028D01*
X158770972Y-124961012D01*
X158565176Y-124823504D01*
X158336508Y-124728786D01*
X158093754Y-124680500D01*
X157846246Y-124680500D01*
X157603492Y-124728786D01*
X157374824Y-124823504D01*
X157169028Y-124961012D01*
X156994012Y-125136028D01*
X156856504Y-125341824D01*
X156761786Y-125570492D01*
X156713500Y-125813246D01*
X156713500Y-126060754D01*
X156761786Y-126303508D01*
X156856504Y-126532176D01*
X156994012Y-126737972D01*
X157169028Y-126912988D01*
X157374824Y-127050496D01*
X157580703Y-127135774D01*
X157550697Y-127141743D01*
X157289089Y-127250104D01*
X157053647Y-127407421D01*
X156853421Y-127607647D01*
X156700000Y-127837258D01*
X156546579Y-127607647D01*
X156346353Y-127407421D01*
X156110911Y-127250104D01*
X155849303Y-127141743D01*
X155819297Y-127135774D01*
X156025176Y-127050496D01*
X156230972Y-126912988D01*
X156405988Y-126737972D01*
X156543496Y-126532176D01*
X156638214Y-126303508D01*
X156686500Y-126060754D01*
X156686500Y-125813246D01*
X156638214Y-125570492D01*
X156543496Y-125341824D01*
X156405988Y-125136028D01*
X156230972Y-124961012D01*
X156025176Y-124823504D01*
X155796508Y-124728786D01*
X155553754Y-124680500D01*
X155306246Y-124680500D01*
X155063492Y-124728786D01*
X154834824Y-124823504D01*
X154629028Y-124961012D01*
X154454012Y-125136028D01*
X154316504Y-125341824D01*
X154221786Y-125570492D01*
X154173500Y-125813246D01*
X154173500Y-126060754D01*
X154221786Y-126303508D01*
X154316504Y-126532176D01*
X154454012Y-126737972D01*
X154629028Y-126912988D01*
X154834824Y-127050496D01*
X155040703Y-127135774D01*
X155010697Y-127141743D01*
X154749089Y-127250104D01*
X154513647Y-127407421D01*
X154313421Y-127607647D01*
X154160000Y-127837258D01*
X154006579Y-127607647D01*
X153806353Y-127407421D01*
X153570911Y-127250104D01*
X153309303Y-127141743D01*
X153279297Y-127135774D01*
X153485176Y-127050496D01*
X153690972Y-126912988D01*
X153865988Y-126737972D01*
X154003496Y-126532176D01*
X154098214Y-126303508D01*
X154146500Y-126060754D01*
X154146500Y-125813246D01*
X154098214Y-125570492D01*
X154003496Y-125341824D01*
X153865988Y-125136028D01*
X153690972Y-124961012D01*
X153485176Y-124823504D01*
X153256508Y-124728786D01*
X153013754Y-124680500D01*
X152766246Y-124680500D01*
X152523492Y-124728786D01*
X152294824Y-124823504D01*
X152089028Y-124961012D01*
X151914012Y-125136028D01*
X151776504Y-125341824D01*
X151681786Y-125570492D01*
X151633500Y-125813246D01*
X151633500Y-126060754D01*
X151681786Y-126303508D01*
X151776504Y-126532176D01*
X151914012Y-126737972D01*
X152089028Y-126912988D01*
X152294824Y-127050496D01*
X152500703Y-127135774D01*
X152470697Y-127141743D01*
X152209089Y-127250104D01*
X151973647Y-127407421D01*
X151773421Y-127607647D01*
X151620000Y-127837258D01*
X151466579Y-127607647D01*
X151266353Y-127407421D01*
X151030911Y-127250104D01*
X150769303Y-127141743D01*
X150739297Y-127135774D01*
X150945176Y-127050496D01*
X151150972Y-126912988D01*
X151325988Y-126737972D01*
X151463496Y-126532176D01*
X151558214Y-126303508D01*
X151606500Y-126060754D01*
X151606500Y-125813246D01*
X151558214Y-125570492D01*
X151463496Y-125341824D01*
X151325988Y-125136028D01*
X151150972Y-124961012D01*
X150945176Y-124823504D01*
X150716508Y-124728786D01*
X150473754Y-124680500D01*
X150226246Y-124680500D01*
X149983492Y-124728786D01*
X149754824Y-124823504D01*
X149549028Y-124961012D01*
X149374012Y-125136028D01*
X149236504Y-125341824D01*
X149141786Y-125570492D01*
X149093500Y-125813246D01*
X149093500Y-126060754D01*
X149141786Y-126303508D01*
X149236504Y-126532176D01*
X149374012Y-126737972D01*
X149549028Y-126912988D01*
X149754824Y-127050496D01*
X149960703Y-127135774D01*
X149930697Y-127141743D01*
X149669089Y-127250104D01*
X149433647Y-127407421D01*
X149233421Y-127607647D01*
X149080000Y-127837258D01*
X148926579Y-127607647D01*
X148726353Y-127407421D01*
X148490911Y-127250104D01*
X148229303Y-127141743D01*
X148199297Y-127135774D01*
X148405176Y-127050496D01*
X148610972Y-126912988D01*
X148785988Y-126737972D01*
X148923496Y-126532176D01*
X149018214Y-126303508D01*
X149066500Y-126060754D01*
X149066500Y-125813246D01*
X149018214Y-125570492D01*
X148923496Y-125341824D01*
X148785988Y-125136028D01*
X148610972Y-124961012D01*
X148405176Y-124823504D01*
X148176508Y-124728786D01*
X147933754Y-124680500D01*
X147686246Y-124680500D01*
X147443492Y-124728786D01*
X147214824Y-124823504D01*
X147009028Y-124961012D01*
X146834012Y-125136028D01*
X146696504Y-125341824D01*
X146601786Y-125570492D01*
X146553500Y-125813246D01*
X146553500Y-126060754D01*
X146601786Y-126303508D01*
X146696504Y-126532176D01*
X146834012Y-126737972D01*
X147009028Y-126912988D01*
X147214824Y-127050496D01*
X147420703Y-127135774D01*
X147390697Y-127141743D01*
X147129089Y-127250104D01*
X146893647Y-127407421D01*
X146693421Y-127607647D01*
X146540000Y-127837258D01*
X146386579Y-127607647D01*
X146186353Y-127407421D01*
X145950911Y-127250104D01*
X145689303Y-127141743D01*
X145659297Y-127135774D01*
X145865176Y-127050496D01*
X146070972Y-126912988D01*
X146245988Y-126737972D01*
X146383496Y-126532176D01*
X146478214Y-126303508D01*
X146526500Y-126060754D01*
X146526500Y-125813246D01*
X146478214Y-125570492D01*
X146383496Y-125341824D01*
X146245988Y-125136028D01*
X146070972Y-124961012D01*
X145865176Y-124823504D01*
X145636508Y-124728786D01*
X145393754Y-124680500D01*
X145146246Y-124680500D01*
X144903492Y-124728786D01*
X144674824Y-124823504D01*
X144469028Y-124961012D01*
X144294012Y-125136028D01*
X144156504Y-125341824D01*
X144061786Y-125570492D01*
X144013500Y-125813246D01*
X144013500Y-126060754D01*
X144061786Y-126303508D01*
X144156504Y-126532176D01*
X144294012Y-126737972D01*
X144469028Y-126912988D01*
X144674824Y-127050496D01*
X144880703Y-127135774D01*
X144850697Y-127141743D01*
X144589089Y-127250104D01*
X144353647Y-127407421D01*
X144153421Y-127607647D01*
X144000000Y-127837258D01*
X143846579Y-127607647D01*
X143646353Y-127407421D01*
X143410911Y-127250104D01*
X143149303Y-127141743D01*
X143119297Y-127135774D01*
X143325176Y-127050496D01*
X143530972Y-126912988D01*
X143705988Y-126737972D01*
X143843496Y-126532176D01*
X143938214Y-126303508D01*
X143986500Y-126060754D01*
X143986500Y-125813246D01*
X143938214Y-125570492D01*
X143843496Y-125341824D01*
X143705988Y-125136028D01*
X143530972Y-124961012D01*
X143325176Y-124823504D01*
X143096508Y-124728786D01*
X142853754Y-124680500D01*
X142606246Y-124680500D01*
X142363492Y-124728786D01*
X142134824Y-124823504D01*
X141929028Y-124961012D01*
X141754012Y-125136028D01*
X141616504Y-125341824D01*
X141521786Y-125570492D01*
X141473500Y-125813246D01*
X141473500Y-126060754D01*
X141521786Y-126303508D01*
X141616504Y-126532176D01*
X141754012Y-126737972D01*
X141929028Y-126912988D01*
X142134824Y-127050496D01*
X142340703Y-127135774D01*
X142310697Y-127141743D01*
X142049089Y-127250104D01*
X141813647Y-127407421D01*
X141613421Y-127607647D01*
X141460000Y-127837258D01*
X141306579Y-127607647D01*
X141106353Y-127407421D01*
X140870911Y-127250104D01*
X140609303Y-127141743D01*
X140579297Y-127135774D01*
X140785176Y-127050496D01*
X140990972Y-126912988D01*
X141165988Y-126737972D01*
X141303496Y-126532176D01*
X141398214Y-126303508D01*
X141446500Y-126060754D01*
X141446500Y-125813246D01*
X141398214Y-125570492D01*
X141303496Y-125341824D01*
X141165988Y-125136028D01*
X140990972Y-124961012D01*
X140785176Y-124823504D01*
X140556508Y-124728786D01*
X140313754Y-124680500D01*
X140066246Y-124680500D01*
X139823492Y-124728786D01*
X139594824Y-124823504D01*
X139389028Y-124961012D01*
X139214012Y-125136028D01*
X139076504Y-125341824D01*
X138981786Y-125570492D01*
X138933500Y-125813246D01*
X138933500Y-126060754D01*
X138981786Y-126303508D01*
X139076504Y-126532176D01*
X139214012Y-126737972D01*
X139389028Y-126912988D01*
X139594824Y-127050496D01*
X139800703Y-127135774D01*
X139770697Y-127141743D01*
X139509089Y-127250104D01*
X139273647Y-127407421D01*
X139073421Y-127607647D01*
X138916104Y-127843089D01*
X138807743Y-128104697D01*
X138752500Y-128382419D01*
X138752500Y-128665581D01*
X138807743Y-128943303D01*
X138916104Y-129204911D01*
X139073421Y-129440353D01*
X139268242Y-129635174D01*
X139263018Y-129635688D01*
X139143320Y-129671998D01*
X139033006Y-129730963D01*
X138936315Y-129810315D01*
X138856963Y-129907006D01*
X138797998Y-130017320D01*
X138761688Y-130137018D01*
X138749428Y-130261500D01*
X134484510Y-130261500D01*
X134487143Y-130234774D01*
X134480200Y-130164282D01*
X134480200Y-129574672D01*
X134574097Y-129347986D01*
X134635200Y-129040801D01*
X134635200Y-128727599D01*
X134574097Y-128420414D01*
X134454239Y-128131053D01*
X134280233Y-127870634D01*
X134058766Y-127649167D01*
X133798347Y-127475161D01*
X133508986Y-127355303D01*
X133201801Y-127294200D01*
X132888599Y-127294200D01*
X132581414Y-127355303D01*
X132292053Y-127475161D01*
X132031634Y-127649167D01*
X131810167Y-127870634D01*
X131770200Y-127930449D01*
X131730233Y-127870634D01*
X131508766Y-127649167D01*
X131248347Y-127475161D01*
X130958986Y-127355303D01*
X130651801Y-127294200D01*
X130338599Y-127294200D01*
X130031414Y-127355303D01*
X129742053Y-127475161D01*
X129481634Y-127649167D01*
X129260167Y-127870634D01*
X129086161Y-128131053D01*
X128966303Y-128420414D01*
X128905200Y-128727599D01*
X128905200Y-129040801D01*
X128966303Y-129347986D01*
X128989588Y-129404201D01*
X125565368Y-129404201D01*
X123211684Y-127050519D01*
X123166738Y-126995752D01*
X122948231Y-126816428D01*
X122698938Y-126683178D01*
X122428439Y-126601124D01*
X122217622Y-126580360D01*
X122147130Y-126573417D01*
X122076638Y-126580360D01*
X120945268Y-126580360D01*
X120734451Y-126601124D01*
X120463952Y-126683178D01*
X120214659Y-126816428D01*
X119996152Y-126995752D01*
X119816828Y-127214259D01*
X119683578Y-127463552D01*
X119601524Y-127734051D01*
X119573817Y-128015360D01*
X119253635Y-128015360D01*
X119253635Y-115367896D01*
X119456200Y-115367896D01*
X119456200Y-115678104D01*
X119516718Y-115982352D01*
X119635430Y-116268948D01*
X119807773Y-116526877D01*
X120027123Y-116746227D01*
X120097124Y-116793000D01*
X120027123Y-116839773D01*
X119807773Y-117059123D01*
X119635430Y-117317052D01*
X119516718Y-117603648D01*
X119456200Y-117907896D01*
X119456200Y-118218104D01*
X119516718Y-118522352D01*
X119635430Y-118808948D01*
X119807773Y-119066877D01*
X120027123Y-119286227D01*
X120097124Y-119333000D01*
X120027123Y-119379773D01*
X119807773Y-119599123D01*
X119635430Y-119857052D01*
X119516718Y-120143648D01*
X119456200Y-120447896D01*
X119456200Y-120758104D01*
X119516718Y-121062352D01*
X119635430Y-121348948D01*
X119807773Y-121606877D01*
X120027123Y-121826227D01*
X120097124Y-121873000D01*
X120027123Y-121919773D01*
X119807773Y-122139123D01*
X119635430Y-122397052D01*
X119516718Y-122683648D01*
X119456200Y-122987896D01*
X119456200Y-123298104D01*
X119516718Y-123602352D01*
X119635430Y-123888948D01*
X119807773Y-124146877D01*
X120027123Y-124366227D01*
X120285052Y-124538570D01*
X120571648Y-124657282D01*
X120875896Y-124717800D01*
X121186104Y-124717800D01*
X121490352Y-124657282D01*
X121776948Y-124538570D01*
X122034877Y-124366227D01*
X122254227Y-124146877D01*
X122301000Y-124076876D01*
X122347773Y-124146877D01*
X122567123Y-124366227D01*
X122825052Y-124538570D01*
X123111648Y-124657282D01*
X123415896Y-124717800D01*
X123726104Y-124717800D01*
X124030352Y-124657282D01*
X124316948Y-124538570D01*
X124574877Y-124366227D01*
X124794227Y-124146877D01*
X124966570Y-123888948D01*
X124999789Y-123808749D01*
X126233500Y-125042460D01*
X126233500Y-126060754D01*
X126245602Y-126121597D01*
X126251681Y-126183316D01*
X126269683Y-126242660D01*
X126281786Y-126303508D01*
X126305528Y-126360826D01*
X126323529Y-126420167D01*
X126352762Y-126474857D01*
X126376504Y-126532176D01*
X126410973Y-126583762D01*
X126440204Y-126638450D01*
X126479542Y-126686383D01*
X126514012Y-126737972D01*
X126557883Y-126781843D01*
X126597222Y-126829778D01*
X126645158Y-126869118D01*
X126689028Y-126912988D01*
X126740613Y-126947456D01*
X126788549Y-126986796D01*
X126843242Y-127016030D01*
X126894824Y-127050496D01*
X126952138Y-127074236D01*
X127006832Y-127103471D01*
X127066176Y-127121473D01*
X127123492Y-127145214D01*
X127184337Y-127157317D01*
X127243683Y-127175319D01*
X127305404Y-127181398D01*
X127366246Y-127193500D01*
X127428279Y-127193500D01*
X127490000Y-127199579D01*
X127551721Y-127193500D01*
X127613754Y-127193500D01*
X127674597Y-127181398D01*
X127736316Y-127175319D01*
X127795660Y-127157317D01*
X127856508Y-127145214D01*
X127913826Y-127121472D01*
X127973167Y-127103471D01*
X128027857Y-127074238D01*
X128085176Y-127050496D01*
X128136762Y-127016027D01*
X128191450Y-126986796D01*
X128239383Y-126947458D01*
X128290972Y-126912988D01*
X128334843Y-126869117D01*
X128382778Y-126829778D01*
X128422118Y-126781842D01*
X128465988Y-126737972D01*
X128500456Y-126686387D01*
X128539796Y-126638451D01*
X128569030Y-126583758D01*
X128603496Y-126532176D01*
X128627236Y-126474862D01*
X128656471Y-126420168D01*
X128674473Y-126360824D01*
X128698214Y-126303508D01*
X128710317Y-126242663D01*
X128728319Y-126183317D01*
X128734398Y-126121596D01*
X128746500Y-126060754D01*
X128746500Y-124670558D01*
X166566340Y-124670558D01*
X166566340Y-124975882D01*
X166625905Y-125275338D01*
X166742748Y-125557420D01*
X166912376Y-125811288D01*
X167128272Y-126027184D01*
X167382140Y-126196812D01*
X167664222Y-126313655D01*
X167963678Y-126373220D01*
X168269002Y-126373220D01*
X168568458Y-126313655D01*
X168850540Y-126196812D01*
X169104408Y-126027184D01*
X169320304Y-125811288D01*
X169489932Y-125557420D01*
X169606775Y-125275338D01*
X169666340Y-124975882D01*
X169666340Y-124670558D01*
X169606775Y-124371102D01*
X169489932Y-124089020D01*
X169320304Y-123835152D01*
X169104408Y-123619256D01*
X168850540Y-123449628D01*
X168568458Y-123332785D01*
X168269002Y-123273220D01*
X167963678Y-123273220D01*
X167664222Y-123332785D01*
X167382140Y-123449628D01*
X167128272Y-123619256D01*
X166912376Y-123835152D01*
X166742748Y-124089020D01*
X166625905Y-124371102D01*
X166566340Y-124670558D01*
X128746500Y-124670558D01*
X128746500Y-124583711D01*
X128752578Y-124522000D01*
X128746500Y-124460289D01*
X128746500Y-124460279D01*
X128728319Y-124275683D01*
X128656471Y-124038832D01*
X128576356Y-123888948D01*
X128539796Y-123820548D01*
X128422123Y-123677163D01*
X128422118Y-123677158D01*
X128382778Y-123629222D01*
X128334842Y-123589882D01*
X125605518Y-120860558D01*
X166566340Y-120860558D01*
X166566340Y-121165882D01*
X166625905Y-121465338D01*
X166742748Y-121747420D01*
X166912376Y-122001288D01*
X167128272Y-122217184D01*
X167382140Y-122386812D01*
X167664222Y-122503655D01*
X167963678Y-122563220D01*
X168269002Y-122563220D01*
X168568458Y-122503655D01*
X168850540Y-122386812D01*
X169104408Y-122217184D01*
X169320304Y-122001288D01*
X169489932Y-121747420D01*
X169606775Y-121465338D01*
X169666340Y-121165882D01*
X169666340Y-120860558D01*
X169606775Y-120561102D01*
X169489932Y-120279020D01*
X169320304Y-120025152D01*
X169104408Y-119809256D01*
X168850540Y-119639628D01*
X168568458Y-119522785D01*
X168269002Y-119463220D01*
X167963678Y-119463220D01*
X167664222Y-119522785D01*
X167382140Y-119639628D01*
X167128272Y-119809256D01*
X166912376Y-120025152D01*
X166742748Y-120279020D01*
X166625905Y-120561102D01*
X166566340Y-120860558D01*
X125605518Y-120860558D01*
X125134116Y-120389157D01*
X125085282Y-120143648D01*
X124966570Y-119857052D01*
X124794227Y-119599123D01*
X124574877Y-119379773D01*
X124504876Y-119333000D01*
X124574877Y-119286227D01*
X124794227Y-119066877D01*
X124966570Y-118808948D01*
X125085282Y-118522352D01*
X125145800Y-118218104D01*
X125145800Y-117939246D01*
X126233500Y-117939246D01*
X126233500Y-118186754D01*
X126281786Y-118429508D01*
X126376504Y-118658176D01*
X126514012Y-118863972D01*
X126689028Y-119038988D01*
X126894824Y-119176496D01*
X127123492Y-119271214D01*
X127366246Y-119319500D01*
X127613754Y-119319500D01*
X127856508Y-119271214D01*
X128085176Y-119176496D01*
X128290972Y-119038988D01*
X128465988Y-118863972D01*
X128603496Y-118658176D01*
X128698214Y-118429508D01*
X128746500Y-118186754D01*
X128746500Y-117939246D01*
X128773500Y-117939246D01*
X128773500Y-118186754D01*
X128821786Y-118429508D01*
X128916504Y-118658176D01*
X129054012Y-118863972D01*
X129229028Y-119038988D01*
X129434824Y-119176496D01*
X129663492Y-119271214D01*
X129906246Y-119319500D01*
X130153754Y-119319500D01*
X130396508Y-119271214D01*
X130625176Y-119176496D01*
X130830972Y-119038988D01*
X131005988Y-118863972D01*
X131143496Y-118658176D01*
X131238214Y-118429508D01*
X131286500Y-118186754D01*
X131286500Y-117939246D01*
X131238214Y-117696492D01*
X131143496Y-117467824D01*
X131005988Y-117262028D01*
X130830972Y-117087012D01*
X130625176Y-116949504D01*
X130396508Y-116854786D01*
X130153754Y-116806500D01*
X129906246Y-116806500D01*
X129663492Y-116854786D01*
X129434824Y-116949504D01*
X129229028Y-117087012D01*
X129054012Y-117262028D01*
X128916504Y-117467824D01*
X128821786Y-117696492D01*
X128773500Y-117939246D01*
X128746500Y-117939246D01*
X128698214Y-117696492D01*
X128603496Y-117467824D01*
X128465988Y-117262028D01*
X128290972Y-117087012D01*
X128085176Y-116949504D01*
X127856508Y-116854786D01*
X127613754Y-116806500D01*
X127366246Y-116806500D01*
X127123492Y-116854786D01*
X126894824Y-116949504D01*
X126689028Y-117087012D01*
X126514012Y-117262028D01*
X126376504Y-117467824D01*
X126281786Y-117696492D01*
X126233500Y-117939246D01*
X125145800Y-117939246D01*
X125145800Y-117907896D01*
X125085282Y-117603648D01*
X124966570Y-117317052D01*
X124794227Y-117059123D01*
X124574877Y-116839773D01*
X124316948Y-116667430D01*
X124030352Y-116548718D01*
X123726104Y-116488200D01*
X123415896Y-116488200D01*
X123111648Y-116548718D01*
X122825052Y-116667430D01*
X122567123Y-116839773D01*
X122347773Y-117059123D01*
X122301000Y-117129124D01*
X122254227Y-117059123D01*
X122034877Y-116839773D01*
X121964876Y-116793000D01*
X122034877Y-116746227D01*
X122254227Y-116526877D01*
X122426570Y-116268948D01*
X122545282Y-115982352D01*
X122605800Y-115678104D01*
X122605800Y-115428665D01*
X131153000Y-115428665D01*
X131153000Y-115711335D01*
X131208147Y-115988574D01*
X131316320Y-116249727D01*
X131473363Y-116484759D01*
X131673241Y-116684637D01*
X131908273Y-116841680D01*
X132071703Y-116909375D01*
X131974824Y-116949504D01*
X131769028Y-117087012D01*
X131594012Y-117262028D01*
X131456504Y-117467824D01*
X131361786Y-117696492D01*
X131313500Y-117939246D01*
X131313500Y-118186754D01*
X131361786Y-118429508D01*
X131456504Y-118658176D01*
X131594012Y-118863972D01*
X131769028Y-119038988D01*
X131974824Y-119176496D01*
X132203492Y-119271214D01*
X132446246Y-119319500D01*
X132693754Y-119319500D01*
X132936508Y-119271214D01*
X133165176Y-119176496D01*
X133370972Y-119038988D01*
X133545988Y-118863972D01*
X133683496Y-118658176D01*
X133778214Y-118429508D01*
X133826500Y-118186754D01*
X133826500Y-117939246D01*
X133853500Y-117939246D01*
X133853500Y-118186754D01*
X133901786Y-118429508D01*
X133996504Y-118658176D01*
X134134012Y-118863972D01*
X134309028Y-119038988D01*
X134514824Y-119176496D01*
X134743492Y-119271214D01*
X134986246Y-119319500D01*
X135233754Y-119319500D01*
X135476508Y-119271214D01*
X135705176Y-119176496D01*
X135910972Y-119038988D01*
X136085988Y-118863972D01*
X136223496Y-118658176D01*
X136318214Y-118429508D01*
X136366500Y-118186754D01*
X136366500Y-117939246D01*
X136393500Y-117939246D01*
X136393500Y-118186754D01*
X136441786Y-118429508D01*
X136536504Y-118658176D01*
X136674012Y-118863972D01*
X136849028Y-119038988D01*
X137054824Y-119176496D01*
X137283492Y-119271214D01*
X137526246Y-119319500D01*
X137773754Y-119319500D01*
X138016508Y-119271214D01*
X138245176Y-119176496D01*
X138450972Y-119038988D01*
X138625988Y-118863972D01*
X138763496Y-118658176D01*
X138858214Y-118429508D01*
X138906500Y-118186754D01*
X138906500Y-117939246D01*
X138858214Y-117696492D01*
X138763496Y-117467824D01*
X138625988Y-117262028D01*
X138450972Y-117087012D01*
X138245176Y-116949504D01*
X138016508Y-116854786D01*
X137773754Y-116806500D01*
X137526246Y-116806500D01*
X137283492Y-116854786D01*
X137054824Y-116949504D01*
X136849028Y-117087012D01*
X136674012Y-117262028D01*
X136536504Y-117467824D01*
X136441786Y-117696492D01*
X136393500Y-117939246D01*
X136366500Y-117939246D01*
X136318214Y-117696492D01*
X136223496Y-117467824D01*
X136085988Y-117262028D01*
X135910972Y-117087012D01*
X135705176Y-116949504D01*
X135476508Y-116854786D01*
X135233754Y-116806500D01*
X134986246Y-116806500D01*
X134743492Y-116854786D01*
X134514824Y-116949504D01*
X134309028Y-117087012D01*
X134134012Y-117262028D01*
X133996504Y-117467824D01*
X133901786Y-117696492D01*
X133853500Y-117939246D01*
X133826500Y-117939246D01*
X133778214Y-117696492D01*
X133683496Y-117467824D01*
X133545988Y-117262028D01*
X133370972Y-117087012D01*
X133165176Y-116949504D01*
X133086297Y-116916831D01*
X133267727Y-116841680D01*
X133502759Y-116684637D01*
X133702637Y-116484759D01*
X133859680Y-116249727D01*
X133967853Y-115988574D01*
X134023000Y-115711335D01*
X134023000Y-115428665D01*
X138755000Y-115428665D01*
X138755000Y-115711335D01*
X138810147Y-115988574D01*
X138918320Y-116249727D01*
X139075363Y-116484759D01*
X139275241Y-116684637D01*
X139510273Y-116841680D01*
X139682703Y-116913103D01*
X139594824Y-116949504D01*
X139389028Y-117087012D01*
X139214012Y-117262028D01*
X139076504Y-117467824D01*
X138981786Y-117696492D01*
X138933500Y-117939246D01*
X138933500Y-118186754D01*
X138981786Y-118429508D01*
X139076504Y-118658176D01*
X139214012Y-118863972D01*
X139389028Y-119038988D01*
X139594824Y-119176496D01*
X139823492Y-119271214D01*
X140066246Y-119319500D01*
X140313754Y-119319500D01*
X140556508Y-119271214D01*
X140785176Y-119176496D01*
X140990972Y-119038988D01*
X141165988Y-118863972D01*
X141303496Y-118658176D01*
X141398214Y-118429508D01*
X141446500Y-118186754D01*
X141446500Y-117939246D01*
X144013500Y-117939246D01*
X144013500Y-118186754D01*
X144061786Y-118429508D01*
X144156504Y-118658176D01*
X144294012Y-118863972D01*
X144469028Y-119038988D01*
X144674824Y-119176496D01*
X144903492Y-119271214D01*
X145146246Y-119319500D01*
X145393754Y-119319500D01*
X145636508Y-119271214D01*
X145865176Y-119176496D01*
X146070972Y-119038988D01*
X146245988Y-118863972D01*
X146383496Y-118658176D01*
X146478214Y-118429508D01*
X146526500Y-118186754D01*
X146526500Y-117939246D01*
X146553500Y-117939246D01*
X146553500Y-118186754D01*
X146601786Y-118429508D01*
X146696504Y-118658176D01*
X146834012Y-118863972D01*
X147009028Y-119038988D01*
X147214824Y-119176496D01*
X147443492Y-119271214D01*
X147686246Y-119319500D01*
X147933754Y-119319500D01*
X148176508Y-119271214D01*
X148405176Y-119176496D01*
X148610972Y-119038988D01*
X148785988Y-118863972D01*
X148923496Y-118658176D01*
X149018214Y-118429508D01*
X149066500Y-118186754D01*
X149066500Y-117939246D01*
X149093500Y-117939246D01*
X149093500Y-118186754D01*
X149141786Y-118429508D01*
X149236504Y-118658176D01*
X149374012Y-118863972D01*
X149549028Y-119038988D01*
X149754824Y-119176496D01*
X149983492Y-119271214D01*
X150226246Y-119319500D01*
X150473754Y-119319500D01*
X150716508Y-119271214D01*
X150945176Y-119176496D01*
X151150972Y-119038988D01*
X151325988Y-118863972D01*
X151463496Y-118658176D01*
X151558214Y-118429508D01*
X151606500Y-118186754D01*
X151606500Y-117939246D01*
X151633500Y-117939246D01*
X151633500Y-118186754D01*
X151681786Y-118429508D01*
X151776504Y-118658176D01*
X151914012Y-118863972D01*
X152089028Y-119038988D01*
X152294824Y-119176496D01*
X152523492Y-119271214D01*
X152766246Y-119319500D01*
X153013754Y-119319500D01*
X153256508Y-119271214D01*
X153485176Y-119176496D01*
X153690972Y-119038988D01*
X153865988Y-118863972D01*
X154003496Y-118658176D01*
X154098214Y-118429508D01*
X154146500Y-118186754D01*
X154146500Y-117939246D01*
X154173500Y-117939246D01*
X154173500Y-118186754D01*
X154221786Y-118429508D01*
X154316504Y-118658176D01*
X154454012Y-118863972D01*
X154629028Y-119038988D01*
X154834824Y-119176496D01*
X155063492Y-119271214D01*
X155306246Y-119319500D01*
X155553754Y-119319500D01*
X155796508Y-119271214D01*
X156025176Y-119176496D01*
X156230972Y-119038988D01*
X156405988Y-118863972D01*
X156543496Y-118658176D01*
X156638214Y-118429508D01*
X156686500Y-118186754D01*
X156686500Y-117939246D01*
X156713500Y-117939246D01*
X156713500Y-118186754D01*
X156761786Y-118429508D01*
X156856504Y-118658176D01*
X156994012Y-118863972D01*
X157169028Y-119038988D01*
X157374824Y-119176496D01*
X157603492Y-119271214D01*
X157846246Y-119319500D01*
X158093754Y-119319500D01*
X158336508Y-119271214D01*
X158433483Y-119231045D01*
X169311420Y-119231045D01*
X169311420Y-119513715D01*
X169366567Y-119790954D01*
X169474740Y-120052107D01*
X169631783Y-120287139D01*
X169831661Y-120487017D01*
X170066693Y-120644060D01*
X170327846Y-120752233D01*
X170605085Y-120807380D01*
X170887755Y-120807380D01*
X171164994Y-120752233D01*
X171426147Y-120644060D01*
X171661179Y-120487017D01*
X171861057Y-120287139D01*
X172018100Y-120052107D01*
X172126273Y-119790954D01*
X172181420Y-119513715D01*
X172181420Y-119231045D01*
X172126273Y-118953806D01*
X172018100Y-118692653D01*
X171861057Y-118457621D01*
X171661179Y-118257743D01*
X171426147Y-118100700D01*
X171164994Y-117992527D01*
X170887755Y-117937380D01*
X170605085Y-117937380D01*
X170327846Y-117992527D01*
X170066693Y-118100700D01*
X169831661Y-118257743D01*
X169631783Y-118457621D01*
X169474740Y-118692653D01*
X169366567Y-118953806D01*
X169311420Y-119231045D01*
X158433483Y-119231045D01*
X158565176Y-119176496D01*
X158770972Y-119038988D01*
X158945988Y-118863972D01*
X159083496Y-118658176D01*
X159178214Y-118429508D01*
X159226500Y-118186754D01*
X159226500Y-117939246D01*
X159178214Y-117696492D01*
X159083496Y-117467824D01*
X158945988Y-117262028D01*
X158770972Y-117087012D01*
X158565176Y-116949504D01*
X158336508Y-116854786D01*
X158093754Y-116806500D01*
X157846246Y-116806500D01*
X157603492Y-116854786D01*
X157374824Y-116949504D01*
X157169028Y-117087012D01*
X156994012Y-117262028D01*
X156856504Y-117467824D01*
X156761786Y-117696492D01*
X156713500Y-117939246D01*
X156686500Y-117939246D01*
X156638214Y-117696492D01*
X156543496Y-117467824D01*
X156405988Y-117262028D01*
X156230972Y-117087012D01*
X156025176Y-116949504D01*
X155796508Y-116854786D01*
X155553754Y-116806500D01*
X155306246Y-116806500D01*
X155063492Y-116854786D01*
X154834824Y-116949504D01*
X154629028Y-117087012D01*
X154454012Y-117262028D01*
X154316504Y-117467824D01*
X154221786Y-117696492D01*
X154173500Y-117939246D01*
X154146500Y-117939246D01*
X154098214Y-117696492D01*
X154003496Y-117467824D01*
X153865988Y-117262028D01*
X153690972Y-117087012D01*
X153485176Y-116949504D01*
X153256508Y-116854786D01*
X153013754Y-116806500D01*
X152766246Y-116806500D01*
X152523492Y-116854786D01*
X152294824Y-116949504D01*
X152089028Y-117087012D01*
X151914012Y-117262028D01*
X151776504Y-117467824D01*
X151681786Y-117696492D01*
X151633500Y-117939246D01*
X151606500Y-117939246D01*
X151558214Y-117696492D01*
X151463496Y-117467824D01*
X151325988Y-117262028D01*
X151150972Y-117087012D01*
X150945176Y-116949504D01*
X150716508Y-116854786D01*
X150473754Y-116806500D01*
X150226246Y-116806500D01*
X149983492Y-116854786D01*
X149754824Y-116949504D01*
X149549028Y-117087012D01*
X149374012Y-117262028D01*
X149236504Y-117467824D01*
X149141786Y-117696492D01*
X149093500Y-117939246D01*
X149066500Y-117939246D01*
X149018214Y-117696492D01*
X148923496Y-117467824D01*
X148785988Y-117262028D01*
X148610972Y-117087012D01*
X148405176Y-116949504D01*
X148176508Y-116854786D01*
X147933754Y-116806500D01*
X147686246Y-116806500D01*
X147443492Y-116854786D01*
X147214824Y-116949504D01*
X147009028Y-117087012D01*
X146834012Y-117262028D01*
X146696504Y-117467824D01*
X146601786Y-117696492D01*
X146553500Y-117939246D01*
X146526500Y-117939246D01*
X146478214Y-117696492D01*
X146383496Y-117467824D01*
X146245988Y-117262028D01*
X146070972Y-117087012D01*
X145865176Y-116949504D01*
X145636508Y-116854786D01*
X145393754Y-116806500D01*
X145146246Y-116806500D01*
X144903492Y-116854786D01*
X144674824Y-116949504D01*
X144469028Y-117087012D01*
X144294012Y-117262028D01*
X144156504Y-117467824D01*
X144061786Y-117696492D01*
X144013500Y-117939246D01*
X141446500Y-117939246D01*
X141398214Y-117696492D01*
X141303496Y-117467824D01*
X141165988Y-117262028D01*
X140990972Y-117087012D01*
X140785176Y-116949504D01*
X140697297Y-116913103D01*
X140869727Y-116841680D01*
X141104759Y-116684637D01*
X141278500Y-116510896D01*
X141452241Y-116684637D01*
X141687273Y-116841680D01*
X141948426Y-116949853D01*
X142225665Y-117005000D01*
X142508335Y-117005000D01*
X142785574Y-116949853D01*
X143046727Y-116841680D01*
X143281759Y-116684637D01*
X143481637Y-116484759D01*
X143638680Y-116249727D01*
X143746853Y-115988574D01*
X143802000Y-115711335D01*
X143802000Y-115428665D01*
X143789369Y-115365165D01*
X159093000Y-115365165D01*
X159093000Y-115647835D01*
X159148147Y-115925074D01*
X159256320Y-116186227D01*
X159413363Y-116421259D01*
X159613241Y-116621137D01*
X159848273Y-116778180D01*
X160109426Y-116886353D01*
X160386665Y-116941500D01*
X160669335Y-116941500D01*
X160946574Y-116886353D01*
X161207727Y-116778180D01*
X161442759Y-116621137D01*
X161642637Y-116421259D01*
X161799680Y-116186227D01*
X161907853Y-115925074D01*
X161963000Y-115647835D01*
X161963000Y-115493840D01*
X162877008Y-115493840D01*
X162877008Y-117403840D01*
X162889268Y-117528322D01*
X162925578Y-117648020D01*
X162984543Y-117758334D01*
X163063895Y-117855025D01*
X163160586Y-117934377D01*
X163270900Y-117993342D01*
X163390598Y-118029652D01*
X163515080Y-118041912D01*
X165425080Y-118041912D01*
X165549562Y-118029652D01*
X165669260Y-117993342D01*
X165779574Y-117934377D01*
X165876265Y-117855025D01*
X165955617Y-117758334D01*
X166014582Y-117648020D01*
X166050892Y-117528322D01*
X166063152Y-117403840D01*
X166063152Y-116292239D01*
X167980080Y-116292239D01*
X167980080Y-116605441D01*
X168041183Y-116912626D01*
X168161041Y-117201987D01*
X168335047Y-117462406D01*
X168556514Y-117683873D01*
X168816933Y-117857879D01*
X169106294Y-117977737D01*
X169413479Y-118038840D01*
X169726681Y-118038840D01*
X170033866Y-117977737D01*
X170323227Y-117857879D01*
X170583646Y-117683873D01*
X170805113Y-117462406D01*
X170979119Y-117201987D01*
X171098977Y-116912626D01*
X171160080Y-116605441D01*
X171160080Y-116292239D01*
X171098977Y-115985054D01*
X170979119Y-115695693D01*
X170968250Y-115679425D01*
X172134200Y-115679425D01*
X172134200Y-115917775D01*
X172180699Y-116151544D01*
X172271912Y-116371750D01*
X172404331Y-116569930D01*
X172572870Y-116738469D01*
X172771050Y-116870888D01*
X172991256Y-116962101D01*
X173225025Y-117008600D01*
X173463375Y-117008600D01*
X173697144Y-116962101D01*
X173917350Y-116870888D01*
X174115530Y-116738469D01*
X174284069Y-116569930D01*
X174416488Y-116371750D01*
X174507701Y-116151544D01*
X174554200Y-115917775D01*
X174554200Y-115679425D01*
X174507701Y-115445656D01*
X174416488Y-115225450D01*
X174284069Y-115027270D01*
X174115530Y-114858731D01*
X173917350Y-114726312D01*
X173697144Y-114635099D01*
X173463375Y-114588600D01*
X173225025Y-114588600D01*
X172991256Y-114635099D01*
X172771050Y-114726312D01*
X172572870Y-114858731D01*
X172404331Y-115027270D01*
X172271912Y-115225450D01*
X172180699Y-115445656D01*
X172134200Y-115679425D01*
X170968250Y-115679425D01*
X170805113Y-115435274D01*
X170583646Y-115213807D01*
X170323227Y-115039801D01*
X170033866Y-114919943D01*
X169726681Y-114858840D01*
X169413479Y-114858840D01*
X169106294Y-114919943D01*
X168816933Y-115039801D01*
X168556514Y-115213807D01*
X168335047Y-115435274D01*
X168161041Y-115695693D01*
X168041183Y-115985054D01*
X167980080Y-116292239D01*
X166063152Y-116292239D01*
X166063152Y-115493840D01*
X166050892Y-115369358D01*
X166014582Y-115249660D01*
X165955617Y-115139346D01*
X165876265Y-115042655D01*
X165779574Y-114963303D01*
X165669260Y-114904338D01*
X165549562Y-114868028D01*
X165425080Y-114855768D01*
X163515080Y-114855768D01*
X163390598Y-114868028D01*
X163270900Y-114904338D01*
X163160586Y-114963303D01*
X163063895Y-115042655D01*
X162984543Y-115139346D01*
X162925578Y-115249660D01*
X162889268Y-115369358D01*
X162877008Y-115493840D01*
X161963000Y-115493840D01*
X161963000Y-115365165D01*
X161907853Y-115087926D01*
X161799680Y-114826773D01*
X161642637Y-114591741D01*
X161442759Y-114391863D01*
X161207727Y-114234820D01*
X160946574Y-114126647D01*
X160669335Y-114071500D01*
X160386665Y-114071500D01*
X160109426Y-114126647D01*
X159848273Y-114234820D01*
X159613241Y-114391863D01*
X159413363Y-114591741D01*
X159256320Y-114826773D01*
X159148147Y-115087926D01*
X159093000Y-115365165D01*
X143789369Y-115365165D01*
X143746853Y-115151426D01*
X143638680Y-114890273D01*
X143481637Y-114655241D01*
X143281759Y-114455363D01*
X143046727Y-114298320D01*
X142785574Y-114190147D01*
X142508335Y-114135000D01*
X142225665Y-114135000D01*
X141948426Y-114190147D01*
X141687273Y-114298320D01*
X141452241Y-114455363D01*
X141278500Y-114629104D01*
X141104759Y-114455363D01*
X140869727Y-114298320D01*
X140608574Y-114190147D01*
X140331335Y-114135000D01*
X140048665Y-114135000D01*
X139771426Y-114190147D01*
X139510273Y-114298320D01*
X139275241Y-114455363D01*
X139075363Y-114655241D01*
X138918320Y-114890273D01*
X138810147Y-115151426D01*
X138755000Y-115428665D01*
X134023000Y-115428665D01*
X133967853Y-115151426D01*
X133859680Y-114890273D01*
X133702637Y-114655241D01*
X133502759Y-114455363D01*
X133267727Y-114298320D01*
X133006574Y-114190147D01*
X132729335Y-114135000D01*
X132446665Y-114135000D01*
X132169426Y-114190147D01*
X131908273Y-114298320D01*
X131673241Y-114455363D01*
X131473363Y-114655241D01*
X131316320Y-114890273D01*
X131208147Y-115151426D01*
X131153000Y-115428665D01*
X122605800Y-115428665D01*
X122605800Y-115367896D01*
X122545282Y-115063648D01*
X122426570Y-114777052D01*
X122254227Y-114519123D01*
X122034877Y-114299773D01*
X121776948Y-114127430D01*
X121490352Y-114008718D01*
X121186104Y-113948200D01*
X120875896Y-113948200D01*
X120571648Y-114008718D01*
X120285052Y-114127430D01*
X120027123Y-114299773D01*
X119807773Y-114519123D01*
X119635430Y-114777052D01*
X119516718Y-115063648D01*
X119456200Y-115367896D01*
X119253635Y-115367896D01*
X119253635Y-114585084D01*
X119268706Y-114431377D01*
X119304318Y-114313426D01*
X119362163Y-114204634D01*
X119440037Y-114109152D01*
X119534973Y-114030614D01*
X119643354Y-113972013D01*
X119761057Y-113935577D01*
X119912740Y-113919635D01*
X178276916Y-113919635D01*
X178430623Y-113934706D01*
G37*
%TD.AperFunction*%
%TD*%
M02*
