M48
; DRILL file {KiCad (5.1.12)-1} date 01/21/23 14:51:59
; FORMAT={-:-/ absolute / metric / decimal}
; #@! TF.CreationDate,2023-01-21T14:51:59-05:00
; #@! TF.GenerationSoftware,Kicad,Pcbnew,(5.1.12)-1
; #@! TF.FileFunction,Plated,1,4,PTH
FMAT,2
METRIC
T1C0.750
T2C0.800
T3C0.830
T4C1.000
T5C1.016
T6C1.070
T7C1.100
T8C1.220
T9C1.270
%
G90
G05
T1
X121.016Y-128.015
X121.016Y-133.015
X173.344Y-115.799
X178.344Y-115.799
T2
X132.588Y-115.57
X140.19Y-115.57
X142.367Y-115.57
X144.867Y-115.57
X158.028Y-115.506
X160.528Y-115.506
X170.746Y-119.372
X170.746Y-126.992
T3
X127.49Y-118.063
X127.49Y-125.937
X130.03Y-118.063
X130.03Y-125.937
X132.57Y-118.063
X132.57Y-125.937
X135.11Y-118.063
X135.11Y-125.937
X137.65Y-118.063
X137.65Y-125.937
X140.19Y-118.063
X140.19Y-125.937
X142.73Y-118.063
X142.73Y-125.937
X145.27Y-118.063
X145.27Y-125.937
X147.81Y-118.063
X147.81Y-125.937
X150.35Y-118.063
X150.35Y-125.937
X152.89Y-118.063
X152.89Y-125.937
X155.43Y-118.063
X155.43Y-125.937
X157.97Y-118.063
X157.97Y-125.937
X160.51Y-118.063
X160.51Y-125.937
T4
X172.839Y-130.581
X175.379Y-130.581
X177.919Y-130.581
T5
X121.031Y-115.523
X121.031Y-118.063
X121.031Y-120.603
X121.031Y-123.143
X123.571Y-115.523
X123.571Y-118.063
X123.571Y-120.603
X123.571Y-123.143
T6
X140.19Y-128.524
X140.19Y-131.064
X142.73Y-128.524
X142.73Y-131.064
X145.27Y-128.524
X145.27Y-131.064
X147.81Y-128.524
X147.81Y-131.064
X150.35Y-128.524
X150.35Y-131.064
X152.89Y-128.524
X152.89Y-131.064
X155.43Y-128.524
X155.43Y-131.064
X157.97Y-128.524
X157.97Y-131.064
X160.51Y-128.524
X160.51Y-131.064
X163.05Y-128.524
X163.05Y-131.064
T7
X176.103Y-119.847
X176.103Y-122.387
X176.103Y-124.927
X176.103Y-127.467
T8
X168.116Y-121.013
X168.116Y-124.823
X168.116Y-128.633
X168.116Y-132.443
T9
X130.495Y-128.884
X133.045Y-128.884
X135.595Y-128.884
X164.47Y-116.449
X167.02Y-116.449
X169.57Y-116.449
T0
M30
