%TF.GenerationSoftware,KiCad,Pcbnew,(5.1.12)-1*%
%TF.CreationDate,2023-01-21T14:52:04-05:00*%
%TF.ProjectId,Irrigation,49727269-6761-4746-996f-6e2e6b696361,rev?*%
%TF.SameCoordinates,Original*%
%TF.FileFunction,Copper,L2,Inr*%
%TF.FilePolarity,Positive*%
%FSLAX46Y46*%
G04 Gerber Fmt 4.6, Leading zero omitted, Abs format (unit mm)*
G04 Created by KiCad (PCBNEW (5.1.12)-1) date 2023-01-21 14:52:04*
%MOMM*%
%LPD*%
G01*
G04 APERTURE LIST*
%TA.AperFunction,ComponentPad*%
%ADD10C,1.150000*%
%TD*%
%TA.AperFunction,ComponentPad*%
%ADD11C,1.605000*%
%TD*%
%TA.AperFunction,ComponentPad*%
%ADD12R,1.605000X1.605000*%
%TD*%
%TA.AperFunction,ComponentPad*%
%ADD13R,1.910000X1.910000*%
%TD*%
%TA.AperFunction,ComponentPad*%
%ADD14C,1.910000*%
%TD*%
%TA.AperFunction,ComponentPad*%
%ADD15C,1.243000*%
%TD*%
%TA.AperFunction,ComponentPad*%
%ADD16R,1.243000X1.243000*%
%TD*%
%TA.AperFunction,ComponentPad*%
%ADD17C,2.200000*%
%TD*%
%TA.AperFunction,ComponentPad*%
%ADD18R,2.200000X2.200000*%
%TD*%
%TA.AperFunction,ComponentPad*%
%ADD19C,1.600000*%
%TD*%
%TA.AperFunction,ComponentPad*%
%ADD20C,1.879600*%
%TD*%
%TA.AperFunction,ComponentPad*%
%ADD21O,1.600000X1.600000*%
%TD*%
%TA.AperFunction,ComponentPad*%
%ADD22O,1.700000X1.700000*%
%TD*%
%TA.AperFunction,ComponentPad*%
%ADD23R,1.700000X1.700000*%
%TD*%
%TA.AperFunction,ComponentPad*%
%ADD24C,1.830000*%
%TD*%
%TA.AperFunction,Conductor*%
%ADD25C,1.600000*%
%TD*%
%TA.AperFunction,Conductor*%
%ADD26C,1.150000*%
%TD*%
%TA.AperFunction,Conductor*%
%ADD27C,1.243000*%
%TD*%
%TA.AperFunction,Conductor*%
%ADD28C,0.254000*%
%TD*%
%TA.AperFunction,Conductor*%
%ADD29C,0.100000*%
%TD*%
G04 APERTURE END LIST*
D10*
%TO.N,+3V3*%
%TO.C,C3*%
X121015760Y-128015360D03*
%TO.N,GND*%
X121015760Y-133015360D03*
%TD*%
%TO.N,GND*%
%TO.C,C2*%
X178344200Y-115798600D03*
%TO.N,Net-(C2-Pad1)*%
X173344200Y-115798600D03*
%TD*%
D11*
%TO.N,GND*%
%TO.C,J3*%
X163050000Y-128524000D03*
X163050000Y-131064000D03*
%TO.N,D16*%
X160510000Y-128524000D03*
%TO.N,D8*%
X160510000Y-131064000D03*
%TO.N,D15*%
X157970000Y-128524000D03*
%TO.N,D7*%
X157970000Y-131064000D03*
%TO.N,D14*%
X155430000Y-128524000D03*
%TO.N,D6*%
X155430000Y-131064000D03*
%TO.N,D13*%
X152890000Y-128524000D03*
%TO.N,D5*%
X152890000Y-131064000D03*
%TO.N,D12*%
X150350000Y-128524000D03*
%TO.N,D4*%
X150350000Y-131064000D03*
%TO.N,D11*%
X147810000Y-128524000D03*
%TO.N,D3*%
X147810000Y-131064000D03*
%TO.N,D10*%
X145270000Y-128524000D03*
%TO.N,D2*%
X145270000Y-131064000D03*
%TO.N,D9*%
X142730000Y-128524000D03*
%TO.N,D1*%
X142730000Y-131064000D03*
%TO.N,+5V*%
X140190000Y-128524000D03*
D12*
X140190000Y-131064000D03*
%TD*%
D13*
%TO.N,GND*%
%TO.C,U4*%
X135595200Y-128884200D03*
D14*
%TO.N,+3V3*%
X133045200Y-128884200D03*
%TO.N,+5V*%
X130495200Y-128884200D03*
%TD*%
D15*
%TO.N,D16*%
%TO.C,U5*%
X160510000Y-125937000D03*
%TO.N,D15*%
X157970000Y-125937000D03*
%TO.N,D14*%
X155430000Y-125937000D03*
%TO.N,D13*%
X152890000Y-125937000D03*
%TO.N,D12*%
X150350000Y-125937000D03*
%TO.N,D11*%
X147810000Y-125937000D03*
%TO.N,D10*%
X145270000Y-125937000D03*
%TO.N,D9*%
X142730000Y-125937000D03*
%TO.N,N/C*%
X140190000Y-125937000D03*
%TO.N,GND*%
X137650000Y-125937000D03*
X135110000Y-125937000D03*
X132570000Y-125937000D03*
X130030000Y-125937000D03*
%TO.N,GPIO0*%
X127490000Y-125937000D03*
%TO.N,GPIO2*%
X127490000Y-118063000D03*
%TO.N,D4*%
X130030000Y-118063000D03*
%TO.N,D3*%
X132570000Y-118063000D03*
%TO.N,D2*%
X135110000Y-118063000D03*
%TO.N,N/C*%
X137650000Y-118063000D03*
%TO.N,Net-(C4-Pad1)*%
X140190000Y-118063000D03*
%TO.N,GND*%
X142730000Y-118063000D03*
%TO.N,D1*%
X145270000Y-118063000D03*
%TO.N,N/C*%
X147810000Y-118063000D03*
%TO.N,D8*%
X150350000Y-118063000D03*
%TO.N,D7*%
X152890000Y-118063000D03*
%TO.N,D6*%
X155430000Y-118063000D03*
%TO.N,D5*%
X157970000Y-118063000D03*
D16*
%TO.N,GND*%
X160510000Y-118063000D03*
%TD*%
D14*
%TO.N,Net-(C2-Pad1)*%
%TO.C,U1*%
X169570080Y-116448840D03*
%TO.N,GND*%
X167020080Y-116448840D03*
D13*
%TO.N,+24V*%
X164470080Y-116448840D03*
%TD*%
D17*
%TO.N,Net-(BR1-Pad2)*%
%TO.C,J1*%
X176103280Y-119847360D03*
%TO.N,Net-(BR1-Pad3)*%
X176103280Y-122387360D03*
%TO.N,Net-(BR1-Pad2)*%
X176103280Y-124927360D03*
D18*
%TO.N,Net-(BR1-Pad3)*%
X176103280Y-127467360D03*
%TD*%
D19*
%TO.N,GND*%
%TO.C,C1*%
X158028000Y-115506500D03*
%TO.N,+24V*%
X160528000Y-115506500D03*
%TD*%
D20*
%TO.N,N/C*%
%TO.C,U3*%
X123571000Y-123143000D03*
%TO.N,+3V3*%
X121031000Y-123143000D03*
%TO.N,GPIO0*%
X123571000Y-120603000D03*
%TO.N,N/C*%
X121031000Y-120603000D03*
%TO.N,GPIO2*%
X123571000Y-118063000D03*
%TO.N,+3V3*%
X121031000Y-118063000D03*
%TO.N,GND*%
X123571000Y-115523000D03*
%TO.N,N/C*%
X121031000Y-115523000D03*
%TD*%
D21*
%TO.N,Net-(C4-Pad1)*%
%TO.C,R2*%
X140190000Y-115570000D03*
D19*
%TO.N,+5V*%
X132588000Y-115570000D03*
%TD*%
%TO.N,+24V*%
%TO.C,R1*%
X170746420Y-119372380D03*
D21*
%TO.N,GND*%
X170746420Y-126992380D03*
%TD*%
D22*
%TO.N,Net-(C2-Pad1)*%
%TO.C,J2*%
X177919380Y-130581400D03*
%TO.N,N/C*%
X175379380Y-130581400D03*
D23*
%TO.N,GND*%
X172839380Y-130581400D03*
%TD*%
D19*
%TO.N,GND*%
%TO.C,C4*%
X144867000Y-115570000D03*
%TO.N,Net-(C4-Pad1)*%
X142367000Y-115570000D03*
%TD*%
D24*
%TO.N,GND*%
%TO.C,BR1*%
X168116340Y-132443220D03*
%TO.N,Net-(BR1-Pad3)*%
X168116340Y-128633220D03*
%TO.N,Net-(BR1-Pad2)*%
X168116340Y-124823220D03*
%TO.N,+24V*%
X168116340Y-121013220D03*
%TD*%
D25*
%TO.N,Net-(BR1-Pad2)*%
X175999140Y-124823220D02*
X176103280Y-124927360D01*
X168116340Y-124823220D02*
X175999140Y-124823220D01*
X174547646Y-119847360D02*
X176103280Y-119847360D01*
X174003279Y-120391727D02*
X174547646Y-119847360D01*
X174003279Y-124382993D02*
X174003279Y-120391727D01*
X174547646Y-124927360D02*
X174003279Y-124382993D01*
X176103280Y-124927360D02*
X174547646Y-124927360D01*
%TO.N,+24V*%
X164470080Y-117366960D02*
X164470080Y-116448840D01*
X168116340Y-121013220D02*
X164470080Y-117366960D01*
X169105580Y-121013220D02*
X170746420Y-119372380D01*
X168116340Y-121013220D02*
X169105580Y-121013220D01*
X163527740Y-115506500D02*
X164470080Y-116448840D01*
X160528000Y-115506500D02*
X163527740Y-115506500D01*
D26*
%TO.N,Net-(C2-Pad1)*%
X172693960Y-116448840D02*
X173344200Y-115798600D01*
X169570080Y-116448840D02*
X172693960Y-116448840D01*
X178130200Y-130370580D02*
X177919380Y-130581400D01*
X178130200Y-118694200D02*
X178130200Y-130370580D01*
X175234600Y-115798600D02*
X178130200Y-118694200D01*
X173344200Y-115798600D02*
X175234600Y-115798600D01*
D27*
%TO.N,Net-(C4-Pad1)*%
X140190000Y-118063000D02*
X140190000Y-115570000D01*
%TO.N,D15*%
X157970000Y-125937000D02*
X157970000Y-128524000D01*
%TO.N,D13*%
X152890000Y-125937000D02*
X152890000Y-128524000D01*
%TO.N,D11*%
X147810000Y-125937000D02*
X147810000Y-128524000D01*
%TO.N,D9*%
X142730000Y-125937000D02*
X142730000Y-128524000D01*
%TO.N,D7*%
X163829521Y-132688001D02*
X159594001Y-132688001D01*
X164674001Y-131843521D02*
X163829521Y-132688001D01*
X159594001Y-132688001D02*
X157970000Y-131064000D01*
X164674001Y-126807725D02*
X164674001Y-131843521D01*
X157372277Y-119506001D02*
X164674001Y-126807725D01*
X154333001Y-119506001D02*
X157372277Y-119506001D01*
X152890000Y-118063000D02*
X154333001Y-119506001D01*
%TO.N,D5*%
X166117011Y-126210011D02*
X157970000Y-118063000D01*
X166117011Y-132441235D02*
X166117011Y-126210011D01*
X164427236Y-134131010D02*
X166117011Y-132441235D01*
X155957011Y-134131011D02*
X164427236Y-134131010D01*
X152890000Y-131064000D02*
X155957011Y-134131011D01*
%TO.N,D4*%
X130030000Y-118063000D02*
X130030000Y-119220634D01*
X147282989Y-134131011D02*
X150350000Y-131064000D01*
X130310065Y-134131011D02*
X147282989Y-134131011D01*
X124603990Y-128424936D02*
X130310065Y-134131011D01*
X124603989Y-124646645D02*
X124603990Y-128424936D01*
X130030000Y-119220634D02*
X124603989Y-124646645D01*
%TO.N,D2*%
X126046999Y-125244359D02*
X126797359Y-124493999D01*
X126046999Y-127827221D02*
X126046999Y-125244359D01*
X130907779Y-132688001D02*
X126046999Y-127827221D01*
X143645999Y-132688001D02*
X130907779Y-132688001D01*
X145270000Y-131064000D02*
X143645999Y-132688001D01*
X128679001Y-124493999D02*
X126797359Y-124493999D01*
X135110000Y-118063000D02*
X128679001Y-124493999D01*
%TD*%
D28*
%TO.N,GND*%
X178430623Y-113934706D02*
X178548574Y-113970318D01*
X178657366Y-114028163D01*
X178752848Y-114106037D01*
X178831386Y-114200973D01*
X178889987Y-114309354D01*
X178926423Y-114427057D01*
X178942365Y-114578740D01*
X178942365Y-117795167D01*
X176132237Y-114985040D01*
X176094339Y-114938861D01*
X175910092Y-114787654D01*
X175699887Y-114675297D01*
X175471801Y-114606108D01*
X175294037Y-114588600D01*
X175294035Y-114588600D01*
X175234600Y-114582746D01*
X175175165Y-114588600D01*
X173403634Y-114588600D01*
X173344199Y-114582746D01*
X173284764Y-114588600D01*
X173225025Y-114588600D01*
X173166435Y-114600254D01*
X173106999Y-114606108D01*
X173049849Y-114623444D01*
X172991256Y-114635099D01*
X172936064Y-114657961D01*
X172878913Y-114675297D01*
X172826240Y-114703452D01*
X172771050Y-114726312D01*
X172721380Y-114759500D01*
X172668708Y-114787654D01*
X172622541Y-114825542D01*
X172572870Y-114858731D01*
X172530629Y-114900972D01*
X172484461Y-114938861D01*
X172446572Y-114985029D01*
X172404331Y-115027270D01*
X172404329Y-115027274D01*
X172192762Y-115238840D01*
X170608679Y-115238840D01*
X170583646Y-115213807D01*
X170323227Y-115039801D01*
X170033866Y-114919943D01*
X169726681Y-114858840D01*
X169413479Y-114858840D01*
X169106294Y-114919943D01*
X168816933Y-115039801D01*
X168556514Y-115213807D01*
X168335047Y-115435274D01*
X168161041Y-115695693D01*
X168041183Y-115985054D01*
X167980080Y-116292239D01*
X167980080Y-116605441D01*
X168041183Y-116912626D01*
X168161041Y-117201987D01*
X168335047Y-117462406D01*
X168556514Y-117683873D01*
X168816933Y-117857879D01*
X169106294Y-117977737D01*
X169413479Y-118038840D01*
X169726681Y-118038840D01*
X170033866Y-117977737D01*
X170323227Y-117857879D01*
X170583646Y-117683873D01*
X170608679Y-117658840D01*
X172634525Y-117658840D01*
X172693960Y-117664694D01*
X172753395Y-117658840D01*
X172753397Y-117658840D01*
X172931161Y-117641332D01*
X173159247Y-117572143D01*
X173369452Y-117459786D01*
X173553699Y-117308579D01*
X173591596Y-117262401D01*
X173845397Y-117008600D01*
X174733403Y-117008600D01*
X175852963Y-118128160D01*
X175597199Y-118179035D01*
X175281449Y-118309823D01*
X175127991Y-118412360D01*
X174618137Y-118412360D01*
X174547645Y-118405417D01*
X174266336Y-118433124D01*
X174215266Y-118448616D01*
X173995838Y-118515178D01*
X173746545Y-118648428D01*
X173528038Y-118827752D01*
X173483091Y-118882520D01*
X173038434Y-119327177D01*
X172983672Y-119372119D01*
X172804348Y-119590626D01*
X172779133Y-119637800D01*
X172671097Y-119839920D01*
X172589043Y-120110419D01*
X172561336Y-120391727D01*
X172568280Y-120462229D01*
X172568279Y-123388220D01*
X168702289Y-123388220D01*
X168568458Y-123332785D01*
X168269002Y-123273220D01*
X167963678Y-123273220D01*
X167664222Y-123332785D01*
X167382140Y-123449628D01*
X167128272Y-123619256D01*
X166912376Y-123835152D01*
X166742748Y-124089020D01*
X166625905Y-124371102D01*
X166566340Y-124670558D01*
X166566340Y-124882381D01*
X158945990Y-117262031D01*
X158945988Y-117262028D01*
X158770972Y-117087012D01*
X158719388Y-117052544D01*
X158671451Y-117013204D01*
X158616760Y-116983971D01*
X158565176Y-116949504D01*
X158507856Y-116925761D01*
X158453168Y-116896530D01*
X158393833Y-116878531D01*
X158336508Y-116854786D01*
X158275653Y-116842681D01*
X158216317Y-116824682D01*
X158154606Y-116818604D01*
X158093754Y-116806500D01*
X158031711Y-116806500D01*
X157970000Y-116800422D01*
X157908289Y-116806500D01*
X157846246Y-116806500D01*
X157785394Y-116818604D01*
X157723683Y-116824682D01*
X157664347Y-116842681D01*
X157603492Y-116854786D01*
X157546167Y-116878531D01*
X157486832Y-116896530D01*
X157432144Y-116925761D01*
X157374824Y-116949504D01*
X157323240Y-116983971D01*
X157268549Y-117013204D01*
X157220613Y-117052544D01*
X157169028Y-117087012D01*
X157125158Y-117130882D01*
X157077222Y-117170222D01*
X157037882Y-117218158D01*
X156994012Y-117262028D01*
X156959544Y-117313613D01*
X156920204Y-117361549D01*
X156890971Y-117416240D01*
X156856504Y-117467824D01*
X156832761Y-117525144D01*
X156803530Y-117579832D01*
X156785531Y-117639167D01*
X156761786Y-117696492D01*
X156749681Y-117757347D01*
X156731682Y-117816683D01*
X156725604Y-117878394D01*
X156713500Y-117939246D01*
X156713500Y-118001289D01*
X156707422Y-118063000D01*
X156713500Y-118124711D01*
X156713500Y-118186754D01*
X156725604Y-118247606D01*
X156725791Y-118249501D01*
X156674019Y-118249501D01*
X156686500Y-118186754D01*
X156686500Y-117939246D01*
X156638214Y-117696492D01*
X156543496Y-117467824D01*
X156405988Y-117262028D01*
X156230972Y-117087012D01*
X156025176Y-116949504D01*
X155796508Y-116854786D01*
X155553754Y-116806500D01*
X155306246Y-116806500D01*
X155063492Y-116854786D01*
X154834824Y-116949504D01*
X154629028Y-117087012D01*
X154454012Y-117262028D01*
X154316504Y-117467824D01*
X154244827Y-117640867D01*
X153865990Y-117262031D01*
X153865988Y-117262028D01*
X153690972Y-117087012D01*
X153639388Y-117052544D01*
X153591451Y-117013204D01*
X153536760Y-116983971D01*
X153485176Y-116949504D01*
X153427856Y-116925761D01*
X153373168Y-116896530D01*
X153313833Y-116878531D01*
X153256508Y-116854786D01*
X153195653Y-116842681D01*
X153136317Y-116824682D01*
X153074606Y-116818604D01*
X153013754Y-116806500D01*
X152951711Y-116806500D01*
X152890000Y-116800422D01*
X152828289Y-116806500D01*
X152766246Y-116806500D01*
X152705394Y-116818604D01*
X152643683Y-116824682D01*
X152584347Y-116842681D01*
X152523492Y-116854786D01*
X152466167Y-116878531D01*
X152406832Y-116896530D01*
X152352144Y-116925761D01*
X152294824Y-116949504D01*
X152243240Y-116983971D01*
X152188549Y-117013204D01*
X152140613Y-117052544D01*
X152089028Y-117087012D01*
X152045158Y-117130882D01*
X151997222Y-117170222D01*
X151957882Y-117218158D01*
X151914012Y-117262028D01*
X151879544Y-117313613D01*
X151840204Y-117361549D01*
X151810971Y-117416240D01*
X151776504Y-117467824D01*
X151752761Y-117525144D01*
X151723530Y-117579832D01*
X151705531Y-117639167D01*
X151681786Y-117696492D01*
X151669681Y-117757347D01*
X151651682Y-117816683D01*
X151645604Y-117878394D01*
X151633500Y-117939246D01*
X151633500Y-118001289D01*
X151627422Y-118063000D01*
X151633500Y-118124711D01*
X151633500Y-118186754D01*
X151645604Y-118247606D01*
X151651682Y-118309317D01*
X151669681Y-118368653D01*
X151681786Y-118429508D01*
X151705531Y-118486833D01*
X151723530Y-118546168D01*
X151752761Y-118600856D01*
X151776504Y-118658176D01*
X151810971Y-118709760D01*
X151840204Y-118764451D01*
X151879544Y-118812388D01*
X151914012Y-118863972D01*
X152089028Y-119038988D01*
X152089031Y-119038990D01*
X153400882Y-120350842D01*
X153440223Y-120398779D01*
X153488159Y-120438119D01*
X153488164Y-120438124D01*
X153631549Y-120555797D01*
X153812206Y-120652360D01*
X153849833Y-120672472D01*
X154086684Y-120744320D01*
X154271280Y-120762501D01*
X154271282Y-120762501D01*
X154333001Y-120768580D01*
X154394720Y-120762501D01*
X156851818Y-120762501D01*
X160803601Y-124714284D01*
X160633754Y-124680500D01*
X160386246Y-124680500D01*
X160143492Y-124728786D01*
X159914824Y-124823504D01*
X159709028Y-124961012D01*
X159534012Y-125136028D01*
X159396504Y-125341824D01*
X159301786Y-125570492D01*
X159253500Y-125813246D01*
X159253500Y-126060754D01*
X159301786Y-126303508D01*
X159396504Y-126532176D01*
X159534012Y-126737972D01*
X159709028Y-126912988D01*
X159914824Y-127050496D01*
X160120703Y-127135774D01*
X160090697Y-127141743D01*
X159829089Y-127250104D01*
X159593647Y-127407421D01*
X159393421Y-127607647D01*
X159240000Y-127837258D01*
X159226500Y-127817054D01*
X159226500Y-125813246D01*
X159214398Y-125752404D01*
X159208319Y-125690683D01*
X159190317Y-125631337D01*
X159178214Y-125570492D01*
X159154473Y-125513176D01*
X159136471Y-125453832D01*
X159107236Y-125399138D01*
X159083496Y-125341824D01*
X159049030Y-125290242D01*
X159019796Y-125235549D01*
X158980456Y-125187613D01*
X158945988Y-125136028D01*
X158902118Y-125092158D01*
X158862778Y-125044222D01*
X158814843Y-125004883D01*
X158770972Y-124961012D01*
X158719383Y-124926542D01*
X158671450Y-124887204D01*
X158616762Y-124857973D01*
X158565176Y-124823504D01*
X158507857Y-124799762D01*
X158453167Y-124770529D01*
X158393826Y-124752528D01*
X158336508Y-124728786D01*
X158275660Y-124716683D01*
X158216316Y-124698681D01*
X158154597Y-124692602D01*
X158093754Y-124680500D01*
X158031721Y-124680500D01*
X157970000Y-124674421D01*
X157908279Y-124680500D01*
X157846246Y-124680500D01*
X157785404Y-124692602D01*
X157723683Y-124698681D01*
X157664337Y-124716683D01*
X157603492Y-124728786D01*
X157546176Y-124752527D01*
X157486832Y-124770529D01*
X157432138Y-124799764D01*
X157374824Y-124823504D01*
X157323242Y-124857970D01*
X157268549Y-124887204D01*
X157220613Y-124926544D01*
X157169028Y-124961012D01*
X157125158Y-125004882D01*
X157077222Y-125044222D01*
X157037883Y-125092157D01*
X156994012Y-125136028D01*
X156959542Y-125187617D01*
X156920204Y-125235550D01*
X156890973Y-125290238D01*
X156856504Y-125341824D01*
X156832762Y-125399143D01*
X156803529Y-125453833D01*
X156785528Y-125513174D01*
X156761786Y-125570492D01*
X156749683Y-125631340D01*
X156731681Y-125690684D01*
X156725602Y-125752403D01*
X156713500Y-125813246D01*
X156713500Y-125875280D01*
X156713501Y-127817053D01*
X156700000Y-127837258D01*
X156546579Y-127607647D01*
X156346353Y-127407421D01*
X156110911Y-127250104D01*
X155849303Y-127141743D01*
X155819297Y-127135774D01*
X156025176Y-127050496D01*
X156230972Y-126912988D01*
X156405988Y-126737972D01*
X156543496Y-126532176D01*
X156638214Y-126303508D01*
X156686500Y-126060754D01*
X156686500Y-125813246D01*
X156638214Y-125570492D01*
X156543496Y-125341824D01*
X156405988Y-125136028D01*
X156230972Y-124961012D01*
X156025176Y-124823504D01*
X155796508Y-124728786D01*
X155553754Y-124680500D01*
X155306246Y-124680500D01*
X155063492Y-124728786D01*
X154834824Y-124823504D01*
X154629028Y-124961012D01*
X154454012Y-125136028D01*
X154316504Y-125341824D01*
X154221786Y-125570492D01*
X154173500Y-125813246D01*
X154173500Y-126060754D01*
X154221786Y-126303508D01*
X154316504Y-126532176D01*
X154454012Y-126737972D01*
X154629028Y-126912988D01*
X154834824Y-127050496D01*
X155040703Y-127135774D01*
X155010697Y-127141743D01*
X154749089Y-127250104D01*
X154513647Y-127407421D01*
X154313421Y-127607647D01*
X154160000Y-127837258D01*
X154146500Y-127817054D01*
X154146500Y-125813246D01*
X154134398Y-125752404D01*
X154128319Y-125690683D01*
X154110317Y-125631337D01*
X154098214Y-125570492D01*
X154074473Y-125513176D01*
X154056471Y-125453832D01*
X154027236Y-125399138D01*
X154003496Y-125341824D01*
X153969030Y-125290242D01*
X153939796Y-125235549D01*
X153900456Y-125187613D01*
X153865988Y-125136028D01*
X153822118Y-125092158D01*
X153782778Y-125044222D01*
X153734843Y-125004883D01*
X153690972Y-124961012D01*
X153639383Y-124926542D01*
X153591450Y-124887204D01*
X153536762Y-124857973D01*
X153485176Y-124823504D01*
X153427857Y-124799762D01*
X153373167Y-124770529D01*
X153313826Y-124752528D01*
X153256508Y-124728786D01*
X153195660Y-124716683D01*
X153136316Y-124698681D01*
X153074597Y-124692602D01*
X153013754Y-124680500D01*
X152951721Y-124680500D01*
X152890000Y-124674421D01*
X152828279Y-124680500D01*
X152766246Y-124680500D01*
X152705404Y-124692602D01*
X152643683Y-124698681D01*
X152584337Y-124716683D01*
X152523492Y-124728786D01*
X152466176Y-124752527D01*
X152406832Y-124770529D01*
X152352138Y-124799764D01*
X152294824Y-124823504D01*
X152243242Y-124857970D01*
X152188549Y-124887204D01*
X152140613Y-124926544D01*
X152089028Y-124961012D01*
X152045158Y-125004882D01*
X151997222Y-125044222D01*
X151957883Y-125092157D01*
X151914012Y-125136028D01*
X151879542Y-125187617D01*
X151840204Y-125235550D01*
X151810973Y-125290238D01*
X151776504Y-125341824D01*
X151752762Y-125399143D01*
X151723529Y-125453833D01*
X151705528Y-125513174D01*
X151681786Y-125570492D01*
X151669683Y-125631340D01*
X151651681Y-125690684D01*
X151645602Y-125752403D01*
X151633500Y-125813246D01*
X151633500Y-125875280D01*
X151633501Y-127817053D01*
X151620000Y-127837258D01*
X151466579Y-127607647D01*
X151266353Y-127407421D01*
X151030911Y-127250104D01*
X150769303Y-127141743D01*
X150739297Y-127135774D01*
X150945176Y-127050496D01*
X151150972Y-126912988D01*
X151325988Y-126737972D01*
X151463496Y-126532176D01*
X151558214Y-126303508D01*
X151606500Y-126060754D01*
X151606500Y-125813246D01*
X151558214Y-125570492D01*
X151463496Y-125341824D01*
X151325988Y-125136028D01*
X151150972Y-124961012D01*
X150945176Y-124823504D01*
X150716508Y-124728786D01*
X150473754Y-124680500D01*
X150226246Y-124680500D01*
X149983492Y-124728786D01*
X149754824Y-124823504D01*
X149549028Y-124961012D01*
X149374012Y-125136028D01*
X149236504Y-125341824D01*
X149141786Y-125570492D01*
X149093500Y-125813246D01*
X149093500Y-126060754D01*
X149141786Y-126303508D01*
X149236504Y-126532176D01*
X149374012Y-126737972D01*
X149549028Y-126912988D01*
X149754824Y-127050496D01*
X149960703Y-127135774D01*
X149930697Y-127141743D01*
X149669089Y-127250104D01*
X149433647Y-127407421D01*
X149233421Y-127607647D01*
X149080000Y-127837258D01*
X149066500Y-127817054D01*
X149066500Y-125813246D01*
X149054398Y-125752404D01*
X149048319Y-125690683D01*
X149030317Y-125631337D01*
X149018214Y-125570492D01*
X148994473Y-125513176D01*
X148976471Y-125453832D01*
X148947236Y-125399138D01*
X148923496Y-125341824D01*
X148889030Y-125290242D01*
X148859796Y-125235549D01*
X148820456Y-125187613D01*
X148785988Y-125136028D01*
X148742118Y-125092158D01*
X148702778Y-125044222D01*
X148654843Y-125004883D01*
X148610972Y-124961012D01*
X148559383Y-124926542D01*
X148511450Y-124887204D01*
X148456762Y-124857973D01*
X148405176Y-124823504D01*
X148347857Y-124799762D01*
X148293167Y-124770529D01*
X148233826Y-124752528D01*
X148176508Y-124728786D01*
X148115660Y-124716683D01*
X148056316Y-124698681D01*
X147994597Y-124692602D01*
X147933754Y-124680500D01*
X147871721Y-124680500D01*
X147810000Y-124674421D01*
X147748279Y-124680500D01*
X147686246Y-124680500D01*
X147625404Y-124692602D01*
X147563683Y-124698681D01*
X147504337Y-124716683D01*
X147443492Y-124728786D01*
X147386176Y-124752527D01*
X147326832Y-124770529D01*
X147272138Y-124799764D01*
X147214824Y-124823504D01*
X147163242Y-124857970D01*
X147108549Y-124887204D01*
X147060613Y-124926544D01*
X147009028Y-124961012D01*
X146965158Y-125004882D01*
X146917222Y-125044222D01*
X146877883Y-125092157D01*
X146834012Y-125136028D01*
X146799542Y-125187617D01*
X146760204Y-125235550D01*
X146730973Y-125290238D01*
X146696504Y-125341824D01*
X146672762Y-125399143D01*
X146643529Y-125453833D01*
X146625528Y-125513174D01*
X146601786Y-125570492D01*
X146589683Y-125631340D01*
X146571681Y-125690684D01*
X146565602Y-125752403D01*
X146553500Y-125813246D01*
X146553500Y-125875280D01*
X146553501Y-127817053D01*
X146540000Y-127837258D01*
X146386579Y-127607647D01*
X146186353Y-127407421D01*
X145950911Y-127250104D01*
X145689303Y-127141743D01*
X145659297Y-127135774D01*
X145865176Y-127050496D01*
X146070972Y-126912988D01*
X146245988Y-126737972D01*
X146383496Y-126532176D01*
X146478214Y-126303508D01*
X146526500Y-126060754D01*
X146526500Y-125813246D01*
X146478214Y-125570492D01*
X146383496Y-125341824D01*
X146245988Y-125136028D01*
X146070972Y-124961012D01*
X145865176Y-124823504D01*
X145636508Y-124728786D01*
X145393754Y-124680500D01*
X145146246Y-124680500D01*
X144903492Y-124728786D01*
X144674824Y-124823504D01*
X144469028Y-124961012D01*
X144294012Y-125136028D01*
X144156504Y-125341824D01*
X144061786Y-125570492D01*
X144013500Y-125813246D01*
X144013500Y-126060754D01*
X144061786Y-126303508D01*
X144156504Y-126532176D01*
X144294012Y-126737972D01*
X144469028Y-126912988D01*
X144674824Y-127050496D01*
X144880703Y-127135774D01*
X144850697Y-127141743D01*
X144589089Y-127250104D01*
X144353647Y-127407421D01*
X144153421Y-127607647D01*
X144000000Y-127837258D01*
X143986500Y-127817054D01*
X143986500Y-125813246D01*
X143974398Y-125752404D01*
X143968319Y-125690683D01*
X143950317Y-125631337D01*
X143938214Y-125570492D01*
X143914473Y-125513176D01*
X143896471Y-125453832D01*
X143867236Y-125399138D01*
X143843496Y-125341824D01*
X143809030Y-125290242D01*
X143779796Y-125235549D01*
X143740456Y-125187613D01*
X143705988Y-125136028D01*
X143662118Y-125092158D01*
X143622778Y-125044222D01*
X143574843Y-125004883D01*
X143530972Y-124961012D01*
X143479383Y-124926542D01*
X143431450Y-124887204D01*
X143376762Y-124857973D01*
X143325176Y-124823504D01*
X143267857Y-124799762D01*
X143213167Y-124770529D01*
X143153826Y-124752528D01*
X143096508Y-124728786D01*
X143035660Y-124716683D01*
X142976316Y-124698681D01*
X142914597Y-124692602D01*
X142853754Y-124680500D01*
X142791721Y-124680500D01*
X142730000Y-124674421D01*
X142668279Y-124680500D01*
X142606246Y-124680500D01*
X142545404Y-124692602D01*
X142483683Y-124698681D01*
X142424337Y-124716683D01*
X142363492Y-124728786D01*
X142306176Y-124752527D01*
X142246832Y-124770529D01*
X142192138Y-124799764D01*
X142134824Y-124823504D01*
X142083242Y-124857970D01*
X142028549Y-124887204D01*
X141980613Y-124926544D01*
X141929028Y-124961012D01*
X141885158Y-125004882D01*
X141837222Y-125044222D01*
X141797883Y-125092157D01*
X141754012Y-125136028D01*
X141719542Y-125187617D01*
X141680204Y-125235550D01*
X141650973Y-125290238D01*
X141616504Y-125341824D01*
X141592762Y-125399143D01*
X141563529Y-125453833D01*
X141545528Y-125513174D01*
X141521786Y-125570492D01*
X141509683Y-125631340D01*
X141491681Y-125690684D01*
X141485602Y-125752403D01*
X141473500Y-125813246D01*
X141473500Y-125875280D01*
X141473501Y-127817053D01*
X141460000Y-127837258D01*
X141306579Y-127607647D01*
X141106353Y-127407421D01*
X140870911Y-127250104D01*
X140609303Y-127141743D01*
X140579297Y-127135774D01*
X140785176Y-127050496D01*
X140990972Y-126912988D01*
X141165988Y-126737972D01*
X141303496Y-126532176D01*
X141398214Y-126303508D01*
X141446500Y-126060754D01*
X141446500Y-125813246D01*
X141398214Y-125570492D01*
X141303496Y-125341824D01*
X141165988Y-125136028D01*
X140990972Y-124961012D01*
X140785176Y-124823504D01*
X140556508Y-124728786D01*
X140313754Y-124680500D01*
X140066246Y-124680500D01*
X139823492Y-124728786D01*
X139594824Y-124823504D01*
X139389028Y-124961012D01*
X139214012Y-125136028D01*
X139076504Y-125341824D01*
X138981786Y-125570492D01*
X138933500Y-125813246D01*
X138933500Y-126060754D01*
X138981786Y-126303508D01*
X139076504Y-126532176D01*
X139214012Y-126737972D01*
X139389028Y-126912988D01*
X139594824Y-127050496D01*
X139800703Y-127135774D01*
X139770697Y-127141743D01*
X139509089Y-127250104D01*
X139273647Y-127407421D01*
X139073421Y-127607647D01*
X138916104Y-127843089D01*
X138807743Y-128104697D01*
X138752500Y-128382419D01*
X138752500Y-128665581D01*
X138807743Y-128943303D01*
X138916104Y-129204911D01*
X139073421Y-129440353D01*
X139268242Y-129635174D01*
X139263018Y-129635688D01*
X139143320Y-129671998D01*
X139033006Y-129730963D01*
X138936315Y-129810315D01*
X138856963Y-129907006D01*
X138797998Y-130017320D01*
X138761688Y-130137018D01*
X138749428Y-130261500D01*
X138749428Y-131431501D01*
X131428239Y-131431501D01*
X130470938Y-130474200D01*
X130651801Y-130474200D01*
X130958986Y-130413097D01*
X131248347Y-130293239D01*
X131508766Y-130119233D01*
X131730233Y-129897766D01*
X131770200Y-129837951D01*
X131810167Y-129897766D01*
X132031634Y-130119233D01*
X132292053Y-130293239D01*
X132581414Y-130413097D01*
X132888599Y-130474200D01*
X133201801Y-130474200D01*
X133508986Y-130413097D01*
X133798347Y-130293239D01*
X134058766Y-130119233D01*
X134280233Y-129897766D01*
X134454239Y-129637347D01*
X134574097Y-129347986D01*
X134635200Y-129040801D01*
X134635200Y-128727599D01*
X134574097Y-128420414D01*
X134454239Y-128131053D01*
X134280233Y-127870634D01*
X134058766Y-127649167D01*
X133798347Y-127475161D01*
X133508986Y-127355303D01*
X133201801Y-127294200D01*
X132888599Y-127294200D01*
X132581414Y-127355303D01*
X132292053Y-127475161D01*
X132031634Y-127649167D01*
X131810167Y-127870634D01*
X131770200Y-127930449D01*
X131730233Y-127870634D01*
X131508766Y-127649167D01*
X131248347Y-127475161D01*
X130958986Y-127355303D01*
X130651801Y-127294200D01*
X130338599Y-127294200D01*
X130031414Y-127355303D01*
X129742053Y-127475161D01*
X129481634Y-127649167D01*
X129260167Y-127870634D01*
X129086161Y-128131053D01*
X128966303Y-128420414D01*
X128905200Y-128727599D01*
X128905200Y-128908463D01*
X127303499Y-127306762D01*
X127303499Y-127181019D01*
X127366246Y-127193500D01*
X127613754Y-127193500D01*
X127856508Y-127145214D01*
X128085176Y-127050496D01*
X128290972Y-126912988D01*
X128465988Y-126737972D01*
X128603496Y-126532176D01*
X128698214Y-126303508D01*
X128746500Y-126060754D01*
X128746500Y-125813246D01*
X128734148Y-125751146D01*
X128740712Y-125750499D01*
X128740722Y-125750499D01*
X128925318Y-125732318D01*
X129162169Y-125660470D01*
X129380452Y-125543795D01*
X129571779Y-125386777D01*
X129611124Y-125338835D01*
X136042123Y-118907837D01*
X136085988Y-118863972D01*
X136120452Y-118812393D01*
X136159796Y-118764452D01*
X136189031Y-118709756D01*
X136223496Y-118658176D01*
X136247237Y-118600860D01*
X136276470Y-118546169D01*
X136294470Y-118486830D01*
X136318214Y-118429508D01*
X136330318Y-118368656D01*
X136348318Y-118309318D01*
X136354396Y-118247605D01*
X136366500Y-118186754D01*
X136366500Y-118124712D01*
X136372578Y-118063001D01*
X136366500Y-118001290D01*
X136366500Y-117939246D01*
X136393500Y-117939246D01*
X136393500Y-118186754D01*
X136441786Y-118429508D01*
X136536504Y-118658176D01*
X136674012Y-118863972D01*
X136849028Y-119038988D01*
X137054824Y-119176496D01*
X137283492Y-119271214D01*
X137526246Y-119319500D01*
X137773754Y-119319500D01*
X138016508Y-119271214D01*
X138245176Y-119176496D01*
X138450972Y-119038988D01*
X138625988Y-118863972D01*
X138763496Y-118658176D01*
X138858214Y-118429508D01*
X138906500Y-118186754D01*
X138906500Y-117939246D01*
X138858214Y-117696492D01*
X138763496Y-117467824D01*
X138625988Y-117262028D01*
X138450972Y-117087012D01*
X138245176Y-116949504D01*
X138016508Y-116854786D01*
X137773754Y-116806500D01*
X137526246Y-116806500D01*
X137283492Y-116854786D01*
X137054824Y-116949504D01*
X136849028Y-117087012D01*
X136674012Y-117262028D01*
X136536504Y-117467824D01*
X136441786Y-117696492D01*
X136393500Y-117939246D01*
X136366500Y-117939246D01*
X136354396Y-117878394D01*
X136348318Y-117816683D01*
X136330319Y-117757347D01*
X136318214Y-117696492D01*
X136294469Y-117639167D01*
X136276470Y-117579832D01*
X136247239Y-117525144D01*
X136223496Y-117467824D01*
X136189029Y-117416240D01*
X136159796Y-117361549D01*
X136120456Y-117313613D01*
X136085988Y-117262028D01*
X136042118Y-117218158D01*
X136002778Y-117170222D01*
X135954842Y-117130882D01*
X135910972Y-117087012D01*
X135859387Y-117052544D01*
X135811451Y-117013204D01*
X135756760Y-116983971D01*
X135705176Y-116949504D01*
X135647856Y-116925761D01*
X135593168Y-116896530D01*
X135533833Y-116878531D01*
X135476508Y-116854786D01*
X135415653Y-116842681D01*
X135356317Y-116824682D01*
X135294606Y-116818604D01*
X135233754Y-116806500D01*
X135171710Y-116806500D01*
X135109999Y-116800422D01*
X135048288Y-116806500D01*
X134986246Y-116806500D01*
X134925395Y-116818604D01*
X134863682Y-116824682D01*
X134804344Y-116842682D01*
X134743492Y-116854786D01*
X134686170Y-116878530D01*
X134626831Y-116896530D01*
X134572140Y-116925763D01*
X134514824Y-116949504D01*
X134463244Y-116983969D01*
X134408548Y-117013204D01*
X134360607Y-117052548D01*
X134309028Y-117087012D01*
X133755173Y-117640867D01*
X133683496Y-117467824D01*
X133545988Y-117262028D01*
X133370972Y-117087012D01*
X133165176Y-116949504D01*
X133086297Y-116916831D01*
X133267727Y-116841680D01*
X133502759Y-116684637D01*
X133702637Y-116484759D01*
X133859680Y-116249727D01*
X133967853Y-115988574D01*
X134023000Y-115711335D01*
X134023000Y-115428665D01*
X138755000Y-115428665D01*
X138755000Y-115711335D01*
X138810147Y-115988574D01*
X138918320Y-116249727D01*
X138933501Y-116272447D01*
X138933500Y-117939246D01*
X138933500Y-118186754D01*
X138945602Y-118247597D01*
X138951681Y-118309316D01*
X138969683Y-118368660D01*
X138981786Y-118429508D01*
X139005528Y-118486826D01*
X139023529Y-118546167D01*
X139052762Y-118600857D01*
X139076504Y-118658176D01*
X139110973Y-118709762D01*
X139140204Y-118764450D01*
X139179542Y-118812383D01*
X139214012Y-118863972D01*
X139257883Y-118907843D01*
X139297222Y-118955778D01*
X139345158Y-118995118D01*
X139389028Y-119038988D01*
X139440613Y-119073456D01*
X139488549Y-119112796D01*
X139543242Y-119142030D01*
X139594824Y-119176496D01*
X139652138Y-119200236D01*
X139706832Y-119229471D01*
X139766176Y-119247473D01*
X139823492Y-119271214D01*
X139884337Y-119283317D01*
X139943683Y-119301319D01*
X140005404Y-119307398D01*
X140066246Y-119319500D01*
X140128279Y-119319500D01*
X140190000Y-119325579D01*
X140251721Y-119319500D01*
X140313754Y-119319500D01*
X140374597Y-119307398D01*
X140436316Y-119301319D01*
X140495660Y-119283317D01*
X140556508Y-119271214D01*
X140613826Y-119247472D01*
X140673167Y-119229471D01*
X140727857Y-119200238D01*
X140785176Y-119176496D01*
X140836762Y-119142027D01*
X140891450Y-119112796D01*
X140939383Y-119073458D01*
X140990972Y-119038988D01*
X141034843Y-118995117D01*
X141082778Y-118955778D01*
X141122118Y-118907842D01*
X141165988Y-118863972D01*
X141200456Y-118812387D01*
X141239796Y-118764451D01*
X141269030Y-118709758D01*
X141303496Y-118658176D01*
X141327236Y-118600862D01*
X141356471Y-118546168D01*
X141374473Y-118486824D01*
X141398214Y-118429508D01*
X141410317Y-118368663D01*
X141428319Y-118309317D01*
X141434398Y-118247596D01*
X141446500Y-118186754D01*
X141446500Y-117939246D01*
X144013500Y-117939246D01*
X144013500Y-118186754D01*
X144061786Y-118429508D01*
X144156504Y-118658176D01*
X144294012Y-118863972D01*
X144469028Y-119038988D01*
X144674824Y-119176496D01*
X144903492Y-119271214D01*
X145146246Y-119319500D01*
X145393754Y-119319500D01*
X145636508Y-119271214D01*
X145865176Y-119176496D01*
X146070972Y-119038988D01*
X146245988Y-118863972D01*
X146383496Y-118658176D01*
X146478214Y-118429508D01*
X146526500Y-118186754D01*
X146526500Y-117939246D01*
X146553500Y-117939246D01*
X146553500Y-118186754D01*
X146601786Y-118429508D01*
X146696504Y-118658176D01*
X146834012Y-118863972D01*
X147009028Y-119038988D01*
X147214824Y-119176496D01*
X147443492Y-119271214D01*
X147686246Y-119319500D01*
X147933754Y-119319500D01*
X148176508Y-119271214D01*
X148405176Y-119176496D01*
X148610972Y-119038988D01*
X148785988Y-118863972D01*
X148923496Y-118658176D01*
X149018214Y-118429508D01*
X149066500Y-118186754D01*
X149066500Y-117939246D01*
X149093500Y-117939246D01*
X149093500Y-118186754D01*
X149141786Y-118429508D01*
X149236504Y-118658176D01*
X149374012Y-118863972D01*
X149549028Y-119038988D01*
X149754824Y-119176496D01*
X149983492Y-119271214D01*
X150226246Y-119319500D01*
X150473754Y-119319500D01*
X150716508Y-119271214D01*
X150945176Y-119176496D01*
X151150972Y-119038988D01*
X151325988Y-118863972D01*
X151463496Y-118658176D01*
X151558214Y-118429508D01*
X151606500Y-118186754D01*
X151606500Y-117939246D01*
X151558214Y-117696492D01*
X151463496Y-117467824D01*
X151325988Y-117262028D01*
X151150972Y-117087012D01*
X150945176Y-116949504D01*
X150716508Y-116854786D01*
X150473754Y-116806500D01*
X150226246Y-116806500D01*
X149983492Y-116854786D01*
X149754824Y-116949504D01*
X149549028Y-117087012D01*
X149374012Y-117262028D01*
X149236504Y-117467824D01*
X149141786Y-117696492D01*
X149093500Y-117939246D01*
X149066500Y-117939246D01*
X149018214Y-117696492D01*
X148923496Y-117467824D01*
X148785988Y-117262028D01*
X148610972Y-117087012D01*
X148405176Y-116949504D01*
X148176508Y-116854786D01*
X147933754Y-116806500D01*
X147686246Y-116806500D01*
X147443492Y-116854786D01*
X147214824Y-116949504D01*
X147009028Y-117087012D01*
X146834012Y-117262028D01*
X146696504Y-117467824D01*
X146601786Y-117696492D01*
X146553500Y-117939246D01*
X146526500Y-117939246D01*
X146478214Y-117696492D01*
X146383496Y-117467824D01*
X146245988Y-117262028D01*
X146070972Y-117087012D01*
X145865176Y-116949504D01*
X145636508Y-116854786D01*
X145393754Y-116806500D01*
X145146246Y-116806500D01*
X144903492Y-116854786D01*
X144674824Y-116949504D01*
X144469028Y-117087012D01*
X144294012Y-117262028D01*
X144156504Y-117467824D01*
X144061786Y-117696492D01*
X144013500Y-117939246D01*
X141446500Y-117939246D01*
X141446500Y-116678896D01*
X141452241Y-116684637D01*
X141687273Y-116841680D01*
X141948426Y-116949853D01*
X142225665Y-117005000D01*
X142508335Y-117005000D01*
X142785574Y-116949853D01*
X143046727Y-116841680D01*
X143281759Y-116684637D01*
X143481637Y-116484759D01*
X143638680Y-116249727D01*
X143746853Y-115988574D01*
X143802000Y-115711335D01*
X143802000Y-115506500D01*
X159086057Y-115506500D01*
X159093000Y-115576992D01*
X159093000Y-115647835D01*
X159106821Y-115717317D01*
X159113764Y-115787809D01*
X159134327Y-115855597D01*
X159148147Y-115925074D01*
X159175253Y-115990514D01*
X159195818Y-116058308D01*
X159229214Y-116120788D01*
X159256320Y-116186227D01*
X159295672Y-116245122D01*
X159329068Y-116307601D01*
X159374010Y-116362363D01*
X159413363Y-116421259D01*
X159463450Y-116471346D01*
X159508392Y-116526108D01*
X159563154Y-116571050D01*
X159613241Y-116621137D01*
X159672137Y-116660490D01*
X159726899Y-116705432D01*
X159789378Y-116738828D01*
X159848273Y-116778180D01*
X159913712Y-116805286D01*
X159976192Y-116838682D01*
X160043986Y-116859247D01*
X160109426Y-116886353D01*
X160178903Y-116900173D01*
X160246691Y-116920736D01*
X160317183Y-116927679D01*
X160386665Y-116941500D01*
X162877008Y-116941500D01*
X162877008Y-117403840D01*
X162889268Y-117528322D01*
X162925578Y-117648020D01*
X162984543Y-117758334D01*
X163063895Y-117855025D01*
X163136682Y-117914760D01*
X163137898Y-117918767D01*
X163271148Y-118168060D01*
X163450472Y-118386567D01*
X163505235Y-118431510D01*
X166687314Y-121613590D01*
X166742748Y-121747420D01*
X166912376Y-122001288D01*
X167128272Y-122217184D01*
X167382140Y-122386812D01*
X167664222Y-122503655D01*
X167963678Y-122563220D01*
X168269002Y-122563220D01*
X168568458Y-122503655D01*
X168702289Y-122448220D01*
X169035088Y-122448220D01*
X169105580Y-122455163D01*
X169176072Y-122448220D01*
X169386889Y-122427456D01*
X169657388Y-122345402D01*
X169906681Y-122212152D01*
X170125188Y-122032828D01*
X170170134Y-121978061D01*
X171810963Y-120337233D01*
X171861057Y-120287139D01*
X171900415Y-120228236D01*
X171945351Y-120173481D01*
X171978743Y-120111009D01*
X172018100Y-120052107D01*
X172045209Y-119986660D01*
X172078601Y-119924188D01*
X172099164Y-119856401D01*
X172126273Y-119790954D01*
X172140093Y-119721476D01*
X172160656Y-119653690D01*
X172167599Y-119583196D01*
X172181420Y-119513715D01*
X172181420Y-119442873D01*
X172188363Y-119372381D01*
X172181420Y-119301889D01*
X172181420Y-119231045D01*
X172167599Y-119161562D01*
X172160656Y-119091072D01*
X172140094Y-119023289D01*
X172126273Y-118953806D01*
X172099163Y-118888356D01*
X172078601Y-118820573D01*
X172045211Y-118758105D01*
X172018100Y-118692653D01*
X171978740Y-118633747D01*
X171945351Y-118571280D01*
X171900418Y-118516529D01*
X171861057Y-118457621D01*
X171810960Y-118407524D01*
X171766027Y-118352773D01*
X171711276Y-118307840D01*
X171661179Y-118257743D01*
X171602271Y-118218382D01*
X171547520Y-118173449D01*
X171485053Y-118140060D01*
X171426147Y-118100700D01*
X171360695Y-118073589D01*
X171298227Y-118040199D01*
X171230444Y-118019637D01*
X171164994Y-117992527D01*
X171095511Y-117978706D01*
X171027728Y-117958144D01*
X170957238Y-117951201D01*
X170887755Y-117937380D01*
X170816911Y-117937380D01*
X170746419Y-117930437D01*
X170675927Y-117937380D01*
X170605085Y-117937380D01*
X170535604Y-117951201D01*
X170465110Y-117958144D01*
X170397324Y-117978707D01*
X170327846Y-117992527D01*
X170262399Y-118019636D01*
X170194612Y-118040199D01*
X170132140Y-118073591D01*
X170066693Y-118100700D01*
X170007791Y-118140057D01*
X169945319Y-118173449D01*
X169890564Y-118218385D01*
X169831661Y-118257743D01*
X169781567Y-118307837D01*
X168610961Y-119478444D01*
X166063152Y-116930637D01*
X166063152Y-115493840D01*
X166050892Y-115369358D01*
X166014582Y-115249660D01*
X165955617Y-115139346D01*
X165876265Y-115042655D01*
X165779574Y-114963303D01*
X165669260Y-114904338D01*
X165549562Y-114868028D01*
X165425080Y-114855768D01*
X164906403Y-114855768D01*
X164592295Y-114541660D01*
X164547348Y-114486892D01*
X164328841Y-114307568D01*
X164079548Y-114174318D01*
X163809049Y-114092264D01*
X163598232Y-114071500D01*
X163527740Y-114064557D01*
X163457248Y-114071500D01*
X160386665Y-114071500D01*
X160317183Y-114085321D01*
X160246691Y-114092264D01*
X160178903Y-114112827D01*
X160109426Y-114126647D01*
X160043986Y-114153753D01*
X159976192Y-114174318D01*
X159913712Y-114207714D01*
X159848273Y-114234820D01*
X159789378Y-114274172D01*
X159726899Y-114307568D01*
X159672137Y-114352510D01*
X159613241Y-114391863D01*
X159563154Y-114441950D01*
X159508392Y-114486892D01*
X159463450Y-114541654D01*
X159413363Y-114591741D01*
X159374010Y-114650637D01*
X159329068Y-114705399D01*
X159295672Y-114767878D01*
X159256320Y-114826773D01*
X159229214Y-114892212D01*
X159195818Y-114954692D01*
X159175253Y-115022486D01*
X159148147Y-115087926D01*
X159134327Y-115157403D01*
X159113764Y-115225191D01*
X159106821Y-115295683D01*
X159093000Y-115365165D01*
X159093000Y-115436008D01*
X159086057Y-115506500D01*
X143802000Y-115506500D01*
X143802000Y-115428665D01*
X143746853Y-115151426D01*
X143638680Y-114890273D01*
X143481637Y-114655241D01*
X143281759Y-114455363D01*
X143046727Y-114298320D01*
X142785574Y-114190147D01*
X142508335Y-114135000D01*
X142225665Y-114135000D01*
X141948426Y-114190147D01*
X141687273Y-114298320D01*
X141452241Y-114455363D01*
X141278500Y-114629104D01*
X141104759Y-114455363D01*
X140869727Y-114298320D01*
X140608574Y-114190147D01*
X140331335Y-114135000D01*
X140048665Y-114135000D01*
X139771426Y-114190147D01*
X139510273Y-114298320D01*
X139275241Y-114455363D01*
X139075363Y-114655241D01*
X138918320Y-114890273D01*
X138810147Y-115151426D01*
X138755000Y-115428665D01*
X134023000Y-115428665D01*
X133967853Y-115151426D01*
X133859680Y-114890273D01*
X133702637Y-114655241D01*
X133502759Y-114455363D01*
X133267727Y-114298320D01*
X133006574Y-114190147D01*
X132729335Y-114135000D01*
X132446665Y-114135000D01*
X132169426Y-114190147D01*
X131908273Y-114298320D01*
X131673241Y-114455363D01*
X131473363Y-114655241D01*
X131316320Y-114890273D01*
X131208147Y-115151426D01*
X131153000Y-115428665D01*
X131153000Y-115711335D01*
X131208147Y-115988574D01*
X131316320Y-116249727D01*
X131473363Y-116484759D01*
X131673241Y-116684637D01*
X131908273Y-116841680D01*
X132071703Y-116909375D01*
X131974824Y-116949504D01*
X131769028Y-117087012D01*
X131594012Y-117262028D01*
X131456504Y-117467824D01*
X131361786Y-117696492D01*
X131313500Y-117939246D01*
X131313500Y-118186754D01*
X131361786Y-118429508D01*
X131456504Y-118658176D01*
X131594012Y-118863972D01*
X131769028Y-119038988D01*
X131974824Y-119176496D01*
X132147867Y-119248173D01*
X128158542Y-123237499D01*
X127790094Y-123237499D01*
X130874836Y-120152757D01*
X130922778Y-120113412D01*
X131079796Y-119922085D01*
X131196471Y-119703802D01*
X131268319Y-119466951D01*
X131286500Y-119282355D01*
X131286500Y-119282346D01*
X131292578Y-119220635D01*
X131286500Y-119158924D01*
X131286500Y-117939246D01*
X131274398Y-117878404D01*
X131268319Y-117816683D01*
X131250317Y-117757337D01*
X131238214Y-117696492D01*
X131214473Y-117639176D01*
X131196471Y-117579832D01*
X131167236Y-117525138D01*
X131143496Y-117467824D01*
X131109030Y-117416242D01*
X131079796Y-117361549D01*
X131040456Y-117313613D01*
X131005988Y-117262028D01*
X130962118Y-117218158D01*
X130922778Y-117170222D01*
X130874843Y-117130883D01*
X130830972Y-117087012D01*
X130779383Y-117052542D01*
X130731450Y-117013204D01*
X130676762Y-116983973D01*
X130625176Y-116949504D01*
X130567857Y-116925762D01*
X130513167Y-116896529D01*
X130453826Y-116878528D01*
X130396508Y-116854786D01*
X130335660Y-116842683D01*
X130276316Y-116824681D01*
X130214597Y-116818602D01*
X130153754Y-116806500D01*
X130091721Y-116806500D01*
X130030000Y-116800421D01*
X129968279Y-116806500D01*
X129906246Y-116806500D01*
X129845404Y-116818602D01*
X129783683Y-116824681D01*
X129724337Y-116842683D01*
X129663492Y-116854786D01*
X129606176Y-116878527D01*
X129546832Y-116896529D01*
X129492138Y-116925764D01*
X129434824Y-116949504D01*
X129383242Y-116983970D01*
X129328549Y-117013204D01*
X129280613Y-117052544D01*
X129229028Y-117087012D01*
X129185158Y-117130882D01*
X129137222Y-117170222D01*
X129097883Y-117218157D01*
X129054012Y-117262028D01*
X129019542Y-117313617D01*
X128980204Y-117361550D01*
X128950973Y-117416238D01*
X128916504Y-117467824D01*
X128892762Y-117525143D01*
X128863529Y-117579833D01*
X128845528Y-117639174D01*
X128821786Y-117696492D01*
X128809683Y-117757340D01*
X128791681Y-117816684D01*
X128785602Y-117878403D01*
X128773500Y-117939246D01*
X128773500Y-118700175D01*
X124998804Y-122474871D01*
X124966570Y-122397052D01*
X124794227Y-122139123D01*
X124574877Y-121919773D01*
X124504876Y-121873000D01*
X124574877Y-121826227D01*
X124794227Y-121606877D01*
X124966570Y-121348948D01*
X125085282Y-121062352D01*
X125145800Y-120758104D01*
X125145800Y-120447896D01*
X125085282Y-120143648D01*
X124966570Y-119857052D01*
X124794227Y-119599123D01*
X124574877Y-119379773D01*
X124504876Y-119333000D01*
X124574877Y-119286227D01*
X124794227Y-119066877D01*
X124966570Y-118808948D01*
X125085282Y-118522352D01*
X125145800Y-118218104D01*
X125145800Y-117939246D01*
X126233500Y-117939246D01*
X126233500Y-118186754D01*
X126281786Y-118429508D01*
X126376504Y-118658176D01*
X126514012Y-118863972D01*
X126689028Y-119038988D01*
X126894824Y-119176496D01*
X127123492Y-119271214D01*
X127366246Y-119319500D01*
X127613754Y-119319500D01*
X127856508Y-119271214D01*
X128085176Y-119176496D01*
X128290972Y-119038988D01*
X128465988Y-118863972D01*
X128603496Y-118658176D01*
X128698214Y-118429508D01*
X128746500Y-118186754D01*
X128746500Y-117939246D01*
X128698214Y-117696492D01*
X128603496Y-117467824D01*
X128465988Y-117262028D01*
X128290972Y-117087012D01*
X128085176Y-116949504D01*
X127856508Y-116854786D01*
X127613754Y-116806500D01*
X127366246Y-116806500D01*
X127123492Y-116854786D01*
X126894824Y-116949504D01*
X126689028Y-117087012D01*
X126514012Y-117262028D01*
X126376504Y-117467824D01*
X126281786Y-117696492D01*
X126233500Y-117939246D01*
X125145800Y-117939246D01*
X125145800Y-117907896D01*
X125085282Y-117603648D01*
X124966570Y-117317052D01*
X124794227Y-117059123D01*
X124574877Y-116839773D01*
X124316948Y-116667430D01*
X124030352Y-116548718D01*
X123726104Y-116488200D01*
X123415896Y-116488200D01*
X123111648Y-116548718D01*
X122825052Y-116667430D01*
X122567123Y-116839773D01*
X122347773Y-117059123D01*
X122301000Y-117129124D01*
X122254227Y-117059123D01*
X122034877Y-116839773D01*
X121964876Y-116793000D01*
X122034877Y-116746227D01*
X122254227Y-116526877D01*
X122426570Y-116268948D01*
X122545282Y-115982352D01*
X122605800Y-115678104D01*
X122605800Y-115367896D01*
X122545282Y-115063648D01*
X122426570Y-114777052D01*
X122254227Y-114519123D01*
X122034877Y-114299773D01*
X121776948Y-114127430D01*
X121490352Y-114008718D01*
X121186104Y-113948200D01*
X120875896Y-113948200D01*
X120571648Y-114008718D01*
X120285052Y-114127430D01*
X120027123Y-114299773D01*
X119807773Y-114519123D01*
X119635430Y-114777052D01*
X119516718Y-115063648D01*
X119456200Y-115367896D01*
X119456200Y-115678104D01*
X119516718Y-115982352D01*
X119635430Y-116268948D01*
X119807773Y-116526877D01*
X120027123Y-116746227D01*
X120097124Y-116793000D01*
X120027123Y-116839773D01*
X119807773Y-117059123D01*
X119635430Y-117317052D01*
X119516718Y-117603648D01*
X119456200Y-117907896D01*
X119456200Y-118218104D01*
X119516718Y-118522352D01*
X119635430Y-118808948D01*
X119807773Y-119066877D01*
X120027123Y-119286227D01*
X120097124Y-119333000D01*
X120027123Y-119379773D01*
X119807773Y-119599123D01*
X119635430Y-119857052D01*
X119516718Y-120143648D01*
X119456200Y-120447896D01*
X119456200Y-120758104D01*
X119516718Y-121062352D01*
X119635430Y-121348948D01*
X119807773Y-121606877D01*
X120027123Y-121826227D01*
X120097124Y-121873000D01*
X120027123Y-121919773D01*
X119807773Y-122139123D01*
X119635430Y-122397052D01*
X119516718Y-122683648D01*
X119456200Y-122987896D01*
X119456200Y-123298104D01*
X119516718Y-123602352D01*
X119635430Y-123888948D01*
X119807773Y-124146877D01*
X120027123Y-124366227D01*
X120285052Y-124538570D01*
X120571648Y-124657282D01*
X120875896Y-124717800D01*
X121186104Y-124717800D01*
X121490352Y-124657282D01*
X121776948Y-124538570D01*
X122034877Y-124366227D01*
X122254227Y-124146877D01*
X122301000Y-124076876D01*
X122347773Y-124146877D01*
X122567123Y-124366227D01*
X122825052Y-124538570D01*
X123111648Y-124657282D01*
X123347071Y-124704110D01*
X123347489Y-124708357D01*
X123347491Y-128363215D01*
X123341412Y-128424936D01*
X123365672Y-128671253D01*
X123437520Y-128908104D01*
X123554194Y-129126387D01*
X123671867Y-129269772D01*
X123671873Y-129269778D01*
X123711213Y-129317714D01*
X123759149Y-129357054D01*
X128640459Y-134238365D01*
X119919084Y-134238365D01*
X119765377Y-134223294D01*
X119647425Y-134187682D01*
X119538636Y-134129838D01*
X119443151Y-134051962D01*
X119364616Y-133957030D01*
X119306012Y-133848644D01*
X119269577Y-133730943D01*
X119253635Y-133579260D01*
X119253635Y-127896185D01*
X119805760Y-127896185D01*
X119805760Y-128134535D01*
X119852259Y-128368304D01*
X119943472Y-128588510D01*
X120075891Y-128786690D01*
X120244430Y-128955229D01*
X120442610Y-129087648D01*
X120662816Y-129178861D01*
X120896585Y-129225360D01*
X121134935Y-129225360D01*
X121368704Y-129178861D01*
X121588910Y-129087648D01*
X121787090Y-128955229D01*
X121955629Y-128786690D01*
X122088048Y-128588510D01*
X122179261Y-128368304D01*
X122225760Y-128134535D01*
X122225760Y-127896185D01*
X122179261Y-127662416D01*
X122088048Y-127442210D01*
X121955629Y-127244030D01*
X121787090Y-127075491D01*
X121588910Y-126943072D01*
X121368704Y-126851859D01*
X121134935Y-126805360D01*
X120896585Y-126805360D01*
X120662816Y-126851859D01*
X120442610Y-126943072D01*
X120244430Y-127075491D01*
X120075891Y-127244030D01*
X119943472Y-127442210D01*
X119852259Y-127662416D01*
X119805760Y-127896185D01*
X119253635Y-127896185D01*
X119253635Y-114585084D01*
X119268706Y-114431377D01*
X119304318Y-114313426D01*
X119362163Y-114204634D01*
X119440037Y-114109152D01*
X119534973Y-114030614D01*
X119643354Y-113972013D01*
X119761057Y-113935577D01*
X119912740Y-113919635D01*
X178276916Y-113919635D01*
X178430623Y-113934706D01*
%TA.AperFunction,Conductor*%
D29*
G36*
X178430623Y-113934706D02*
G01*
X178548574Y-113970318D01*
X178657366Y-114028163D01*
X178752848Y-114106037D01*
X178831386Y-114200973D01*
X178889987Y-114309354D01*
X178926423Y-114427057D01*
X178942365Y-114578740D01*
X178942365Y-117795167D01*
X176132237Y-114985040D01*
X176094339Y-114938861D01*
X175910092Y-114787654D01*
X175699887Y-114675297D01*
X175471801Y-114606108D01*
X175294037Y-114588600D01*
X175294035Y-114588600D01*
X175234600Y-114582746D01*
X175175165Y-114588600D01*
X173403634Y-114588600D01*
X173344199Y-114582746D01*
X173284764Y-114588600D01*
X173225025Y-114588600D01*
X173166435Y-114600254D01*
X173106999Y-114606108D01*
X173049849Y-114623444D01*
X172991256Y-114635099D01*
X172936064Y-114657961D01*
X172878913Y-114675297D01*
X172826240Y-114703452D01*
X172771050Y-114726312D01*
X172721380Y-114759500D01*
X172668708Y-114787654D01*
X172622541Y-114825542D01*
X172572870Y-114858731D01*
X172530629Y-114900972D01*
X172484461Y-114938861D01*
X172446572Y-114985029D01*
X172404331Y-115027270D01*
X172404329Y-115027274D01*
X172192762Y-115238840D01*
X170608679Y-115238840D01*
X170583646Y-115213807D01*
X170323227Y-115039801D01*
X170033866Y-114919943D01*
X169726681Y-114858840D01*
X169413479Y-114858840D01*
X169106294Y-114919943D01*
X168816933Y-115039801D01*
X168556514Y-115213807D01*
X168335047Y-115435274D01*
X168161041Y-115695693D01*
X168041183Y-115985054D01*
X167980080Y-116292239D01*
X167980080Y-116605441D01*
X168041183Y-116912626D01*
X168161041Y-117201987D01*
X168335047Y-117462406D01*
X168556514Y-117683873D01*
X168816933Y-117857879D01*
X169106294Y-117977737D01*
X169413479Y-118038840D01*
X169726681Y-118038840D01*
X170033866Y-117977737D01*
X170323227Y-117857879D01*
X170583646Y-117683873D01*
X170608679Y-117658840D01*
X172634525Y-117658840D01*
X172693960Y-117664694D01*
X172753395Y-117658840D01*
X172753397Y-117658840D01*
X172931161Y-117641332D01*
X173159247Y-117572143D01*
X173369452Y-117459786D01*
X173553699Y-117308579D01*
X173591596Y-117262401D01*
X173845397Y-117008600D01*
X174733403Y-117008600D01*
X175852963Y-118128160D01*
X175597199Y-118179035D01*
X175281449Y-118309823D01*
X175127991Y-118412360D01*
X174618137Y-118412360D01*
X174547645Y-118405417D01*
X174266336Y-118433124D01*
X174215266Y-118448616D01*
X173995838Y-118515178D01*
X173746545Y-118648428D01*
X173528038Y-118827752D01*
X173483091Y-118882520D01*
X173038434Y-119327177D01*
X172983672Y-119372119D01*
X172804348Y-119590626D01*
X172779133Y-119637800D01*
X172671097Y-119839920D01*
X172589043Y-120110419D01*
X172561336Y-120391727D01*
X172568280Y-120462229D01*
X172568279Y-123388220D01*
X168702289Y-123388220D01*
X168568458Y-123332785D01*
X168269002Y-123273220D01*
X167963678Y-123273220D01*
X167664222Y-123332785D01*
X167382140Y-123449628D01*
X167128272Y-123619256D01*
X166912376Y-123835152D01*
X166742748Y-124089020D01*
X166625905Y-124371102D01*
X166566340Y-124670558D01*
X166566340Y-124882381D01*
X158945990Y-117262031D01*
X158945988Y-117262028D01*
X158770972Y-117087012D01*
X158719388Y-117052544D01*
X158671451Y-117013204D01*
X158616760Y-116983971D01*
X158565176Y-116949504D01*
X158507856Y-116925761D01*
X158453168Y-116896530D01*
X158393833Y-116878531D01*
X158336508Y-116854786D01*
X158275653Y-116842681D01*
X158216317Y-116824682D01*
X158154606Y-116818604D01*
X158093754Y-116806500D01*
X158031711Y-116806500D01*
X157970000Y-116800422D01*
X157908289Y-116806500D01*
X157846246Y-116806500D01*
X157785394Y-116818604D01*
X157723683Y-116824682D01*
X157664347Y-116842681D01*
X157603492Y-116854786D01*
X157546167Y-116878531D01*
X157486832Y-116896530D01*
X157432144Y-116925761D01*
X157374824Y-116949504D01*
X157323240Y-116983971D01*
X157268549Y-117013204D01*
X157220613Y-117052544D01*
X157169028Y-117087012D01*
X157125158Y-117130882D01*
X157077222Y-117170222D01*
X157037882Y-117218158D01*
X156994012Y-117262028D01*
X156959544Y-117313613D01*
X156920204Y-117361549D01*
X156890971Y-117416240D01*
X156856504Y-117467824D01*
X156832761Y-117525144D01*
X156803530Y-117579832D01*
X156785531Y-117639167D01*
X156761786Y-117696492D01*
X156749681Y-117757347D01*
X156731682Y-117816683D01*
X156725604Y-117878394D01*
X156713500Y-117939246D01*
X156713500Y-118001289D01*
X156707422Y-118063000D01*
X156713500Y-118124711D01*
X156713500Y-118186754D01*
X156725604Y-118247606D01*
X156725791Y-118249501D01*
X156674019Y-118249501D01*
X156686500Y-118186754D01*
X156686500Y-117939246D01*
X156638214Y-117696492D01*
X156543496Y-117467824D01*
X156405988Y-117262028D01*
X156230972Y-117087012D01*
X156025176Y-116949504D01*
X155796508Y-116854786D01*
X155553754Y-116806500D01*
X155306246Y-116806500D01*
X155063492Y-116854786D01*
X154834824Y-116949504D01*
X154629028Y-117087012D01*
X154454012Y-117262028D01*
X154316504Y-117467824D01*
X154244827Y-117640867D01*
X153865990Y-117262031D01*
X153865988Y-117262028D01*
X153690972Y-117087012D01*
X153639388Y-117052544D01*
X153591451Y-117013204D01*
X153536760Y-116983971D01*
X153485176Y-116949504D01*
X153427856Y-116925761D01*
X153373168Y-116896530D01*
X153313833Y-116878531D01*
X153256508Y-116854786D01*
X153195653Y-116842681D01*
X153136317Y-116824682D01*
X153074606Y-116818604D01*
X153013754Y-116806500D01*
X152951711Y-116806500D01*
X152890000Y-116800422D01*
X152828289Y-116806500D01*
X152766246Y-116806500D01*
X152705394Y-116818604D01*
X152643683Y-116824682D01*
X152584347Y-116842681D01*
X152523492Y-116854786D01*
X152466167Y-116878531D01*
X152406832Y-116896530D01*
X152352144Y-116925761D01*
X152294824Y-116949504D01*
X152243240Y-116983971D01*
X152188549Y-117013204D01*
X152140613Y-117052544D01*
X152089028Y-117087012D01*
X152045158Y-117130882D01*
X151997222Y-117170222D01*
X151957882Y-117218158D01*
X151914012Y-117262028D01*
X151879544Y-117313613D01*
X151840204Y-117361549D01*
X151810971Y-117416240D01*
X151776504Y-117467824D01*
X151752761Y-117525144D01*
X151723530Y-117579832D01*
X151705531Y-117639167D01*
X151681786Y-117696492D01*
X151669681Y-117757347D01*
X151651682Y-117816683D01*
X151645604Y-117878394D01*
X151633500Y-117939246D01*
X151633500Y-118001289D01*
X151627422Y-118063000D01*
X151633500Y-118124711D01*
X151633500Y-118186754D01*
X151645604Y-118247606D01*
X151651682Y-118309317D01*
X151669681Y-118368653D01*
X151681786Y-118429508D01*
X151705531Y-118486833D01*
X151723530Y-118546168D01*
X151752761Y-118600856D01*
X151776504Y-118658176D01*
X151810971Y-118709760D01*
X151840204Y-118764451D01*
X151879544Y-118812388D01*
X151914012Y-118863972D01*
X152089028Y-119038988D01*
X152089031Y-119038990D01*
X153400882Y-120350842D01*
X153440223Y-120398779D01*
X153488159Y-120438119D01*
X153488164Y-120438124D01*
X153631549Y-120555797D01*
X153812206Y-120652360D01*
X153849833Y-120672472D01*
X154086684Y-120744320D01*
X154271280Y-120762501D01*
X154271282Y-120762501D01*
X154333001Y-120768580D01*
X154394720Y-120762501D01*
X156851818Y-120762501D01*
X160803601Y-124714284D01*
X160633754Y-124680500D01*
X160386246Y-124680500D01*
X160143492Y-124728786D01*
X159914824Y-124823504D01*
X159709028Y-124961012D01*
X159534012Y-125136028D01*
X159396504Y-125341824D01*
X159301786Y-125570492D01*
X159253500Y-125813246D01*
X159253500Y-126060754D01*
X159301786Y-126303508D01*
X159396504Y-126532176D01*
X159534012Y-126737972D01*
X159709028Y-126912988D01*
X159914824Y-127050496D01*
X160120703Y-127135774D01*
X160090697Y-127141743D01*
X159829089Y-127250104D01*
X159593647Y-127407421D01*
X159393421Y-127607647D01*
X159240000Y-127837258D01*
X159226500Y-127817054D01*
X159226500Y-125813246D01*
X159214398Y-125752404D01*
X159208319Y-125690683D01*
X159190317Y-125631337D01*
X159178214Y-125570492D01*
X159154473Y-125513176D01*
X159136471Y-125453832D01*
X159107236Y-125399138D01*
X159083496Y-125341824D01*
X159049030Y-125290242D01*
X159019796Y-125235549D01*
X158980456Y-125187613D01*
X158945988Y-125136028D01*
X158902118Y-125092158D01*
X158862778Y-125044222D01*
X158814843Y-125004883D01*
X158770972Y-124961012D01*
X158719383Y-124926542D01*
X158671450Y-124887204D01*
X158616762Y-124857973D01*
X158565176Y-124823504D01*
X158507857Y-124799762D01*
X158453167Y-124770529D01*
X158393826Y-124752528D01*
X158336508Y-124728786D01*
X158275660Y-124716683D01*
X158216316Y-124698681D01*
X158154597Y-124692602D01*
X158093754Y-124680500D01*
X158031721Y-124680500D01*
X157970000Y-124674421D01*
X157908279Y-124680500D01*
X157846246Y-124680500D01*
X157785404Y-124692602D01*
X157723683Y-124698681D01*
X157664337Y-124716683D01*
X157603492Y-124728786D01*
X157546176Y-124752527D01*
X157486832Y-124770529D01*
X157432138Y-124799764D01*
X157374824Y-124823504D01*
X157323242Y-124857970D01*
X157268549Y-124887204D01*
X157220613Y-124926544D01*
X157169028Y-124961012D01*
X157125158Y-125004882D01*
X157077222Y-125044222D01*
X157037883Y-125092157D01*
X156994012Y-125136028D01*
X156959542Y-125187617D01*
X156920204Y-125235550D01*
X156890973Y-125290238D01*
X156856504Y-125341824D01*
X156832762Y-125399143D01*
X156803529Y-125453833D01*
X156785528Y-125513174D01*
X156761786Y-125570492D01*
X156749683Y-125631340D01*
X156731681Y-125690684D01*
X156725602Y-125752403D01*
X156713500Y-125813246D01*
X156713500Y-125875280D01*
X156713501Y-127817053D01*
X156700000Y-127837258D01*
X156546579Y-127607647D01*
X156346353Y-127407421D01*
X156110911Y-127250104D01*
X155849303Y-127141743D01*
X155819297Y-127135774D01*
X156025176Y-127050496D01*
X156230972Y-126912988D01*
X156405988Y-126737972D01*
X156543496Y-126532176D01*
X156638214Y-126303508D01*
X156686500Y-126060754D01*
X156686500Y-125813246D01*
X156638214Y-125570492D01*
X156543496Y-125341824D01*
X156405988Y-125136028D01*
X156230972Y-124961012D01*
X156025176Y-124823504D01*
X155796508Y-124728786D01*
X155553754Y-124680500D01*
X155306246Y-124680500D01*
X155063492Y-124728786D01*
X154834824Y-124823504D01*
X154629028Y-124961012D01*
X154454012Y-125136028D01*
X154316504Y-125341824D01*
X154221786Y-125570492D01*
X154173500Y-125813246D01*
X154173500Y-126060754D01*
X154221786Y-126303508D01*
X154316504Y-126532176D01*
X154454012Y-126737972D01*
X154629028Y-126912988D01*
X154834824Y-127050496D01*
X155040703Y-127135774D01*
X155010697Y-127141743D01*
X154749089Y-127250104D01*
X154513647Y-127407421D01*
X154313421Y-127607647D01*
X154160000Y-127837258D01*
X154146500Y-127817054D01*
X154146500Y-125813246D01*
X154134398Y-125752404D01*
X154128319Y-125690683D01*
X154110317Y-125631337D01*
X154098214Y-125570492D01*
X154074473Y-125513176D01*
X154056471Y-125453832D01*
X154027236Y-125399138D01*
X154003496Y-125341824D01*
X153969030Y-125290242D01*
X153939796Y-125235549D01*
X153900456Y-125187613D01*
X153865988Y-125136028D01*
X153822118Y-125092158D01*
X153782778Y-125044222D01*
X153734843Y-125004883D01*
X153690972Y-124961012D01*
X153639383Y-124926542D01*
X153591450Y-124887204D01*
X153536762Y-124857973D01*
X153485176Y-124823504D01*
X153427857Y-124799762D01*
X153373167Y-124770529D01*
X153313826Y-124752528D01*
X153256508Y-124728786D01*
X153195660Y-124716683D01*
X153136316Y-124698681D01*
X153074597Y-124692602D01*
X153013754Y-124680500D01*
X152951721Y-124680500D01*
X152890000Y-124674421D01*
X152828279Y-124680500D01*
X152766246Y-124680500D01*
X152705404Y-124692602D01*
X152643683Y-124698681D01*
X152584337Y-124716683D01*
X152523492Y-124728786D01*
X152466176Y-124752527D01*
X152406832Y-124770529D01*
X152352138Y-124799764D01*
X152294824Y-124823504D01*
X152243242Y-124857970D01*
X152188549Y-124887204D01*
X152140613Y-124926544D01*
X152089028Y-124961012D01*
X152045158Y-125004882D01*
X151997222Y-125044222D01*
X151957883Y-125092157D01*
X151914012Y-125136028D01*
X151879542Y-125187617D01*
X151840204Y-125235550D01*
X151810973Y-125290238D01*
X151776504Y-125341824D01*
X151752762Y-125399143D01*
X151723529Y-125453833D01*
X151705528Y-125513174D01*
X151681786Y-125570492D01*
X151669683Y-125631340D01*
X151651681Y-125690684D01*
X151645602Y-125752403D01*
X151633500Y-125813246D01*
X151633500Y-125875280D01*
X151633501Y-127817053D01*
X151620000Y-127837258D01*
X151466579Y-127607647D01*
X151266353Y-127407421D01*
X151030911Y-127250104D01*
X150769303Y-127141743D01*
X150739297Y-127135774D01*
X150945176Y-127050496D01*
X151150972Y-126912988D01*
X151325988Y-126737972D01*
X151463496Y-126532176D01*
X151558214Y-126303508D01*
X151606500Y-126060754D01*
X151606500Y-125813246D01*
X151558214Y-125570492D01*
X151463496Y-125341824D01*
X151325988Y-125136028D01*
X151150972Y-124961012D01*
X150945176Y-124823504D01*
X150716508Y-124728786D01*
X150473754Y-124680500D01*
X150226246Y-124680500D01*
X149983492Y-124728786D01*
X149754824Y-124823504D01*
X149549028Y-124961012D01*
X149374012Y-125136028D01*
X149236504Y-125341824D01*
X149141786Y-125570492D01*
X149093500Y-125813246D01*
X149093500Y-126060754D01*
X149141786Y-126303508D01*
X149236504Y-126532176D01*
X149374012Y-126737972D01*
X149549028Y-126912988D01*
X149754824Y-127050496D01*
X149960703Y-127135774D01*
X149930697Y-127141743D01*
X149669089Y-127250104D01*
X149433647Y-127407421D01*
X149233421Y-127607647D01*
X149080000Y-127837258D01*
X149066500Y-127817054D01*
X149066500Y-125813246D01*
X149054398Y-125752404D01*
X149048319Y-125690683D01*
X149030317Y-125631337D01*
X149018214Y-125570492D01*
X148994473Y-125513176D01*
X148976471Y-125453832D01*
X148947236Y-125399138D01*
X148923496Y-125341824D01*
X148889030Y-125290242D01*
X148859796Y-125235549D01*
X148820456Y-125187613D01*
X148785988Y-125136028D01*
X148742118Y-125092158D01*
X148702778Y-125044222D01*
X148654843Y-125004883D01*
X148610972Y-124961012D01*
X148559383Y-124926542D01*
X148511450Y-124887204D01*
X148456762Y-124857973D01*
X148405176Y-124823504D01*
X148347857Y-124799762D01*
X148293167Y-124770529D01*
X148233826Y-124752528D01*
X148176508Y-124728786D01*
X148115660Y-124716683D01*
X148056316Y-124698681D01*
X147994597Y-124692602D01*
X147933754Y-124680500D01*
X147871721Y-124680500D01*
X147810000Y-124674421D01*
X147748279Y-124680500D01*
X147686246Y-124680500D01*
X147625404Y-124692602D01*
X147563683Y-124698681D01*
X147504337Y-124716683D01*
X147443492Y-124728786D01*
X147386176Y-124752527D01*
X147326832Y-124770529D01*
X147272138Y-124799764D01*
X147214824Y-124823504D01*
X147163242Y-124857970D01*
X147108549Y-124887204D01*
X147060613Y-124926544D01*
X147009028Y-124961012D01*
X146965158Y-125004882D01*
X146917222Y-125044222D01*
X146877883Y-125092157D01*
X146834012Y-125136028D01*
X146799542Y-125187617D01*
X146760204Y-125235550D01*
X146730973Y-125290238D01*
X146696504Y-125341824D01*
X146672762Y-125399143D01*
X146643529Y-125453833D01*
X146625528Y-125513174D01*
X146601786Y-125570492D01*
X146589683Y-125631340D01*
X146571681Y-125690684D01*
X146565602Y-125752403D01*
X146553500Y-125813246D01*
X146553500Y-125875280D01*
X146553501Y-127817053D01*
X146540000Y-127837258D01*
X146386579Y-127607647D01*
X146186353Y-127407421D01*
X145950911Y-127250104D01*
X145689303Y-127141743D01*
X145659297Y-127135774D01*
X145865176Y-127050496D01*
X146070972Y-126912988D01*
X146245988Y-126737972D01*
X146383496Y-126532176D01*
X146478214Y-126303508D01*
X146526500Y-126060754D01*
X146526500Y-125813246D01*
X146478214Y-125570492D01*
X146383496Y-125341824D01*
X146245988Y-125136028D01*
X146070972Y-124961012D01*
X145865176Y-124823504D01*
X145636508Y-124728786D01*
X145393754Y-124680500D01*
X145146246Y-124680500D01*
X144903492Y-124728786D01*
X144674824Y-124823504D01*
X144469028Y-124961012D01*
X144294012Y-125136028D01*
X144156504Y-125341824D01*
X144061786Y-125570492D01*
X144013500Y-125813246D01*
X144013500Y-126060754D01*
X144061786Y-126303508D01*
X144156504Y-126532176D01*
X144294012Y-126737972D01*
X144469028Y-126912988D01*
X144674824Y-127050496D01*
X144880703Y-127135774D01*
X144850697Y-127141743D01*
X144589089Y-127250104D01*
X144353647Y-127407421D01*
X144153421Y-127607647D01*
X144000000Y-127837258D01*
X143986500Y-127817054D01*
X143986500Y-125813246D01*
X143974398Y-125752404D01*
X143968319Y-125690683D01*
X143950317Y-125631337D01*
X143938214Y-125570492D01*
X143914473Y-125513176D01*
X143896471Y-125453832D01*
X143867236Y-125399138D01*
X143843496Y-125341824D01*
X143809030Y-125290242D01*
X143779796Y-125235549D01*
X143740456Y-125187613D01*
X143705988Y-125136028D01*
X143662118Y-125092158D01*
X143622778Y-125044222D01*
X143574843Y-125004883D01*
X143530972Y-124961012D01*
X143479383Y-124926542D01*
X143431450Y-124887204D01*
X143376762Y-124857973D01*
X143325176Y-124823504D01*
X143267857Y-124799762D01*
X143213167Y-124770529D01*
X143153826Y-124752528D01*
X143096508Y-124728786D01*
X143035660Y-124716683D01*
X142976316Y-124698681D01*
X142914597Y-124692602D01*
X142853754Y-124680500D01*
X142791721Y-124680500D01*
X142730000Y-124674421D01*
X142668279Y-124680500D01*
X142606246Y-124680500D01*
X142545404Y-124692602D01*
X142483683Y-124698681D01*
X142424337Y-124716683D01*
X142363492Y-124728786D01*
X142306176Y-124752527D01*
X142246832Y-124770529D01*
X142192138Y-124799764D01*
X142134824Y-124823504D01*
X142083242Y-124857970D01*
X142028549Y-124887204D01*
X141980613Y-124926544D01*
X141929028Y-124961012D01*
X141885158Y-125004882D01*
X141837222Y-125044222D01*
X141797883Y-125092157D01*
X141754012Y-125136028D01*
X141719542Y-125187617D01*
X141680204Y-125235550D01*
X141650973Y-125290238D01*
X141616504Y-125341824D01*
X141592762Y-125399143D01*
X141563529Y-125453833D01*
X141545528Y-125513174D01*
X141521786Y-125570492D01*
X141509683Y-125631340D01*
X141491681Y-125690684D01*
X141485602Y-125752403D01*
X141473500Y-125813246D01*
X141473500Y-125875280D01*
X141473501Y-127817053D01*
X141460000Y-127837258D01*
X141306579Y-127607647D01*
X141106353Y-127407421D01*
X140870911Y-127250104D01*
X140609303Y-127141743D01*
X140579297Y-127135774D01*
X140785176Y-127050496D01*
X140990972Y-126912988D01*
X141165988Y-126737972D01*
X141303496Y-126532176D01*
X141398214Y-126303508D01*
X141446500Y-126060754D01*
X141446500Y-125813246D01*
X141398214Y-125570492D01*
X141303496Y-125341824D01*
X141165988Y-125136028D01*
X140990972Y-124961012D01*
X140785176Y-124823504D01*
X140556508Y-124728786D01*
X140313754Y-124680500D01*
X140066246Y-124680500D01*
X139823492Y-124728786D01*
X139594824Y-124823504D01*
X139389028Y-124961012D01*
X139214012Y-125136028D01*
X139076504Y-125341824D01*
X138981786Y-125570492D01*
X138933500Y-125813246D01*
X138933500Y-126060754D01*
X138981786Y-126303508D01*
X139076504Y-126532176D01*
X139214012Y-126737972D01*
X139389028Y-126912988D01*
X139594824Y-127050496D01*
X139800703Y-127135774D01*
X139770697Y-127141743D01*
X139509089Y-127250104D01*
X139273647Y-127407421D01*
X139073421Y-127607647D01*
X138916104Y-127843089D01*
X138807743Y-128104697D01*
X138752500Y-128382419D01*
X138752500Y-128665581D01*
X138807743Y-128943303D01*
X138916104Y-129204911D01*
X139073421Y-129440353D01*
X139268242Y-129635174D01*
X139263018Y-129635688D01*
X139143320Y-129671998D01*
X139033006Y-129730963D01*
X138936315Y-129810315D01*
X138856963Y-129907006D01*
X138797998Y-130017320D01*
X138761688Y-130137018D01*
X138749428Y-130261500D01*
X138749428Y-131431501D01*
X131428239Y-131431501D01*
X130470938Y-130474200D01*
X130651801Y-130474200D01*
X130958986Y-130413097D01*
X131248347Y-130293239D01*
X131508766Y-130119233D01*
X131730233Y-129897766D01*
X131770200Y-129837951D01*
X131810167Y-129897766D01*
X132031634Y-130119233D01*
X132292053Y-130293239D01*
X132581414Y-130413097D01*
X132888599Y-130474200D01*
X133201801Y-130474200D01*
X133508986Y-130413097D01*
X133798347Y-130293239D01*
X134058766Y-130119233D01*
X134280233Y-129897766D01*
X134454239Y-129637347D01*
X134574097Y-129347986D01*
X134635200Y-129040801D01*
X134635200Y-128727599D01*
X134574097Y-128420414D01*
X134454239Y-128131053D01*
X134280233Y-127870634D01*
X134058766Y-127649167D01*
X133798347Y-127475161D01*
X133508986Y-127355303D01*
X133201801Y-127294200D01*
X132888599Y-127294200D01*
X132581414Y-127355303D01*
X132292053Y-127475161D01*
X132031634Y-127649167D01*
X131810167Y-127870634D01*
X131770200Y-127930449D01*
X131730233Y-127870634D01*
X131508766Y-127649167D01*
X131248347Y-127475161D01*
X130958986Y-127355303D01*
X130651801Y-127294200D01*
X130338599Y-127294200D01*
X130031414Y-127355303D01*
X129742053Y-127475161D01*
X129481634Y-127649167D01*
X129260167Y-127870634D01*
X129086161Y-128131053D01*
X128966303Y-128420414D01*
X128905200Y-128727599D01*
X128905200Y-128908463D01*
X127303499Y-127306762D01*
X127303499Y-127181019D01*
X127366246Y-127193500D01*
X127613754Y-127193500D01*
X127856508Y-127145214D01*
X128085176Y-127050496D01*
X128290972Y-126912988D01*
X128465988Y-126737972D01*
X128603496Y-126532176D01*
X128698214Y-126303508D01*
X128746500Y-126060754D01*
X128746500Y-125813246D01*
X128734148Y-125751146D01*
X128740712Y-125750499D01*
X128740722Y-125750499D01*
X128925318Y-125732318D01*
X129162169Y-125660470D01*
X129380452Y-125543795D01*
X129571779Y-125386777D01*
X129611124Y-125338835D01*
X136042123Y-118907837D01*
X136085988Y-118863972D01*
X136120452Y-118812393D01*
X136159796Y-118764452D01*
X136189031Y-118709756D01*
X136223496Y-118658176D01*
X136247237Y-118600860D01*
X136276470Y-118546169D01*
X136294470Y-118486830D01*
X136318214Y-118429508D01*
X136330318Y-118368656D01*
X136348318Y-118309318D01*
X136354396Y-118247605D01*
X136366500Y-118186754D01*
X136366500Y-118124712D01*
X136372578Y-118063001D01*
X136366500Y-118001290D01*
X136366500Y-117939246D01*
X136393500Y-117939246D01*
X136393500Y-118186754D01*
X136441786Y-118429508D01*
X136536504Y-118658176D01*
X136674012Y-118863972D01*
X136849028Y-119038988D01*
X137054824Y-119176496D01*
X137283492Y-119271214D01*
X137526246Y-119319500D01*
X137773754Y-119319500D01*
X138016508Y-119271214D01*
X138245176Y-119176496D01*
X138450972Y-119038988D01*
X138625988Y-118863972D01*
X138763496Y-118658176D01*
X138858214Y-118429508D01*
X138906500Y-118186754D01*
X138906500Y-117939246D01*
X138858214Y-117696492D01*
X138763496Y-117467824D01*
X138625988Y-117262028D01*
X138450972Y-117087012D01*
X138245176Y-116949504D01*
X138016508Y-116854786D01*
X137773754Y-116806500D01*
X137526246Y-116806500D01*
X137283492Y-116854786D01*
X137054824Y-116949504D01*
X136849028Y-117087012D01*
X136674012Y-117262028D01*
X136536504Y-117467824D01*
X136441786Y-117696492D01*
X136393500Y-117939246D01*
X136366500Y-117939246D01*
X136354396Y-117878394D01*
X136348318Y-117816683D01*
X136330319Y-117757347D01*
X136318214Y-117696492D01*
X136294469Y-117639167D01*
X136276470Y-117579832D01*
X136247239Y-117525144D01*
X136223496Y-117467824D01*
X136189029Y-117416240D01*
X136159796Y-117361549D01*
X136120456Y-117313613D01*
X136085988Y-117262028D01*
X136042118Y-117218158D01*
X136002778Y-117170222D01*
X135954842Y-117130882D01*
X135910972Y-117087012D01*
X135859387Y-117052544D01*
X135811451Y-117013204D01*
X135756760Y-116983971D01*
X135705176Y-116949504D01*
X135647856Y-116925761D01*
X135593168Y-116896530D01*
X135533833Y-116878531D01*
X135476508Y-116854786D01*
X135415653Y-116842681D01*
X135356317Y-116824682D01*
X135294606Y-116818604D01*
X135233754Y-116806500D01*
X135171710Y-116806500D01*
X135109999Y-116800422D01*
X135048288Y-116806500D01*
X134986246Y-116806500D01*
X134925395Y-116818604D01*
X134863682Y-116824682D01*
X134804344Y-116842682D01*
X134743492Y-116854786D01*
X134686170Y-116878530D01*
X134626831Y-116896530D01*
X134572140Y-116925763D01*
X134514824Y-116949504D01*
X134463244Y-116983969D01*
X134408548Y-117013204D01*
X134360607Y-117052548D01*
X134309028Y-117087012D01*
X133755173Y-117640867D01*
X133683496Y-117467824D01*
X133545988Y-117262028D01*
X133370972Y-117087012D01*
X133165176Y-116949504D01*
X133086297Y-116916831D01*
X133267727Y-116841680D01*
X133502759Y-116684637D01*
X133702637Y-116484759D01*
X133859680Y-116249727D01*
X133967853Y-115988574D01*
X134023000Y-115711335D01*
X134023000Y-115428665D01*
X138755000Y-115428665D01*
X138755000Y-115711335D01*
X138810147Y-115988574D01*
X138918320Y-116249727D01*
X138933501Y-116272447D01*
X138933500Y-117939246D01*
X138933500Y-118186754D01*
X138945602Y-118247597D01*
X138951681Y-118309316D01*
X138969683Y-118368660D01*
X138981786Y-118429508D01*
X139005528Y-118486826D01*
X139023529Y-118546167D01*
X139052762Y-118600857D01*
X139076504Y-118658176D01*
X139110973Y-118709762D01*
X139140204Y-118764450D01*
X139179542Y-118812383D01*
X139214012Y-118863972D01*
X139257883Y-118907843D01*
X139297222Y-118955778D01*
X139345158Y-118995118D01*
X139389028Y-119038988D01*
X139440613Y-119073456D01*
X139488549Y-119112796D01*
X139543242Y-119142030D01*
X139594824Y-119176496D01*
X139652138Y-119200236D01*
X139706832Y-119229471D01*
X139766176Y-119247473D01*
X139823492Y-119271214D01*
X139884337Y-119283317D01*
X139943683Y-119301319D01*
X140005404Y-119307398D01*
X140066246Y-119319500D01*
X140128279Y-119319500D01*
X140190000Y-119325579D01*
X140251721Y-119319500D01*
X140313754Y-119319500D01*
X140374597Y-119307398D01*
X140436316Y-119301319D01*
X140495660Y-119283317D01*
X140556508Y-119271214D01*
X140613826Y-119247472D01*
X140673167Y-119229471D01*
X140727857Y-119200238D01*
X140785176Y-119176496D01*
X140836762Y-119142027D01*
X140891450Y-119112796D01*
X140939383Y-119073458D01*
X140990972Y-119038988D01*
X141034843Y-118995117D01*
X141082778Y-118955778D01*
X141122118Y-118907842D01*
X141165988Y-118863972D01*
X141200456Y-118812387D01*
X141239796Y-118764451D01*
X141269030Y-118709758D01*
X141303496Y-118658176D01*
X141327236Y-118600862D01*
X141356471Y-118546168D01*
X141374473Y-118486824D01*
X141398214Y-118429508D01*
X141410317Y-118368663D01*
X141428319Y-118309317D01*
X141434398Y-118247596D01*
X141446500Y-118186754D01*
X141446500Y-117939246D01*
X144013500Y-117939246D01*
X144013500Y-118186754D01*
X144061786Y-118429508D01*
X144156504Y-118658176D01*
X144294012Y-118863972D01*
X144469028Y-119038988D01*
X144674824Y-119176496D01*
X144903492Y-119271214D01*
X145146246Y-119319500D01*
X145393754Y-119319500D01*
X145636508Y-119271214D01*
X145865176Y-119176496D01*
X146070972Y-119038988D01*
X146245988Y-118863972D01*
X146383496Y-118658176D01*
X146478214Y-118429508D01*
X146526500Y-118186754D01*
X146526500Y-117939246D01*
X146553500Y-117939246D01*
X146553500Y-118186754D01*
X146601786Y-118429508D01*
X146696504Y-118658176D01*
X146834012Y-118863972D01*
X147009028Y-119038988D01*
X147214824Y-119176496D01*
X147443492Y-119271214D01*
X147686246Y-119319500D01*
X147933754Y-119319500D01*
X148176508Y-119271214D01*
X148405176Y-119176496D01*
X148610972Y-119038988D01*
X148785988Y-118863972D01*
X148923496Y-118658176D01*
X149018214Y-118429508D01*
X149066500Y-118186754D01*
X149066500Y-117939246D01*
X149093500Y-117939246D01*
X149093500Y-118186754D01*
X149141786Y-118429508D01*
X149236504Y-118658176D01*
X149374012Y-118863972D01*
X149549028Y-119038988D01*
X149754824Y-119176496D01*
X149983492Y-119271214D01*
X150226246Y-119319500D01*
X150473754Y-119319500D01*
X150716508Y-119271214D01*
X150945176Y-119176496D01*
X151150972Y-119038988D01*
X151325988Y-118863972D01*
X151463496Y-118658176D01*
X151558214Y-118429508D01*
X151606500Y-118186754D01*
X151606500Y-117939246D01*
X151558214Y-117696492D01*
X151463496Y-117467824D01*
X151325988Y-117262028D01*
X151150972Y-117087012D01*
X150945176Y-116949504D01*
X150716508Y-116854786D01*
X150473754Y-116806500D01*
X150226246Y-116806500D01*
X149983492Y-116854786D01*
X149754824Y-116949504D01*
X149549028Y-117087012D01*
X149374012Y-117262028D01*
X149236504Y-117467824D01*
X149141786Y-117696492D01*
X149093500Y-117939246D01*
X149066500Y-117939246D01*
X149018214Y-117696492D01*
X148923496Y-117467824D01*
X148785988Y-117262028D01*
X148610972Y-117087012D01*
X148405176Y-116949504D01*
X148176508Y-116854786D01*
X147933754Y-116806500D01*
X147686246Y-116806500D01*
X147443492Y-116854786D01*
X147214824Y-116949504D01*
X147009028Y-117087012D01*
X146834012Y-117262028D01*
X146696504Y-117467824D01*
X146601786Y-117696492D01*
X146553500Y-117939246D01*
X146526500Y-117939246D01*
X146478214Y-117696492D01*
X146383496Y-117467824D01*
X146245988Y-117262028D01*
X146070972Y-117087012D01*
X145865176Y-116949504D01*
X145636508Y-116854786D01*
X145393754Y-116806500D01*
X145146246Y-116806500D01*
X144903492Y-116854786D01*
X144674824Y-116949504D01*
X144469028Y-117087012D01*
X144294012Y-117262028D01*
X144156504Y-117467824D01*
X144061786Y-117696492D01*
X144013500Y-117939246D01*
X141446500Y-117939246D01*
X141446500Y-116678896D01*
X141452241Y-116684637D01*
X141687273Y-116841680D01*
X141948426Y-116949853D01*
X142225665Y-117005000D01*
X142508335Y-117005000D01*
X142785574Y-116949853D01*
X143046727Y-116841680D01*
X143281759Y-116684637D01*
X143481637Y-116484759D01*
X143638680Y-116249727D01*
X143746853Y-115988574D01*
X143802000Y-115711335D01*
X143802000Y-115506500D01*
X159086057Y-115506500D01*
X159093000Y-115576992D01*
X159093000Y-115647835D01*
X159106821Y-115717317D01*
X159113764Y-115787809D01*
X159134327Y-115855597D01*
X159148147Y-115925074D01*
X159175253Y-115990514D01*
X159195818Y-116058308D01*
X159229214Y-116120788D01*
X159256320Y-116186227D01*
X159295672Y-116245122D01*
X159329068Y-116307601D01*
X159374010Y-116362363D01*
X159413363Y-116421259D01*
X159463450Y-116471346D01*
X159508392Y-116526108D01*
X159563154Y-116571050D01*
X159613241Y-116621137D01*
X159672137Y-116660490D01*
X159726899Y-116705432D01*
X159789378Y-116738828D01*
X159848273Y-116778180D01*
X159913712Y-116805286D01*
X159976192Y-116838682D01*
X160043986Y-116859247D01*
X160109426Y-116886353D01*
X160178903Y-116900173D01*
X160246691Y-116920736D01*
X160317183Y-116927679D01*
X160386665Y-116941500D01*
X162877008Y-116941500D01*
X162877008Y-117403840D01*
X162889268Y-117528322D01*
X162925578Y-117648020D01*
X162984543Y-117758334D01*
X163063895Y-117855025D01*
X163136682Y-117914760D01*
X163137898Y-117918767D01*
X163271148Y-118168060D01*
X163450472Y-118386567D01*
X163505235Y-118431510D01*
X166687314Y-121613590D01*
X166742748Y-121747420D01*
X166912376Y-122001288D01*
X167128272Y-122217184D01*
X167382140Y-122386812D01*
X167664222Y-122503655D01*
X167963678Y-122563220D01*
X168269002Y-122563220D01*
X168568458Y-122503655D01*
X168702289Y-122448220D01*
X169035088Y-122448220D01*
X169105580Y-122455163D01*
X169176072Y-122448220D01*
X169386889Y-122427456D01*
X169657388Y-122345402D01*
X169906681Y-122212152D01*
X170125188Y-122032828D01*
X170170134Y-121978061D01*
X171810963Y-120337233D01*
X171861057Y-120287139D01*
X171900415Y-120228236D01*
X171945351Y-120173481D01*
X171978743Y-120111009D01*
X172018100Y-120052107D01*
X172045209Y-119986660D01*
X172078601Y-119924188D01*
X172099164Y-119856401D01*
X172126273Y-119790954D01*
X172140093Y-119721476D01*
X172160656Y-119653690D01*
X172167599Y-119583196D01*
X172181420Y-119513715D01*
X172181420Y-119442873D01*
X172188363Y-119372381D01*
X172181420Y-119301889D01*
X172181420Y-119231045D01*
X172167599Y-119161562D01*
X172160656Y-119091072D01*
X172140094Y-119023289D01*
X172126273Y-118953806D01*
X172099163Y-118888356D01*
X172078601Y-118820573D01*
X172045211Y-118758105D01*
X172018100Y-118692653D01*
X171978740Y-118633747D01*
X171945351Y-118571280D01*
X171900418Y-118516529D01*
X171861057Y-118457621D01*
X171810960Y-118407524D01*
X171766027Y-118352773D01*
X171711276Y-118307840D01*
X171661179Y-118257743D01*
X171602271Y-118218382D01*
X171547520Y-118173449D01*
X171485053Y-118140060D01*
X171426147Y-118100700D01*
X171360695Y-118073589D01*
X171298227Y-118040199D01*
X171230444Y-118019637D01*
X171164994Y-117992527D01*
X171095511Y-117978706D01*
X171027728Y-117958144D01*
X170957238Y-117951201D01*
X170887755Y-117937380D01*
X170816911Y-117937380D01*
X170746419Y-117930437D01*
X170675927Y-117937380D01*
X170605085Y-117937380D01*
X170535604Y-117951201D01*
X170465110Y-117958144D01*
X170397324Y-117978707D01*
X170327846Y-117992527D01*
X170262399Y-118019636D01*
X170194612Y-118040199D01*
X170132140Y-118073591D01*
X170066693Y-118100700D01*
X170007791Y-118140057D01*
X169945319Y-118173449D01*
X169890564Y-118218385D01*
X169831661Y-118257743D01*
X169781567Y-118307837D01*
X168610961Y-119478444D01*
X166063152Y-116930637D01*
X166063152Y-115493840D01*
X166050892Y-115369358D01*
X166014582Y-115249660D01*
X165955617Y-115139346D01*
X165876265Y-115042655D01*
X165779574Y-114963303D01*
X165669260Y-114904338D01*
X165549562Y-114868028D01*
X165425080Y-114855768D01*
X164906403Y-114855768D01*
X164592295Y-114541660D01*
X164547348Y-114486892D01*
X164328841Y-114307568D01*
X164079548Y-114174318D01*
X163809049Y-114092264D01*
X163598232Y-114071500D01*
X163527740Y-114064557D01*
X163457248Y-114071500D01*
X160386665Y-114071500D01*
X160317183Y-114085321D01*
X160246691Y-114092264D01*
X160178903Y-114112827D01*
X160109426Y-114126647D01*
X160043986Y-114153753D01*
X159976192Y-114174318D01*
X159913712Y-114207714D01*
X159848273Y-114234820D01*
X159789378Y-114274172D01*
X159726899Y-114307568D01*
X159672137Y-114352510D01*
X159613241Y-114391863D01*
X159563154Y-114441950D01*
X159508392Y-114486892D01*
X159463450Y-114541654D01*
X159413363Y-114591741D01*
X159374010Y-114650637D01*
X159329068Y-114705399D01*
X159295672Y-114767878D01*
X159256320Y-114826773D01*
X159229214Y-114892212D01*
X159195818Y-114954692D01*
X159175253Y-115022486D01*
X159148147Y-115087926D01*
X159134327Y-115157403D01*
X159113764Y-115225191D01*
X159106821Y-115295683D01*
X159093000Y-115365165D01*
X159093000Y-115436008D01*
X159086057Y-115506500D01*
X143802000Y-115506500D01*
X143802000Y-115428665D01*
X143746853Y-115151426D01*
X143638680Y-114890273D01*
X143481637Y-114655241D01*
X143281759Y-114455363D01*
X143046727Y-114298320D01*
X142785574Y-114190147D01*
X142508335Y-114135000D01*
X142225665Y-114135000D01*
X141948426Y-114190147D01*
X141687273Y-114298320D01*
X141452241Y-114455363D01*
X141278500Y-114629104D01*
X141104759Y-114455363D01*
X140869727Y-114298320D01*
X140608574Y-114190147D01*
X140331335Y-114135000D01*
X140048665Y-114135000D01*
X139771426Y-114190147D01*
X139510273Y-114298320D01*
X139275241Y-114455363D01*
X139075363Y-114655241D01*
X138918320Y-114890273D01*
X138810147Y-115151426D01*
X138755000Y-115428665D01*
X134023000Y-115428665D01*
X133967853Y-115151426D01*
X133859680Y-114890273D01*
X133702637Y-114655241D01*
X133502759Y-114455363D01*
X133267727Y-114298320D01*
X133006574Y-114190147D01*
X132729335Y-114135000D01*
X132446665Y-114135000D01*
X132169426Y-114190147D01*
X131908273Y-114298320D01*
X131673241Y-114455363D01*
X131473363Y-114655241D01*
X131316320Y-114890273D01*
X131208147Y-115151426D01*
X131153000Y-115428665D01*
X131153000Y-115711335D01*
X131208147Y-115988574D01*
X131316320Y-116249727D01*
X131473363Y-116484759D01*
X131673241Y-116684637D01*
X131908273Y-116841680D01*
X132071703Y-116909375D01*
X131974824Y-116949504D01*
X131769028Y-117087012D01*
X131594012Y-117262028D01*
X131456504Y-117467824D01*
X131361786Y-117696492D01*
X131313500Y-117939246D01*
X131313500Y-118186754D01*
X131361786Y-118429508D01*
X131456504Y-118658176D01*
X131594012Y-118863972D01*
X131769028Y-119038988D01*
X131974824Y-119176496D01*
X132147867Y-119248173D01*
X128158542Y-123237499D01*
X127790094Y-123237499D01*
X130874836Y-120152757D01*
X130922778Y-120113412D01*
X131079796Y-119922085D01*
X131196471Y-119703802D01*
X131268319Y-119466951D01*
X131286500Y-119282355D01*
X131286500Y-119282346D01*
X131292578Y-119220635D01*
X131286500Y-119158924D01*
X131286500Y-117939246D01*
X131274398Y-117878404D01*
X131268319Y-117816683D01*
X131250317Y-117757337D01*
X131238214Y-117696492D01*
X131214473Y-117639176D01*
X131196471Y-117579832D01*
X131167236Y-117525138D01*
X131143496Y-117467824D01*
X131109030Y-117416242D01*
X131079796Y-117361549D01*
X131040456Y-117313613D01*
X131005988Y-117262028D01*
X130962118Y-117218158D01*
X130922778Y-117170222D01*
X130874843Y-117130883D01*
X130830972Y-117087012D01*
X130779383Y-117052542D01*
X130731450Y-117013204D01*
X130676762Y-116983973D01*
X130625176Y-116949504D01*
X130567857Y-116925762D01*
X130513167Y-116896529D01*
X130453826Y-116878528D01*
X130396508Y-116854786D01*
X130335660Y-116842683D01*
X130276316Y-116824681D01*
X130214597Y-116818602D01*
X130153754Y-116806500D01*
X130091721Y-116806500D01*
X130030000Y-116800421D01*
X129968279Y-116806500D01*
X129906246Y-116806500D01*
X129845404Y-116818602D01*
X129783683Y-116824681D01*
X129724337Y-116842683D01*
X129663492Y-116854786D01*
X129606176Y-116878527D01*
X129546832Y-116896529D01*
X129492138Y-116925764D01*
X129434824Y-116949504D01*
X129383242Y-116983970D01*
X129328549Y-117013204D01*
X129280613Y-117052544D01*
X129229028Y-117087012D01*
X129185158Y-117130882D01*
X129137222Y-117170222D01*
X129097883Y-117218157D01*
X129054012Y-117262028D01*
X129019542Y-117313617D01*
X128980204Y-117361550D01*
X128950973Y-117416238D01*
X128916504Y-117467824D01*
X128892762Y-117525143D01*
X128863529Y-117579833D01*
X128845528Y-117639174D01*
X128821786Y-117696492D01*
X128809683Y-117757340D01*
X128791681Y-117816684D01*
X128785602Y-117878403D01*
X128773500Y-117939246D01*
X128773500Y-118700175D01*
X124998804Y-122474871D01*
X124966570Y-122397052D01*
X124794227Y-122139123D01*
X124574877Y-121919773D01*
X124504876Y-121873000D01*
X124574877Y-121826227D01*
X124794227Y-121606877D01*
X124966570Y-121348948D01*
X125085282Y-121062352D01*
X125145800Y-120758104D01*
X125145800Y-120447896D01*
X125085282Y-120143648D01*
X124966570Y-119857052D01*
X124794227Y-119599123D01*
X124574877Y-119379773D01*
X124504876Y-119333000D01*
X124574877Y-119286227D01*
X124794227Y-119066877D01*
X124966570Y-118808948D01*
X125085282Y-118522352D01*
X125145800Y-118218104D01*
X125145800Y-117939246D01*
X126233500Y-117939246D01*
X126233500Y-118186754D01*
X126281786Y-118429508D01*
X126376504Y-118658176D01*
X126514012Y-118863972D01*
X126689028Y-119038988D01*
X126894824Y-119176496D01*
X127123492Y-119271214D01*
X127366246Y-119319500D01*
X127613754Y-119319500D01*
X127856508Y-119271214D01*
X128085176Y-119176496D01*
X128290972Y-119038988D01*
X128465988Y-118863972D01*
X128603496Y-118658176D01*
X128698214Y-118429508D01*
X128746500Y-118186754D01*
X128746500Y-117939246D01*
X128698214Y-117696492D01*
X128603496Y-117467824D01*
X128465988Y-117262028D01*
X128290972Y-117087012D01*
X128085176Y-116949504D01*
X127856508Y-116854786D01*
X127613754Y-116806500D01*
X127366246Y-116806500D01*
X127123492Y-116854786D01*
X126894824Y-116949504D01*
X126689028Y-117087012D01*
X126514012Y-117262028D01*
X126376504Y-117467824D01*
X126281786Y-117696492D01*
X126233500Y-117939246D01*
X125145800Y-117939246D01*
X125145800Y-117907896D01*
X125085282Y-117603648D01*
X124966570Y-117317052D01*
X124794227Y-117059123D01*
X124574877Y-116839773D01*
X124316948Y-116667430D01*
X124030352Y-116548718D01*
X123726104Y-116488200D01*
X123415896Y-116488200D01*
X123111648Y-116548718D01*
X122825052Y-116667430D01*
X122567123Y-116839773D01*
X122347773Y-117059123D01*
X122301000Y-117129124D01*
X122254227Y-117059123D01*
X122034877Y-116839773D01*
X121964876Y-116793000D01*
X122034877Y-116746227D01*
X122254227Y-116526877D01*
X122426570Y-116268948D01*
X122545282Y-115982352D01*
X122605800Y-115678104D01*
X122605800Y-115367896D01*
X122545282Y-115063648D01*
X122426570Y-114777052D01*
X122254227Y-114519123D01*
X122034877Y-114299773D01*
X121776948Y-114127430D01*
X121490352Y-114008718D01*
X121186104Y-113948200D01*
X120875896Y-113948200D01*
X120571648Y-114008718D01*
X120285052Y-114127430D01*
X120027123Y-114299773D01*
X119807773Y-114519123D01*
X119635430Y-114777052D01*
X119516718Y-115063648D01*
X119456200Y-115367896D01*
X119456200Y-115678104D01*
X119516718Y-115982352D01*
X119635430Y-116268948D01*
X119807773Y-116526877D01*
X120027123Y-116746227D01*
X120097124Y-116793000D01*
X120027123Y-116839773D01*
X119807773Y-117059123D01*
X119635430Y-117317052D01*
X119516718Y-117603648D01*
X119456200Y-117907896D01*
X119456200Y-118218104D01*
X119516718Y-118522352D01*
X119635430Y-118808948D01*
X119807773Y-119066877D01*
X120027123Y-119286227D01*
X120097124Y-119333000D01*
X120027123Y-119379773D01*
X119807773Y-119599123D01*
X119635430Y-119857052D01*
X119516718Y-120143648D01*
X119456200Y-120447896D01*
X119456200Y-120758104D01*
X119516718Y-121062352D01*
X119635430Y-121348948D01*
X119807773Y-121606877D01*
X120027123Y-121826227D01*
X120097124Y-121873000D01*
X120027123Y-121919773D01*
X119807773Y-122139123D01*
X119635430Y-122397052D01*
X119516718Y-122683648D01*
X119456200Y-122987896D01*
X119456200Y-123298104D01*
X119516718Y-123602352D01*
X119635430Y-123888948D01*
X119807773Y-124146877D01*
X120027123Y-124366227D01*
X120285052Y-124538570D01*
X120571648Y-124657282D01*
X120875896Y-124717800D01*
X121186104Y-124717800D01*
X121490352Y-124657282D01*
X121776948Y-124538570D01*
X122034877Y-124366227D01*
X122254227Y-124146877D01*
X122301000Y-124076876D01*
X122347773Y-124146877D01*
X122567123Y-124366227D01*
X122825052Y-124538570D01*
X123111648Y-124657282D01*
X123347071Y-124704110D01*
X123347489Y-124708357D01*
X123347491Y-128363215D01*
X123341412Y-128424936D01*
X123365672Y-128671253D01*
X123437520Y-128908104D01*
X123554194Y-129126387D01*
X123671867Y-129269772D01*
X123671873Y-129269778D01*
X123711213Y-129317714D01*
X123759149Y-129357054D01*
X128640459Y-134238365D01*
X119919084Y-134238365D01*
X119765377Y-134223294D01*
X119647425Y-134187682D01*
X119538636Y-134129838D01*
X119443151Y-134051962D01*
X119364616Y-133957030D01*
X119306012Y-133848644D01*
X119269577Y-133730943D01*
X119253635Y-133579260D01*
X119253635Y-127896185D01*
X119805760Y-127896185D01*
X119805760Y-128134535D01*
X119852259Y-128368304D01*
X119943472Y-128588510D01*
X120075891Y-128786690D01*
X120244430Y-128955229D01*
X120442610Y-129087648D01*
X120662816Y-129178861D01*
X120896585Y-129225360D01*
X121134935Y-129225360D01*
X121368704Y-129178861D01*
X121588910Y-129087648D01*
X121787090Y-128955229D01*
X121955629Y-128786690D01*
X122088048Y-128588510D01*
X122179261Y-128368304D01*
X122225760Y-128134535D01*
X122225760Y-127896185D01*
X122179261Y-127662416D01*
X122088048Y-127442210D01*
X121955629Y-127244030D01*
X121787090Y-127075491D01*
X121588910Y-126943072D01*
X121368704Y-126851859D01*
X121134935Y-126805360D01*
X120896585Y-126805360D01*
X120662816Y-126851859D01*
X120442610Y-126943072D01*
X120244430Y-127075491D01*
X120075891Y-127244030D01*
X119943472Y-127442210D01*
X119852259Y-127662416D01*
X119805760Y-127896185D01*
X119253635Y-127896185D01*
X119253635Y-114585084D01*
X119268706Y-114431377D01*
X119304318Y-114313426D01*
X119362163Y-114204634D01*
X119440037Y-114109152D01*
X119534973Y-114030614D01*
X119643354Y-113972013D01*
X119761057Y-113935577D01*
X119912740Y-113919635D01*
X178276916Y-113919635D01*
X178430623Y-113934706D01*
G37*
%TD.AperFunction*%
D28*
X167382140Y-126196812D02*
X167664222Y-126313655D01*
X167963678Y-126373220D01*
X168269002Y-126373220D01*
X168568458Y-126313655D01*
X168702289Y-126258220D01*
X173993365Y-126258220D01*
X173995838Y-126259542D01*
X174210163Y-126324556D01*
X174266336Y-126341596D01*
X174366771Y-126351488D01*
X174365208Y-126367360D01*
X174365208Y-128567360D01*
X174377468Y-128691842D01*
X174413778Y-128811540D01*
X174472743Y-128921854D01*
X174552095Y-129018545D01*
X174648786Y-129097897D01*
X174759100Y-129156862D01*
X174862387Y-129188194D01*
X174675969Y-129265410D01*
X174432748Y-129427925D01*
X174225905Y-129634768D01*
X174063390Y-129877989D01*
X173951448Y-130148242D01*
X173894380Y-130435140D01*
X173894380Y-130727660D01*
X173951448Y-131014558D01*
X174063390Y-131284811D01*
X174225905Y-131528032D01*
X174432748Y-131734875D01*
X174675969Y-131897390D01*
X174946222Y-132009332D01*
X175233120Y-132066400D01*
X175525640Y-132066400D01*
X175812538Y-132009332D01*
X176082791Y-131897390D01*
X176326012Y-131734875D01*
X176532855Y-131528032D01*
X176649380Y-131353640D01*
X176765905Y-131528032D01*
X176972748Y-131734875D01*
X177215969Y-131897390D01*
X177486222Y-132009332D01*
X177773120Y-132066400D01*
X178065640Y-132066400D01*
X178352538Y-132009332D01*
X178622791Y-131897390D01*
X178866012Y-131734875D01*
X178942366Y-131658521D01*
X178942366Y-133572906D01*
X178927294Y-133726623D01*
X178891682Y-133844575D01*
X178833838Y-133953364D01*
X178755962Y-134048849D01*
X178661030Y-134127384D01*
X178552644Y-134185988D01*
X178434943Y-134222423D01*
X178283260Y-134238365D01*
X166096840Y-134238365D01*
X166961854Y-133373352D01*
X167009789Y-133334013D01*
X167049129Y-133286077D01*
X167049134Y-133286072D01*
X167166807Y-133142687D01*
X167283482Y-132924403D01*
X167298616Y-132874512D01*
X167355330Y-132687552D01*
X167373511Y-132502956D01*
X167373511Y-132502946D01*
X167379589Y-132441235D01*
X167373511Y-132379524D01*
X167373511Y-130001046D01*
X167382140Y-130006812D01*
X167664222Y-130123655D01*
X167963678Y-130183220D01*
X168269002Y-130183220D01*
X168568458Y-130123655D01*
X168850540Y-130006812D01*
X169104408Y-129837184D01*
X169320304Y-129621288D01*
X169489932Y-129367420D01*
X169606775Y-129085338D01*
X169666340Y-128785882D01*
X169666340Y-128480558D01*
X169606775Y-128181102D01*
X169489932Y-127899020D01*
X169320304Y-127645152D01*
X169104408Y-127429256D01*
X168850540Y-127259628D01*
X168568458Y-127142785D01*
X168269002Y-127083220D01*
X167963678Y-127083220D01*
X167664222Y-127142785D01*
X167382140Y-127259628D01*
X167373511Y-127265394D01*
X167373511Y-126271721D01*
X167379589Y-126210010D01*
X167378018Y-126194058D01*
X167382140Y-126196812D01*
%TA.AperFunction,Conductor*%
D29*
G36*
X167382140Y-126196812D02*
G01*
X167664222Y-126313655D01*
X167963678Y-126373220D01*
X168269002Y-126373220D01*
X168568458Y-126313655D01*
X168702289Y-126258220D01*
X173993365Y-126258220D01*
X173995838Y-126259542D01*
X174210163Y-126324556D01*
X174266336Y-126341596D01*
X174366771Y-126351488D01*
X174365208Y-126367360D01*
X174365208Y-128567360D01*
X174377468Y-128691842D01*
X174413778Y-128811540D01*
X174472743Y-128921854D01*
X174552095Y-129018545D01*
X174648786Y-129097897D01*
X174759100Y-129156862D01*
X174862387Y-129188194D01*
X174675969Y-129265410D01*
X174432748Y-129427925D01*
X174225905Y-129634768D01*
X174063390Y-129877989D01*
X173951448Y-130148242D01*
X173894380Y-130435140D01*
X173894380Y-130727660D01*
X173951448Y-131014558D01*
X174063390Y-131284811D01*
X174225905Y-131528032D01*
X174432748Y-131734875D01*
X174675969Y-131897390D01*
X174946222Y-132009332D01*
X175233120Y-132066400D01*
X175525640Y-132066400D01*
X175812538Y-132009332D01*
X176082791Y-131897390D01*
X176326012Y-131734875D01*
X176532855Y-131528032D01*
X176649380Y-131353640D01*
X176765905Y-131528032D01*
X176972748Y-131734875D01*
X177215969Y-131897390D01*
X177486222Y-132009332D01*
X177773120Y-132066400D01*
X178065640Y-132066400D01*
X178352538Y-132009332D01*
X178622791Y-131897390D01*
X178866012Y-131734875D01*
X178942366Y-131658521D01*
X178942366Y-133572906D01*
X178927294Y-133726623D01*
X178891682Y-133844575D01*
X178833838Y-133953364D01*
X178755962Y-134048849D01*
X178661030Y-134127384D01*
X178552644Y-134185988D01*
X178434943Y-134222423D01*
X178283260Y-134238365D01*
X166096840Y-134238365D01*
X166961854Y-133373352D01*
X167009789Y-133334013D01*
X167049129Y-133286077D01*
X167049134Y-133286072D01*
X167166807Y-133142687D01*
X167283482Y-132924403D01*
X167298616Y-132874512D01*
X167355330Y-132687552D01*
X167373511Y-132502956D01*
X167373511Y-132502946D01*
X167379589Y-132441235D01*
X167373511Y-132379524D01*
X167373511Y-130001046D01*
X167382140Y-130006812D01*
X167664222Y-130123655D01*
X167963678Y-130183220D01*
X168269002Y-130183220D01*
X168568458Y-130123655D01*
X168850540Y-130006812D01*
X169104408Y-129837184D01*
X169320304Y-129621288D01*
X169489932Y-129367420D01*
X169606775Y-129085338D01*
X169666340Y-128785882D01*
X169666340Y-128480558D01*
X169606775Y-128181102D01*
X169489932Y-127899020D01*
X169320304Y-127645152D01*
X169104408Y-127429256D01*
X168850540Y-127259628D01*
X168568458Y-127142785D01*
X168269002Y-127083220D01*
X167963678Y-127083220D01*
X167664222Y-127142785D01*
X167382140Y-127259628D01*
X167373511Y-127265394D01*
X167373511Y-126271721D01*
X167379589Y-126210010D01*
X167378018Y-126194058D01*
X167382140Y-126196812D01*
G37*
%TD.AperFunction*%
D28*
X163417501Y-127328184D02*
X163417502Y-131323062D01*
X163309062Y-131431501D01*
X161902561Y-131431501D01*
X161947500Y-131205581D01*
X161947500Y-130922419D01*
X161892257Y-130644697D01*
X161783896Y-130383089D01*
X161626579Y-130147647D01*
X161426353Y-129947421D01*
X161196742Y-129794000D01*
X161426353Y-129640579D01*
X161626579Y-129440353D01*
X161783896Y-129204911D01*
X161892257Y-128943303D01*
X161947500Y-128665581D01*
X161947500Y-128382419D01*
X161892257Y-128104697D01*
X161783896Y-127843089D01*
X161626579Y-127607647D01*
X161426353Y-127407421D01*
X161190911Y-127250104D01*
X160929303Y-127141743D01*
X160899297Y-127135774D01*
X161105176Y-127050496D01*
X161310972Y-126912988D01*
X161485988Y-126737972D01*
X161623496Y-126532176D01*
X161718214Y-126303508D01*
X161766500Y-126060754D01*
X161766500Y-125813246D01*
X161732716Y-125643399D01*
X163417501Y-127328184D01*
%TA.AperFunction,Conductor*%
D29*
G36*
X163417501Y-127328184D02*
G01*
X163417502Y-131323062D01*
X163309062Y-131431501D01*
X161902561Y-131431501D01*
X161947500Y-131205581D01*
X161947500Y-130922419D01*
X161892257Y-130644697D01*
X161783896Y-130383089D01*
X161626579Y-130147647D01*
X161426353Y-129947421D01*
X161196742Y-129794000D01*
X161426353Y-129640579D01*
X161626579Y-129440353D01*
X161783896Y-129204911D01*
X161892257Y-128943303D01*
X161947500Y-128665581D01*
X161947500Y-128382419D01*
X161892257Y-128104697D01*
X161783896Y-127843089D01*
X161626579Y-127607647D01*
X161426353Y-127407421D01*
X161190911Y-127250104D01*
X160929303Y-127141743D01*
X160899297Y-127135774D01*
X161105176Y-127050496D01*
X161310972Y-126912988D01*
X161485988Y-126737972D01*
X161623496Y-126532176D01*
X161718214Y-126303508D01*
X161766500Y-126060754D01*
X161766500Y-125813246D01*
X161732716Y-125643399D01*
X163417501Y-127328184D01*
G37*
%TD.AperFunction*%
%TD*%
M02*
