%TF.GenerationSoftware,KiCad,Pcbnew,(5.1.12)-1*%
%TF.CreationDate,2023-01-21T14:52:04-05:00*%
%TF.ProjectId,Irrigation,49727269-6761-4746-996f-6e2e6b696361,rev?*%
%TF.SameCoordinates,Original*%
%TF.FileFunction,Soldermask,Top*%
%TF.FilePolarity,Negative*%
%FSLAX46Y46*%
G04 Gerber Fmt 4.6, Leading zero omitted, Abs format (unit mm)*
G04 Created by KiCad (PCBNEW (5.1.12)-1) date 2023-01-21 14:52:04*
%MOMM*%
%LPD*%
G01*
G04 APERTURE LIST*
%ADD10C,1.150000*%
%ADD11C,1.605000*%
%ADD12R,1.605000X1.605000*%
%ADD13R,1.910000X1.910000*%
%ADD14C,1.910000*%
%ADD15C,1.243000*%
%ADD16R,1.243000X1.243000*%
%ADD17C,2.200000*%
%ADD18R,2.200000X2.200000*%
%ADD19C,1.600000*%
%ADD20C,1.879600*%
%ADD21O,1.600000X1.600000*%
%ADD22O,1.700000X1.700000*%
%ADD23R,1.700000X1.700000*%
%ADD24C,1.830000*%
G04 APERTURE END LIST*
D10*
%TO.C,C3*%
X121015760Y-128015360D03*
X121015760Y-133015360D03*
%TD*%
%TO.C,C2*%
X178344200Y-115798600D03*
X173344200Y-115798600D03*
%TD*%
D11*
%TO.C,J3*%
X163050000Y-128524000D03*
X163050000Y-131064000D03*
X160510000Y-128524000D03*
X160510000Y-131064000D03*
X157970000Y-128524000D03*
X157970000Y-131064000D03*
X155430000Y-128524000D03*
X155430000Y-131064000D03*
X152890000Y-128524000D03*
X152890000Y-131064000D03*
X150350000Y-128524000D03*
X150350000Y-131064000D03*
X147810000Y-128524000D03*
X147810000Y-131064000D03*
X145270000Y-128524000D03*
X145270000Y-131064000D03*
X142730000Y-128524000D03*
X142730000Y-131064000D03*
X140190000Y-128524000D03*
D12*
X140190000Y-131064000D03*
%TD*%
D13*
%TO.C,U4*%
X135595200Y-128884200D03*
D14*
X133045200Y-128884200D03*
X130495200Y-128884200D03*
%TD*%
D15*
%TO.C,U5*%
X160510000Y-125937000D03*
X157970000Y-125937000D03*
X155430000Y-125937000D03*
X152890000Y-125937000D03*
X150350000Y-125937000D03*
X147810000Y-125937000D03*
X145270000Y-125937000D03*
X142730000Y-125937000D03*
X140190000Y-125937000D03*
X137650000Y-125937000D03*
X135110000Y-125937000D03*
X132570000Y-125937000D03*
X130030000Y-125937000D03*
X127490000Y-125937000D03*
X127490000Y-118063000D03*
X130030000Y-118063000D03*
X132570000Y-118063000D03*
X135110000Y-118063000D03*
X137650000Y-118063000D03*
X140190000Y-118063000D03*
X142730000Y-118063000D03*
X145270000Y-118063000D03*
X147810000Y-118063000D03*
X150350000Y-118063000D03*
X152890000Y-118063000D03*
X155430000Y-118063000D03*
X157970000Y-118063000D03*
D16*
X160510000Y-118063000D03*
%TD*%
D14*
%TO.C,U1*%
X169570080Y-116448840D03*
X167020080Y-116448840D03*
D13*
X164470080Y-116448840D03*
%TD*%
D17*
%TO.C,J1*%
X176103280Y-119847360D03*
X176103280Y-122387360D03*
X176103280Y-124927360D03*
D18*
X176103280Y-127467360D03*
%TD*%
D19*
%TO.C,C1*%
X158028000Y-115506500D03*
X160528000Y-115506500D03*
%TD*%
D20*
%TO.C,U3*%
X123571000Y-123143000D03*
X121031000Y-123143000D03*
X123571000Y-120603000D03*
X121031000Y-120603000D03*
X123571000Y-118063000D03*
X121031000Y-118063000D03*
X123571000Y-115523000D03*
X121031000Y-115523000D03*
%TD*%
D21*
%TO.C,R2*%
X140190000Y-115570000D03*
D19*
X132588000Y-115570000D03*
%TD*%
%TO.C,R1*%
X170746420Y-119372380D03*
D21*
X170746420Y-126992380D03*
%TD*%
D22*
%TO.C,J2*%
X177919380Y-130581400D03*
X175379380Y-130581400D03*
D23*
X172839380Y-130581400D03*
%TD*%
D19*
%TO.C,C4*%
X144867000Y-115570000D03*
X142367000Y-115570000D03*
%TD*%
D24*
%TO.C,BR1*%
X168116340Y-132443220D03*
X168116340Y-128633220D03*
X168116340Y-124823220D03*
X168116340Y-121013220D03*
%TD*%
M02*
